<svg version="1.1" xmlns="http://www.w3.org/2000/svg" xmlns:xlink="http://www.w3.org/1999/xlink" width="400" height="400" viewBox="0 0 400 400"><defs/><g><rect fill="rgb(255,255,255)" stroke="none" x="0" y="0" width="400" height="400" transform="matrix(1 0 0 1 0 0)" fill-opacity="1"/><path fill="none" stroke="rgb(0,0,0)" paint-order="fill stroke markers" d=" M 231.13865941968632 200 C 231.13865941968632 197.8432379967464 232.8870604759498 196.0948369404829 235.0438224792034 196.0948369404829 C 237.200584482457 196.0948369404829 238.9489855387205 197.8432379967464 238.9489855387205 200 C 238.9489855387205 202.1567620032536 237.200584482457 203.9051630595171 235.0438224792034 203.9051630595171 C 232.8870604759498 203.9051630595171 231.13865941968632 202.1567620032536 231.13865941968632 200" stroke-opacity="1" stroke-linecap="round" stroke-miterlimit="10" stroke-dasharray=""/><path fill="none" stroke="rgb(0,0,0)" paint-order="fill stroke markers" d=" M 230.43371856713782 206.50151580887373 C 230.43371856713782 205.59617428230217 231.16764288467914 204.86224996476085 232.07298441125067 204.86224996476085 C 232.97832593782226 204.86224996476085 233.71225025536356 205.59617428230217 233.71225025536356 206.50151580887373 C 233.71225025536356 207.4068573354453 232.97832593782226 208.1407816529866 232.07298441125067 208.1407816529866 C 231.16764288467914 208.1407816529866 230.43371856713782 207.4068573354453 230.43371856713782 206.50151580887373" stroke-opacity="1" stroke-linecap="round" stroke-miterlimit="10" stroke-dasharray=""/><path fill="none" stroke="rgb(0,0,0)" paint-order="fill stroke markers" d=" M 224.790914158254 212.31053086907434 C 224.790914158254 209.921220316465 226.72783306150885 207.98430141321015 229.1171436141182 207.98430141321015 C 231.50645416672756 207.98430141321015 233.4433730699824 209.921220316465 233.4433730699824 212.31053086907434 C 233.4433730699824 214.6998414216837 231.50645416672756 216.63676032493856 229.1171436141182 216.63676032493856 C 226.72783306150885 216.63676032493856 224.790914158254 214.6998414216837 224.790914158254 212.31053086907434" stroke-opacity="1" stroke-linecap="round" stroke-miterlimit="10" stroke-dasharray=""/><path fill="none" stroke="rgb(0,0,0)" paint-order="fill stroke markers" d=" M 235.498027009423 224.5311435507625 C 235.498027009423 224.33284786751193 235.6587774220901 224.17209745484485 235.85707310534065 224.17209745484485 C 236.0553687885912 224.17209745484485 236.21611920125832 224.33284786751193 236.21611920125832 224.5311435507625 C 236.21611920125832 224.72943923401306 236.0553687885912 224.89018964668017 235.85707310534065 224.89018964668017 C 235.6587774220901 224.89018964668017 235.498027009423 224.72943923401306 235.498027009423 224.5311435507625" stroke-opacity="1" stroke-linecap="round" stroke-miterlimit="10" stroke-dasharray=""/><path fill="none" stroke="rgb(0,0,0)" paint-order="fill stroke markers" d=" M 227.48385055686114 232.84029632400274 C 227.48385055686114 230.40409941019067 229.4587783657475 228.42917160130435 231.89497527955956 228.42917160130435 C 234.33117219337166 228.42917160130435 236.306100002258 230.40409941019067 236.306100002258 232.84029632400274 C 236.306100002258 235.27649323781483 234.33117219337166 237.25142104670118 231.89497527955956 237.25142104670118 C 229.4587783657475 237.25142104670118 227.48385055686114 235.27649323781483 227.48385055686114 232.84029632400274" stroke-opacity="1" stroke-linecap="round" stroke-miterlimit="10" stroke-dasharray=""/><path fill="none" stroke="rgb(0,0,0)" paint-order="fill stroke markers" d=" M 221.47216780326215 240.62582401129401 C 221.47216780326215 238.07792801055228 223.5376456131578 236.01245020065664 226.08554161389952 236.01245020065664 C 228.63343761464125 236.01245020065664 230.69891542453686 238.07792801055228 230.69891542453686 240.62582401129401 C 230.69891542453686 243.17372001203574 228.63343761464125 245.23919782193138 226.08554161389952 245.23919782193138 C 223.5376456131578 245.23919782193138 221.47216780326215 243.17372001203574 221.47216780326215 240.62582401129401" stroke-opacity="1" stroke-linecap="round" stroke-miterlimit="10" stroke-dasharray=""/><path fill="none" stroke="rgb(0,0,0)" paint-order="fill stroke markers" d=" M 211.81401117330208 240.87678629941155 C 211.81401117330208 238.62454246886256 213.63981554409236 236.79873809807225 215.89205937464138 236.79873809807225 C 218.14430320519037 236.79873809807225 219.97010757598065 238.62454246886256 219.97010757598065 240.87678629941155 C 219.97010757598065 243.12903012996057 218.14430320519037 244.95483450075085 215.89205937464138 244.95483450075085 C 213.63981554409236 244.95483450075085 211.81401117330208 243.12903012996057 211.81401117330208 240.87678629941155" stroke-opacity="1" stroke-linecap="round" stroke-miterlimit="10" stroke-dasharray=""/><path fill="none" stroke="rgb(0,0,0)" paint-order="fill stroke markers" d=" M 204.74555549881802 238.20746832653518 C 204.74555549881802 237.18886551574423 205.57129622849206 236.36312478607022 206.58989903928298 236.36312478607022 C 207.60850185007394 236.36312478607022 208.43424257974795 237.18886551574423 208.43424257974795 238.20746832653518 C 208.43424257974795 239.22607113732613 207.60850185007394 240.05181186700014 206.58989903928298 240.05181186700014 C 205.57129622849206 240.05181186700014 204.74555549881802 239.22607113732613 204.74555549881802 238.20746832653518" stroke-opacity="1" stroke-linecap="round" stroke-miterlimit="10" stroke-dasharray=""/><path fill="none" stroke="rgb(0,0,0)" paint-order="fill stroke markers" d=" M 196.30812007158056 234.31721462789417 C 196.30812007158056 232.83189659605551 197.51220824256848 231.6278084250676 198.99752627440714 231.6278084250676 C 200.48284430624577 231.6278084250676 201.6869324772337 232.83189659605551 201.6869324772337 234.31721462789417 C 201.6869324772337 235.8025326597328 200.48284430624577 237.00662083072075 198.99752627440714 237.00662083072075 C 197.51220824256848 237.00662083072075 196.30812007158056 235.8025326597328 196.30812007158056 234.31721462789417" stroke-opacity="1" stroke-linecap="round" stroke-miterlimit="10" stroke-dasharray=""/><path fill="none" stroke="rgb(0,0,0)" paint-order="fill stroke markers" d=" M 184.86884637854203 243.70918779459515 C 184.86884637854203 240.9844105669299 187.07771475425795 238.77554219121402 189.80249198192317 238.77554219121402 C 192.52726920958838 238.77554219121402 194.7361375853043 240.9844105669299 194.7361375853043 243.70918779459515 C 194.7361375853043 246.43396502226037 192.52726920958838 248.6428333979763 189.80249198192317 248.6428333979763 C 187.07771475425795 248.6428333979763 184.86884637854203 246.43396502226037 184.86884637854203 243.70918779459515" stroke-opacity="1" stroke-linecap="round" stroke-miterlimit="10" stroke-dasharray=""/><path fill="none" stroke="rgb(0,0,0)" paint-order="fill stroke markers" d=" M 183.109707418122 235.2841951493871 C 183.109707418122 234.8742816085886 183.44200799956195 234.54198102714867 183.85192154036045 234.54198102714867 C 184.26183508115895 234.54198102714867 184.5941356625989 234.8742816085886 184.5941356625989 235.2841951493871 C 184.5941356625989 235.6941086901856 184.26183508115895 236.02640927162554 183.85192154036045 236.02640927162554 C 183.44200799956195 236.02640927162554 183.109707418122 235.6941086901856 183.109707418122 235.2841951493871" stroke-opacity="1" stroke-linecap="round" stroke-miterlimit="10" stroke-dasharray=""/><path fill="none" stroke="rgb(0,0,0)" paint-order="fill stroke markers" d=" M 171.6282061417141 237.8874791669696 C 171.6282061417141 237.44915406240028 171.9835388463239 237.09382135779043 172.42186395089323 237.09382135779043 C 172.86018905546254 237.09382135779043 173.2155217600724 237.44915406240028 173.2155217600724 237.8874791669696 C 173.2155217600724 238.3258042715389 172.86018905546254 238.68113697614874 172.42186395089323 238.68113697614874 C 171.9835388463239 238.68113697614874 171.6282061417141 238.3258042715389 171.6282061417141 237.8874791669696" stroke-opacity="1" stroke-linecap="round" stroke-miterlimit="10" stroke-dasharray=""/><path fill="none" stroke="rgb(0,0,0)" paint-order="fill stroke markers" d=" M 170.61279263266343 225.3304290928627 C 170.61279263266343 224.3725840419764 171.38927946625003 223.5960972083898 172.34712451713628 223.5960972083898 C 173.30496956802256 223.5960972083898 174.08145640160916 224.3725840419764 174.08145640160916 225.3304290928627 C 174.08145640160916 226.28827414374894 173.30496956802256 227.06476097733554 172.34712451713628 227.06476097733554 C 171.38927946625003 227.06476097733554 170.61279263266343 226.28827414374894 170.61279263266343 225.3304290928627" stroke-opacity="1" stroke-linecap="round" stroke-miterlimit="10" stroke-dasharray=""/><path fill="none" stroke="rgb(0,0,0)" paint-order="fill stroke markers" d=" M 157.03994599300196 223.59257497897428 C 157.03994599300196 221.52512355959894 158.71594651598792 219.84912303661298 160.78339793536327 219.84912303661298 C 162.8508493547386 219.84912303661298 164.5268498777246 221.52512355959894 164.5268498777246 223.59257497897428 C 164.5268498777246 225.66002639834963 162.8508493547386 227.33602692133562 160.78339793536327 227.33602692133562 C 158.71594651598792 227.33602692133562 157.03994599300196 225.66002639834963 157.03994599300196 223.59257497897428" stroke-opacity="1" stroke-linecap="round" stroke-miterlimit="10" stroke-dasharray=""/><path fill="none" stroke="rgb(0,0,0)" paint-order="fill stroke markers" d=" M 161.16166344200775 212.84064438893085 C 161.16166344200775 211.33765048002547 162.38008074253673 210.11923317949646 163.88307465144212 210.11923317949646 C 165.3860685603475 210.11923317949646 166.6044858608765 211.33765048002547 166.6044858608765 212.84064438893085 C 166.6044858608765 214.34363829783624 165.3860685603475 215.56205559836525 163.88307465144212 215.56205559836525 C 162.38008074253673 215.56205559836525 161.16166344200775 214.34363829783624 161.16166344200775 212.84064438893085" stroke-opacity="1" stroke-linecap="round" stroke-miterlimit="10" stroke-dasharray=""/><path fill="none" stroke="rgb(0,0,0)" paint-order="fill stroke markers" d=" M 167.45728292082543 204.59860984235317 C 167.45728292082543 204.44269563275242 167.583676360779 204.31630219279882 167.7395905703798 204.31630219279882 C 167.89550477998054 204.31630219279882 168.02189821993414 204.44269563275242 168.02189821993414 204.59860984235317 C 168.02189821993414 204.75452405195392 167.89550477998054 204.88091749190755 167.7395905703798 204.88091749190755 C 167.583676360779 204.88091749190755 167.45728292082543 204.75452405195392 167.45728292082543 204.59860984235317" stroke-opacity="1" stroke-linecap="round" stroke-miterlimit="10" stroke-dasharray=""/><path fill="none" stroke="rgb(0,0,0)" paint-order="fill stroke markers" d=" M 158.10881144827962 197.82139152500025 C 158.10881144827962 195.2624539694504 160.18324020689386 193.1880252108362 162.7421777624437 193.1880252108362 C 165.30111531799355 193.1880252108362 167.37554407660775 195.2624539694504 167.37554407660775 197.82139152500025 C 167.37554407660775 200.38032908055013 165.30111531799355 202.45475783916433 162.7421777624437 202.45475783916433 C 160.18324020689386 202.45475783916433 158.10881144827962 200.38032908055013 158.10881144827962 197.82139152500025" stroke-opacity="1" stroke-linecap="round" stroke-miterlimit="10" stroke-dasharray=""/><path fill="none" stroke="rgb(0,0,0)" paint-order="fill stroke markers" d=" M 151.5532819329802 187.73897845372227 C 151.5532819329802 186.6017482399406 152.47518917355248 185.67984099936834 153.6124193873341 185.67984099936834 C 154.74964960111578 185.67984099936834 155.67155684168804 186.6017482399406 155.67155684168804 187.73897845372227 C 155.67155684168804 188.8762086675039 154.74964960111578 189.79811590807617 153.6124193873341 189.79811590807617 C 152.47518917355248 189.79811590807617 151.5532819329802 188.8762086675039 151.5532819329802 187.73897845372227" stroke-opacity="1" stroke-linecap="round" stroke-miterlimit="10" stroke-dasharray=""/><path fill="none" stroke="rgb(0,0,0)" paint-order="fill stroke markers" d=" M 166.3375899073465 184.96654548086252 C 166.3375899073465 183.20065411638762 167.76912770439452 181.76911631933962 169.53501906886945 181.76911631933962 C 171.30091043334437 181.76911631933962 172.73244823039238 183.20065411638762 172.73244823039238 184.96654548086252 C 172.73244823039238 186.73243684533742 171.30091043334437 188.16397464238543 169.53501906886945 188.16397464238543 C 167.76912770439452 188.16397464238543 166.3375899073465 186.73243684533742 166.3375899073465 184.96654548086252" stroke-opacity="1" stroke-linecap="round" stroke-miterlimit="10" stroke-dasharray=""/><path fill="none" stroke="rgb(0,0,0)" paint-order="fill stroke markers" d=" M 161.3924182099305 170.98792820730924 C 161.3924182099305 170.37888244738699 161.88614735035236 169.88515330696515 162.4951931102746 169.88515330696515 C 163.10423887019687 169.88515330696515 163.59796801061873 170.37888244738699 163.59796801061873 170.98792820730924 C 163.59796801061873 171.59697396723152 163.10423887019687 172.09070310765335 162.4951931102746 172.09070310765335 C 161.88614735035236 172.09070310765335 161.3924182099305 171.59697396723152 161.3924182099305 170.98792820730924" stroke-opacity="1" stroke-linecap="round" stroke-miterlimit="10" stroke-dasharray=""/><path fill="none" stroke="rgb(0,0,0)" paint-order="fill stroke markers" d=" M 167.50853376992382 165.3480199006708 C 167.50853376992382 163.93259276868463 168.65596417202445 162.78516236658402 170.07139130401063 162.78516236658402 C 171.4868184359968 162.78516236658402 172.63424883809745 163.93259276868463 172.63424883809745 165.3480199006708 C 172.63424883809745 166.76344703265698 171.4868184359968 167.9108774347576 170.07139130401063 167.9108774347576 C 168.65596417202445 167.9108774347576 167.50853376992382 166.76344703265698 167.50853376992382 165.3480199006708" stroke-opacity="1" stroke-linecap="round" stroke-miterlimit="10" stroke-dasharray=""/><path fill="none" stroke="rgb(0,0,0)" paint-order="fill stroke markers" d=" M 178.10961513256746 168.38974526283536 C 178.10961513256746 166.1200556699198 179.9495620880764 164.28010871441086 182.21925168099196 164.28010871441086 C 184.48894127390753 164.28010871441086 186.3288882294165 166.1200556699198 186.3288882294165 168.38974526283536 C 186.3288882294165 170.65943485575093 184.48894127390753 172.4993818112599 182.21925168099196 172.4993818112599 C 179.9495620880764 172.4993818112599 178.10961513256746 170.65943485575093 178.10961513256746 168.38974526283536" stroke-opacity="1" stroke-linecap="round" stroke-miterlimit="10" stroke-dasharray=""/><path fill="none" stroke="rgb(0,0,0)" paint-order="fill stroke markers" d=" M 188.20281912592506 165.3808484233018 C 188.20281912592506 165.04039047127873 188.47881482783026 164.76439476937355 188.81927277985332 164.76439476937355 C 189.15973073187638 164.76439476937355 189.43572643378158 165.04039047127873 189.43572643378158 165.3808484233018 C 189.43572643378158 165.72130637532484 189.15973073187638 165.99730207723005 188.81927277985332 165.99730207723005 C 188.47881482783026 165.99730207723005 188.20281912592506 165.72130637532484 188.20281912592506 165.3808484233018" stroke-opacity="1" stroke-linecap="round" stroke-miterlimit="10" stroke-dasharray=""/><path fill="none" stroke="rgb(0,0,0)" paint-order="fill stroke markers" d=" M 193.67521551995023 155.51286376695714 C 193.67521551995023 154.79281582872215 194.2589297053222 154.20910164335018 194.9789776435572 154.20910164335018 C 195.69902558179217 154.20910164335018 196.28273976716414 154.79281582872215 196.28273976716414 155.51286376695714 C 196.28273976716414 156.23291170519212 195.69902558179217 156.8166258905641 194.9789776435572 156.8166258905641 C 194.2589297053222 156.8166258905641 193.67521551995023 156.23291170519212 193.67521551995023 155.51286376695714" stroke-opacity="1" stroke-linecap="round" stroke-miterlimit="10" stroke-dasharray=""/><path fill="none" stroke="rgb(0,0,0)" paint-order="fill stroke markers" d=" M 202.66222245004812 156.730367294518 C 202.66222245004812 156.1016445062086 203.17190297368438 155.59196398257234 203.8006257619938 155.59196398257234 C 204.42934855030322 155.59196398257234 204.93902907393948 156.1016445062086 204.93902907393948 156.730367294518 C 204.93902907393948 157.35909008282744 204.42934855030322 157.8687706064637 203.8006257619938 157.8687706064637 C 203.17190297368438 157.8687706064637 202.66222245004812 157.35909008282744 202.66222245004812 156.730367294518" stroke-opacity="1" stroke-linecap="round" stroke-miterlimit="10" stroke-dasharray=""/><path fill="none" stroke="rgb(0,0,0)" paint-order="fill stroke markers" d=" M 207.38431071631237 158.54976163666564 C 207.38431071631237 155.85615561427943 209.56790983739907 153.67255649319273 212.26151585978528 153.67255649319273 C 214.95512188217148 153.67255649319273 217.13872100325818 155.85615561427943 217.13872100325818 158.54976163666564 C 217.13872100325818 161.24336765905184 214.95512188217148 163.4269667801385 212.26151585978528 163.4269667801385 C 209.56790983739907 163.4269667801385 207.38431071631237 161.24336765905184 207.38431071631237 158.54976163666564" stroke-opacity="1" stroke-linecap="round" stroke-miterlimit="10" stroke-dasharray=""/><path fill="none" stroke="rgb(0,0,0)" paint-order="fill stroke markers" d=" M 213.43020341525244 169.62156680617363 C 213.43020341525244 168.14133853561987 214.63016551948238 166.94137643138995 216.11039379003614 166.94137643138995 C 217.5906220605899 166.94137643138995 218.79058416481982 168.14133853561987 218.79058416481982 169.62156680617363 C 218.79058416481982 171.10179507672743 217.5906220605899 172.30175718095734 216.11039379003614 172.30175718095734 C 214.63016551948238 172.30175718095734 213.43020341525244 171.10179507672743 213.43020341525244 169.62156680617363" stroke-opacity="1" stroke-linecap="round" stroke-miterlimit="10" stroke-dasharray=""/><path fill="none" stroke="rgb(0,0,0)" paint-order="fill stroke markers" d=" M 226.81069996030993 166.21153442957026 C 226.81069996030993 165.6919987236991 227.23186686492966 165.27083181907938 227.75140257080085 165.27083181907938 C 228.270938276672 165.27083181907938 228.69210518129174 165.6919987236991 228.69210518129174 166.21153442957026 C 228.69210518129174 166.73107013544143 228.270938276672 167.15223704006118 227.75140257080085 167.15223704006118 C 227.23186686492966 167.15223704006118 226.81069996030993 166.73107013544143 226.81069996030993 166.21153442957026" stroke-opacity="1" stroke-linecap="round" stroke-miterlimit="10" stroke-dasharray=""/><path fill="none" stroke="rgb(0,0,0)" paint-order="fill stroke markers" d=" M 236.16283044802367 169.64236551174503 C 236.16283044802367 169.01598650369215 236.67061096235432 168.5082059893615 237.2969899704072 168.5082059893615 C 237.92336897846005 168.5082059893615 238.4311494927907 169.01598650369215 238.4311494927907 169.64236551174503 C 238.4311494927907 170.2687445197979 237.92336897846005 170.77652503412855 237.2969899704072 170.77652503412855 C 236.67061096235432 170.77652503412855 236.16283044802367 170.2687445197979 236.16283044802367 169.64236551174503" stroke-opacity="1" stroke-linecap="round" stroke-miterlimit="10" stroke-dasharray=""/><path fill="none" stroke="rgb(0,0,0)" paint-order="fill stroke markers" d=" M 238.3993341122544 179.02340151296505 C 238.3993341122544 178.14995759892457 239.10740030573865 177.44189140544032 239.98084421977913 177.44189140544032 C 240.8542881338196 177.44189140544032 241.56235432730386 178.14995759892457 241.56235432730386 179.02340151296505 C 241.56235432730386 179.89684542700553 240.8542881338196 180.6049116204898 239.98084421977913 180.6049116204898 C 239.10740030573865 180.6049116204898 238.3993341122544 179.89684542700553 238.3993341122544 179.02340151296505" stroke-opacity="1" stroke-linecap="round" stroke-miterlimit="10" stroke-dasharray=""/><path fill="none" stroke="rgb(0,0,0)" paint-order="fill stroke markers" d=" M 242.5690881112061 186.58740771710262 C 242.5690881112061 184.6426398757057 244.14563394378115 183.06609404313068 246.09040178517805 183.06609404313068 C 248.03516962657497 183.06609404313068 249.61171545915 184.6426398757057 249.61171545915 186.58740771710262 C 249.61171545915 188.53217555849955 248.03516962657497 190.10872139107457 246.09040178517805 190.10872139107457 C 244.14563394378115 190.10872139107457 242.5690881112061 188.53217555849955 242.5690881112061 186.58740771710262" stroke-opacity="1" stroke-linecap="round" stroke-miterlimit="10" stroke-dasharray=""/><path fill="none" stroke="rgb(0,0,0)" paint-order="fill stroke markers" d=" M 230.17801186245862 197.2114173586135 C 230.17801186245862 195.4070104881136 231.6407726462409 193.94424970433133 233.44517951674075 193.94424970433133 C 235.2495863872406 193.94424970433133 236.71234717102288 195.4070104881136 236.71234717102288 197.2114173586135 C 236.71234717102288 199.01582422911335 235.2495863872406 200.47858501289562 233.44517951674075 200.47858501289562 C 231.6407726462409 200.47858501289562 230.17801186245862 199.01582422911335 230.17801186245862 197.2114173586135" stroke-opacity="1" stroke-linecap="round" stroke-miterlimit="10" stroke-dasharray=""/><path fill="none" stroke="rgb(255,0,0)" paint-order="fill stroke markers" d=" M 232.07298441125067 206.50151580887373 C 231.08520460040316 208.55327095371945 228.4864621651032 209.3055929120929 229.1171436141182 212.31053086907434 C 229.7478250631332 215.31546882605582 235.39410116110042 221.1095159749411 235.85707310534065 224.5311435507625 C 236.3200450495809 227.9527711265839 233.5235638614664 230.15784958058083 231.89497527955956 232.84029632400274 C 230.2663866976527 235.52274306742467 228.75269426471922 239.28640901539254 226.08554161389952 240.62582401129401 C 223.41838896307982 241.9652390071955 219.14133313707745 241.27984558020472 215.89205937464138 240.87678629941155 C 212.64278561220527 240.47372701861843 209.4056545559887 239.30073027178807 206.58989903928298 238.20746832653518 C 203.77414352257728 237.11420638128226 201.79542745063378 233.4002613832175 198.99752627440714 234.31721462789417 C 196.1996250981805 235.23416787257082 192.32675943759762 243.5480243743463 189.80249198192317 243.70918779459515 C 187.27822452624872 243.87035121484396 186.74869287886543 236.254479920658 183.85192154036045 235.2841951493871 C 180.95515020185547 234.3139103781162 174.33933012143058 239.54644017639032 172.42186395089323 237.8874791669696 C 170.50439778035587 236.22851815754885 174.28686885305794 227.7129131241952 172.34712451713628 225.3304290928627 C 170.40738018121462 222.9479450615301 162.19407291297898 225.6742057629629 160.78339793536327 223.59257497897428 C 159.37272295774758 221.51094419498565 162.7237092122727 216.00630524503438 163.88307465144212 212.84064438893085 C 165.04244009061154 209.67498353282735 167.92974005187952 207.10181865300828 167.7395905703798 204.59860984235317 C 167.54944108888003 202.0954010316981 165.0967062929513 200.6313300897721 162.7421777624437 197.82139152500025 C 160.38764923193608 195.01145296022844 152.48027916959649 189.88145279441187 153.6124193873341 187.73897845372227 C 154.74455960507174 185.59650411303264 168.0545567817127 187.75838718859802 169.53501906886945 184.96654548086252 C 171.01548135602619 182.17470377312702 162.40579773775107 174.25768247067452 162.4951931102746 170.98792820730924 C 162.58458848279815 167.71817394394395 166.78404820889108 165.78105039141644 170.07139130401063 165.3480199006708 C 173.35873439913019 164.91498940992517 179.09460476835153 168.38427384239685 182.21925168099196 168.38974526283536 C 185.34389859363242 168.39521668327387 186.69265178609245 167.5269953392815 188.81927277985332 165.3808484233018 C 190.9458937736142 163.2347015073221 192.48208547986712 156.95461062175445 194.9789776435572 155.51286376695714 C 197.47586980724728 154.07111691215985 200.9202027259558 156.22421764956658 203.8006257619938 156.730367294518 C 206.6810487980318 157.23651693946942 210.20988785511156 156.40122838472303 212.26151585978528 158.54976163666564 C 214.313143864459 160.69829488860825 213.5287460048669 168.34460467402286 216.11039379003614 169.62156680617363 C 218.6920415752054 170.89852893832443 224.22030320740566 166.2080679786417 227.75140257080085 166.21153442957026 C 231.282501934196 166.21500088049885 235.25874969557748 167.50705433117923 237.2969899704072 169.64236551174503 C 239.33523024523691 171.77767669231082 238.515275583984 176.19922781207214 239.98084421977913 179.02340151296505 C 241.44641285557427 181.847575213858 247.17967923568443 183.5560717428279 246.09040178517805 186.58740771710262 C 245.00112433467166 189.61874369137738 235.28627606773654 194.97598531146392 233.44517951674075 197.2114173586135 C 231.60408296574496 199.44684940576303 234.7773819854596 199.5352362264356 235.0438224792034 200 L 235.0438224792034 200 Z" stroke-opacity="1" stroke-linecap="round" stroke-miterlimit="10" stroke-dasharray=""/><path fill="none" stroke="rgb(0,0,0)" paint-order="fill stroke markers" d=" M 256.25699569629467 200 C 256.25699569629467 198.1748473989241 257.73657421759145 196.69526887762726 259.56172681866735 196.69526887762726 C 261.38687941974325 196.69526887762726 262.8664579410401 198.1748473989241 262.8664579410401 200 C 262.8664579410401 201.8251526010759 261.38687941974325 203.30473112237274 259.56172681866735 203.30473112237274 C 257.73657421759145 203.30473112237274 256.25699569629467 201.8251526010759 256.25699569629467 200" stroke-opacity="1" stroke-linecap="round" stroke-miterlimit="10" stroke-dasharray=""/><path fill="none" stroke="rgb(0,0,0)" paint-order="fill stroke markers" d=" M 251.46368951585907 211.05967354644173 C 251.46368951585907 209.35013521879736 252.84954415038402 207.96428058427242 254.55908247802836 207.96428058427242 C 256.26862080567275 207.96428058427242 257.65447544019764 209.35013521879736 257.65447544019764 211.05967354644173 C 257.65447544019764 212.76921187408607 256.26862080567275 214.15506650861101 254.55908247802836 214.15506650861101 C 252.84954415038402 214.15506650861101 251.46368951585907 212.76921187408607 251.46368951585907 211.05967354644173" stroke-opacity="1" stroke-linecap="round" stroke-miterlimit="10" stroke-dasharray=""/><path fill="none" stroke="rgb(0,0,0)" paint-order="fill stroke markers" d=" M 253.6127715482221 223.53709644571748 C 253.6127715482221 222.40066195637078 254.53403372668714 221.47939977790574 255.67046821603384 221.47939977790574 C 256.80690270538054 221.47939977790574 257.7281648838456 222.40066195637078 257.7281648838456 223.53709644571748 C 257.7281648838456 224.67353093506418 256.80690270538054 225.59479311352922 255.67046821603384 225.59479311352922 C 254.53403372668714 225.59479311352922 253.6127715482221 224.67353093506418 253.6127715482221 223.53709644571748" stroke-opacity="1" stroke-linecap="round" stroke-miterlimit="10" stroke-dasharray=""/><path fill="none" stroke="rgb(0,0,0)" paint-order="fill stroke markers" d=" M 242.374123909036 230.37064206285305 C 242.374123909036 229.25584397111652 243.2778463216955 228.35212155845704 244.39264441343204 228.35212155845704 C 245.50744250516854 228.35212155845704 246.41116491782805 229.25584397111652 246.41116491782805 230.37064206285305 C 246.41116491782805 231.48544015458958 245.50744250516854 232.38916256724906 244.39264441343204 232.38916256724906 C 243.2778463216955 232.38916256724906 242.374123909036 231.48544015458958 242.374123909036 230.37064206285305" stroke-opacity="1" stroke-linecap="round" stroke-miterlimit="10" stroke-dasharray=""/><path fill="none" stroke="rgb(0,0,0)" paint-order="fill stroke markers" d=" M 237.39511995768117 241.9618608229295 C 237.39511995768117 240.1068181174161 238.89892919617887 238.60300887891844 240.75397190169227 238.60300887891844 C 242.60901460720567 238.60300887891844 244.11282384570336 240.1068181174161 244.11282384570336 241.9618608229295 C 244.11282384570336 243.8169035284429 242.60901460720567 245.32071276694057 240.75397190169227 245.32071276694057 C 238.89892919617887 245.32071276694057 237.39511995768117 243.8169035284429 237.39511995768117 241.9618608229295" stroke-opacity="1" stroke-linecap="round" stroke-miterlimit="10" stroke-dasharray=""/><path fill="none" stroke="rgb(0,0,0)" paint-order="fill stroke markers" d=" M 224.94376258782236 243.42982641778968 C 224.94376258782236 241.80488966154903 226.26103409793183 240.48761815143956 227.88597085417248 240.48761815143956 C 229.51090761041314 240.48761815143956 230.8281791205226 241.80488966154903 230.8281791205226 243.42982641778968 C 230.8281791205226 245.05476317403037 229.51090761041314 246.3720346841398 227.88597085417248 246.3720346841398 C 226.26103409793183 246.3720346841398 224.94376258782236 245.05476317403037 224.94376258782236 243.42982641778968" stroke-opacity="1" stroke-linecap="round" stroke-miterlimit="10" stroke-dasharray=""/><path fill="none" stroke="rgb(0,0,0)" paint-order="fill stroke markers" d=" M 221.97652631067652 258.56875460457366 C 221.97652631067652 258.1303460642802 222.33192665330478 257.77494572165193 222.7703351935982 257.77494572165193 C 223.20874373389165 257.77494572165193 223.5641440765199 258.1303460642802 223.5641440765199 258.56875460457366 C 223.5641440765199 259.0071631448671 223.20874373389165 259.3625634874953 222.7703351935982 259.3625634874953 C 222.33192665330478 259.3625634874953 221.97652631067652 259.0071631448671 221.97652631067652 258.56875460457366" stroke-opacity="1" stroke-linecap="round" stroke-miterlimit="10" stroke-dasharray=""/><path fill="none" stroke="rgb(0,0,0)" paint-order="fill stroke markers" d=" M 206.1389798613927 246.72153741794725 C 206.1389798613927 245.6614832078361 206.99832358956434 244.80213947966448 208.05837779967547 244.80213947966448 C 209.1184320097866 244.80213947966448 209.97777573795824 245.6614832078361 209.97777573795824 246.72153741794725 C 209.97777573795824 247.78159162805838 209.1184320097866 248.64093535623 208.05837779967547 248.64093535623 C 206.99832358956434 248.64093535623 206.1389798613927 247.78159162805838 206.1389798613927 246.72153741794725" stroke-opacity="1" stroke-linecap="round" stroke-miterlimit="10" stroke-dasharray=""/><path fill="none" stroke="rgb(0,0,0)" paint-order="fill stroke markers" d=" M 196.62599558040924 258.150597271705 C 196.62599558040924 257.225348864636 197.3760576131162 256.475286831929 198.3013060201852 256.475286831929 C 199.22655442725417 256.475286831929 199.97661645996115 257.225348864636 199.97661645996115 258.150597271705 C 199.97661645996115 259.075845678774 199.22655442725417 259.8259077114809 198.3013060201852 259.8259077114809 C 197.3760576131162 259.8259077114809 196.62599558040924 259.075845678774 196.62599558040924 258.150597271705" stroke-opacity="1" stroke-linecap="round" stroke-miterlimit="10" stroke-dasharray=""/><path fill="none" stroke="rgb(0,0,0)" paint-order="fill stroke markers" d=" M 186.30020998615953 246.6822526935053 C 186.30020998615953 245.1310751235143 187.55768786166604 243.8735972480078 189.10886543165705 243.8735972480078 C 190.66004300164803 243.8735972480078 191.91752087715454 245.1310751235143 191.91752087715454 246.6822526935053 C 191.91752087715454 248.2334302634963 190.66004300164803 249.49090813900278 189.10886543165705 249.49090813900278 C 187.55768786166604 249.49090813900278 186.30020998615953 248.2334302634963 186.30020998615953 246.6822526935053" stroke-opacity="1" stroke-linecap="round" stroke-miterlimit="10" stroke-dasharray=""/><path fill="none" stroke="rgb(0,0,0)" paint-order="fill stroke markers" d=" M 174.9554214621058 249.11757097017104 C 174.9554214621058 247.70065620537392 176.10405782887665 246.5520198386031 177.52097259367378 246.5520198386031 C 178.9378873584709 246.5520198386031 180.08652372524173 247.70065620537392 180.08652372524173 249.11757097017104 C 180.08652372524173 250.53448573496817 178.9378873584709 251.68312210173903 177.52097259367378 251.68312210173903 C 176.10405782887665 251.68312210173903 174.9554214621058 250.53448573496817 174.9554214621058 249.11757097017104" stroke-opacity="1" stroke-linecap="round" stroke-miterlimit="10" stroke-dasharray=""/><path fill="none" stroke="rgb(0,0,0)" paint-order="fill stroke markers" d=" M 170.0936993317095 239.34577319834742 C 170.0936993317095 238.64620595031153 170.66081063724442 238.0790946447766 171.36037788528031 238.0790946447766 C 172.05994513331618 238.0790946447766 172.62705643885113 238.64620595031153 172.62705643885113 239.34577319834742 C 172.62705643885113 240.04534044638328 172.05994513331618 240.61245175191823 171.36037788528031 240.61245175191823 C 170.66081063724442 240.61245175191823 170.0936993317095 240.04534044638328 170.0936993317095 239.34577319834742" stroke-opacity="1" stroke-linecap="round" stroke-miterlimit="10" stroke-dasharray=""/><path fill="none" stroke="rgb(0,0,0)" paint-order="fill stroke markers" d=" M 164.29241214808405 229.98848991051491 C 164.29241214808405 228.3484403250022 165.6219350269688 227.01891744611746 167.2619846124815 227.01891744611746 C 168.90203419799425 227.01891744611746 170.231557076879 228.3484403250022 170.231557076879 229.98848991051491 C 170.231557076879 231.62853949602766 168.90203419799425 232.9580623749124 167.2619846124815 232.9580623749124 C 165.6219350269688 232.9580623749124 164.29241214808405 231.62853949602766 164.29241214808405 229.98848991051491" stroke-opacity="1" stroke-linecap="round" stroke-miterlimit="10" stroke-dasharray=""/><path fill="none" stroke="rgb(0,0,0)" paint-order="fill stroke markers" d=" M 147.16078426787203 228.84511964300742 C 147.16078426787203 226.14356026775002 149.3508308553643 223.95351368025774 152.05239023062168 223.95351368025774 C 154.7539496058791 223.95351368025774 156.94399619337136 226.14356026775002 156.94399619337136 228.84511964300742 C 156.94399619337136 231.5466790182648 154.7539496058791 233.73672560575707 152.05239023062168 233.73672560575707 C 149.3508308553643 233.73672560575707 147.16078426787203 231.5466790182648 147.16078426787203 228.84511964300742" stroke-opacity="1" stroke-linecap="round" stroke-miterlimit="10" stroke-dasharray=""/><path fill="none" stroke="rgb(0,0,0)" paint-order="fill stroke markers" d=" M 147.7565940504879 218.27968882498976 C 147.7565940504879 217.82236319315692 148.127329725795 217.45162751784983 148.5846553576278 217.45162751784983 C 149.04198098946063 217.45162751784983 149.41271666476771 217.82236319315692 149.41271666476771 218.27968882498976 C 149.41271666476771 218.73701445682258 149.04198098946063 219.10775013212967 148.5846553576278 219.10775013212967 C 148.127329725795 219.10775013212967 147.7565940504879 218.73701445682258 147.7565940504879 218.27968882498976" stroke-opacity="1" stroke-linecap="round" stroke-miterlimit="10" stroke-dasharray=""/><path fill="none" stroke="rgb(0,0,0)" paint-order="fill stroke markers" d=" M 151.81499489986422 206.54478843797747 C 151.81499489986422 205.29018453864094 152.83205231254266 204.2731271259625 154.0866562118792 204.2731271259625 C 155.34126011121572 204.2731271259625 156.3583175238942 205.29018453864094 156.3583175238942 206.54478843797747 C 156.3583175238942 207.799392337314 155.34126011121572 208.81644974999244 154.0866562118792 208.81644974999244 C 152.83205231254266 208.81644974999244 151.81499489986422 207.799392337314 151.81499489986422 206.54478843797747" stroke-opacity="1" stroke-linecap="round" stroke-miterlimit="10" stroke-dasharray=""/><path fill="none" stroke="rgb(0,0,0)" paint-order="fill stroke markers" d=" M 145.43727491329687 196.94746601195152 C 145.43727491329687 195.6444465026229 146.49358093269322 194.58814048322657 147.79660044202183 194.58814048322657 C 149.09961995135046 194.58814048322657 150.1559259707468 195.6444465026229 150.1559259707468 196.94746601195152 C 150.1559259707468 198.25048552128015 149.09961995135046 199.3067915406765 147.79660044202183 199.3067915406765 C 146.49358093269322 199.3067915406765 145.43727491329687 198.25048552128015 145.43727491329687 196.94746601195152" stroke-opacity="1" stroke-linecap="round" stroke-miterlimit="10" stroke-dasharray=""/><path fill="none" stroke="rgb(0,0,0)" paint-order="fill stroke markers" d=" M 142.29138187092863 185.78697371951583 C 142.29138187092863 183.61321125237149 144.05356452617184 181.85102859712828 146.22732699331618 181.85102859712828 C 148.40108946046053 181.85102859712828 150.16327211570373 183.61321125237149 150.16327211570373 185.78697371951583 C 150.16327211570373 187.96073618666017 148.40108946046053 189.72291884190338 146.22732699331618 189.72291884190338 C 144.05356452617184 189.72291884190338 142.29138187092863 187.96073618666017 142.29138187092863 185.78697371951583" stroke-opacity="1" stroke-linecap="round" stroke-miterlimit="10" stroke-dasharray=""/><path fill="none" stroke="rgb(0,0,0)" paint-order="fill stroke markers" d=" M 140.19446847557066 172.57909245196188 C 140.19446847557066 170.23871054770797 142.0917228723398 168.34145615093885 144.4321047765937 168.34145615093885 C 146.7724866808476 168.34145615093885 148.66974107761672 170.23871054770797 148.66974107761672 172.57909245196188 C 148.66974107761672 174.91947435621577 146.7724866808476 176.81672875298491 144.4321047765937 176.81672875298491 C 142.0917228723398 176.81672875298491 140.19446847557066 174.91947435621577 140.19446847557066 172.57909245196188" stroke-opacity="1" stroke-linecap="round" stroke-miterlimit="10" stroke-dasharray=""/><path fill="none" stroke="rgb(0,0,0)" paint-order="fill stroke markers" d=" M 158.72784832125203 168.87723171829774 C 158.72784832125203 168.30352835074885 159.1929267917978 167.8384498802031 159.76663015934665 167.8384498802031 C 160.3403335268955 167.8384498802031 160.80541199744127 168.30352835074885 160.80541199744127 168.87723171829774 C 160.80541199744127 169.4509350858466 160.3403335268955 169.91601355639236 159.76663015934665 169.91601355639236 C 159.1929267917978 169.91601355639236 158.72784832125203 169.4509350858466 158.72784832125203 168.87723171829774" stroke-opacity="1" stroke-linecap="round" stroke-miterlimit="10" stroke-dasharray=""/><path fill="none" stroke="rgb(0,0,0)" paint-order="fill stroke markers" d=" M 162.8837949486818 158.5202122652826 C 162.8837949486818 157.80750022997384 163.4615622097267 157.22973296892894 164.17427424503546 157.22973296892894 C 164.88698628034422 157.22973296892894 165.46475354138911 157.80750022997384 165.46475354138911 158.5202122652826 C 165.46475354138911 159.23292430059135 164.88698628034422 159.81069156163625 164.17427424503546 159.81069156163625 C 163.4615622097267 159.81069156163625 162.8837949486818 159.23292430059135 162.8837949486818 158.5202122652826" stroke-opacity="1" stroke-linecap="round" stroke-miterlimit="10" stroke-dasharray=""/><path fill="none" stroke="rgb(0,0,0)" paint-order="fill stroke markers" d=" M 169.27018610697905 147.9423629386467 C 169.27018610697905 147.1429716683627 169.9182207715475 146.49493700379423 170.71761204183153 146.49493700379423 C 171.51700331211555 146.49493700379423 172.165037976684 147.1429716683627 172.165037976684 147.9423629386467 C 172.165037976684 148.74175420893073 171.51700331211555 149.38978887349919 170.71761204183153 149.38978887349919 C 169.9182207715475 149.38978887349919 169.27018610697905 148.74175420893073 169.27018610697905 147.9423629386467" stroke-opacity="1" stroke-linecap="round" stroke-miterlimit="10" stroke-dasharray=""/><path fill="none" stroke="rgb(0,0,0)" paint-order="fill stroke markers" d=" M 183.28503938573212 148.24799849636887 C 183.28503938573212 148.24747613904574 183.28546284000947 148.2470526847684 183.2859851973326 148.2470526847684 C 183.2865075546557 148.2470526847684 183.28693100893304 148.24747613904574 183.28693100893304 148.24799849636887 C 183.28693100893304 148.24852085369199 183.2865075546557 148.24894430796934 183.2859851973326 148.24894430796934 C 183.28546284000947 148.24894430796934 183.28503938573212 148.24852085369199 183.28503938573212 148.24799849636887" stroke-opacity="1" stroke-linecap="round" stroke-miterlimit="10" stroke-dasharray=""/><path fill="none" stroke="rgb(0,0,0)" paint-order="fill stroke markers" d=" M 193.18448771762343 143.1907473804036 C 193.18448771762343 142.96775726445853 193.36525692334317 142.78698805873879 193.58824703928823 142.78698805873879 C 193.81123715523327 142.78698805873879 193.992006360953 142.96775726445853 193.992006360953 143.1907473804036 C 193.992006360953 143.41373749634863 193.81123715523327 143.59450670206837 193.58824703928823 143.59450670206837 C 193.36525692334317 143.59450670206837 193.18448771762343 143.41373749634863 193.18448771762343 143.1907473804036" stroke-opacity="1" stroke-linecap="round" stroke-miterlimit="10" stroke-dasharray=""/><path fill="none" stroke="rgb(0,0,0)" paint-order="fill stroke markers" d=" M 204.3228175431418 143.6350572780879 C 204.3228175431418 143.28819696976058 204.60400338030905 143.0070111325933 204.9508636886364 143.0070111325933 C 205.29772399696373 143.0070111325933 205.57890983413097 143.28819696976058 205.57890983413097 143.6350572780879 C 205.57890983413097 143.98191758641522 205.29772399696373 144.2631034235825 204.9508636886364 144.2631034235825 C 204.60400338030905 144.2631034235825 204.3228175431418 143.98191758641522 204.3228175431418 143.6350572780879" stroke-opacity="1" stroke-linecap="round" stroke-miterlimit="10" stroke-dasharray=""/><path fill="none" stroke="rgb(0,0,0)" paint-order="fill stroke markers" d=" M 215.45324829978455 143.1627748461408 C 215.45324829978455 142.41170238931574 216.06211282672925 141.802837862371 216.8131852835543 141.802837862371 C 217.56425774037936 141.802837862371 218.17312226732406 142.41170238931574 218.17312226732406 143.1627748461408 C 218.17312226732406 143.91384730296582 217.56425774037936 144.52271182991055 216.8131852835543 144.52271182991055 C 216.06211282672925 144.52271182991055 215.45324829978455 143.91384730296582 215.45324829978455 143.1627748461408" stroke-opacity="1" stroke-linecap="round" stroke-miterlimit="10" stroke-dasharray=""/><path fill="none" stroke="rgb(0,0,0)" paint-order="fill stroke markers" d=" M 221.29318677725573 157.63275566195415 C 221.29318677725573 156.98373601442339 221.81932115627703 156.4576016354021 222.4683408038078 156.4576016354021 C 223.11736045133856 156.4576016354021 223.64349483035983 156.98373601442339 223.64349483035983 157.63275566195415 C 223.64349483035983 158.2817753094849 223.11736045133856 158.8079096885062 222.4683408038078 158.8079096885062 C 221.81932115627703 158.8079096885062 221.29318677725573 158.2817753094849 221.29318677725573 157.63275566195415" stroke-opacity="1" stroke-linecap="round" stroke-miterlimit="10" stroke-dasharray=""/><path fill="none" stroke="rgb(0,0,0)" paint-order="fill stroke markers" d=" M 229.95932734062728 160.70918711273845 C 229.95932734062728 159.43268834772124 230.99413404888173 158.3978816394668 232.27063281389894 158.3978816394668 C 233.54713157891618 158.3978816394668 234.58193828717063 159.43268834772124 234.58193828717063 160.70918711273845 C 234.58193828717063 161.98568587775569 233.54713157891618 163.02049258601014 232.27063281389894 163.02049258601014 C 230.99413404888173 163.02049258601014 229.95932734062728 161.98568587775569 229.95932734062728 160.70918711273845" stroke-opacity="1" stroke-linecap="round" stroke-miterlimit="10" stroke-dasharray=""/><path fill="none" stroke="rgb(0,0,0)" paint-order="fill stroke markers" d=" M 233.18064490312585 169.61949585016768 C 233.18064490312585 167.33058349836332 235.0361749836596 165.47505341782957 237.32508733546396 165.47505341782957 C 239.61399968726832 165.47505341782957 241.4695297678021 167.33058349836332 241.4695297678021 169.61949585016768 C 241.4695297678021 171.90840820197204 239.61399968726832 173.7639382825058 237.32508733546396 173.7639382825058 C 235.0361749836596 173.7639382825058 233.18064490312585 171.90840820197204 233.18064490312585 169.61949585016768" stroke-opacity="1" stroke-linecap="round" stroke-miterlimit="10" stroke-dasharray=""/><path fill="none" stroke="rgb(0,0,0)" paint-order="fill stroke markers" d=" M 245.7509133013142 173.53412501014265 C 245.7509133013142 170.94261312665233 247.85174877021555 168.841777657751 250.44326065370586 168.841777657751 C 253.03477253719615 168.841777657751 255.13560800609747 170.94261312665233 255.13560800609747 173.53412501014265 C 255.13560800609747 176.12563689363296 253.03477253719615 178.22647236253428 250.44326065370586 178.22647236253428 C 247.85174877021555 178.22647236253428 245.7509133013142 176.12563689363296 245.7509133013142 173.53412501014265" stroke-opacity="1" stroke-linecap="round" stroke-miterlimit="10" stroke-dasharray=""/><path fill="none" stroke="rgb(0,0,0)" paint-order="fill stroke markers" d=" M 258.16910025333294 182.98746213029762 C 258.16910025333294 182.82620306662454 258.2998265536075 182.69547676635003 258.46108561728056 182.69547676635003 C 258.62234468095363 182.69547676635003 258.7530709812281 182.82620306662454 258.7530709812281 182.98746213029762 C 258.7530709812281 183.1487211939707 258.62234468095363 183.27944749424523 258.46108561728056 183.27944749424523 C 258.2998265536075 183.27944749424523 258.16910025333294 183.1487211939707 258.16910025333294 182.98746213029762" stroke-opacity="1" stroke-linecap="round" stroke-miterlimit="10" stroke-dasharray=""/><path fill="none" stroke="rgb(0,0,0)" paint-order="fill stroke markers" d=" M 252.99934773744178 195.31786658476335 C 252.99934773744178 193.57466485899116 254.41249194807915 192.1615206483538 256.1556936738513 192.1615206483538 C 257.89889539962354 192.1615206483538 259.31203961026085 193.57466485899116 259.31203961026085 195.31786658476335 C 259.31203961026085 197.06106831053555 257.89889539962354 198.4742125211729 256.1556936738513 198.4742125211729 C 254.41249194807915 198.4742125211729 252.99934773744178 197.06106831053555 252.99934773744178 195.31786658476335" stroke-opacity="1" stroke-linecap="round" stroke-miterlimit="10" stroke-dasharray=""/><path fill="none" stroke="rgb(255,0,0)" paint-order="fill stroke markers" d=" M 254.55908247802836 211.05967354644173 C 253.91053937758946 214.9825229540613 257.3648745601332 220.31860169298227 255.67046821603384 223.53709644571748 C 253.97606187193446 226.7555911984527 246.87872713248896 227.29984799998437 244.39264441343204 230.37064206285305 C 241.90656169437509 233.44143612572174 243.50508416156885 239.78533009710674 240.75397190169227 241.9618608229295 C 238.0028596418157 244.13839154875228 230.88324363885482 240.66201078751567 227.88597085417248 243.42982641778968 C 224.88869806949015 246.1976420480637 226.07493403601438 258.02013610454736 222.7703351935982 258.56875460457366 C 219.46573635118204 259.1173731045999 212.13654932857764 246.79123030675868 208.05837779967547 246.72153741794725 C 203.9802062707733 246.6518445291358 201.4595580815216 258.1571447257786 198.3013060201852 258.150597271705 C 195.14305395884878 258.1440498176313 192.57225433607562 248.1877570770943 189.10886543165705 246.6822526935053 C 185.6454765272385 245.17674830991632 180.47905385140322 250.34031755269737 177.52097259367378 249.11757097017104 C 174.5628913359443 247.89482438764475 173.07020921547903 242.53395337495675 171.36037788528031 239.34577319834742 C 169.6505465550816 236.15759302173805 170.47998255492462 231.73859883640492 167.2619846124815 229.98848991051491 C 164.0439866700384 228.2383809846249 155.16527843976397 230.79658649059493 152.05239023062168 228.84511964300742 C 148.9395020214794 226.89365279541988 148.24561102741822 221.99641069249475 148.5846553576278 218.27968882498976 C 148.9236996878374 214.56296695748478 154.21799869781353 210.10015890681717 154.0866562118792 206.54478843797747 C 153.95531372594488 202.98941796913778 149.1064886451157 200.4071017983618 147.79660044202183 196.94746601195152 C 146.48671223892802 193.48783022554124 146.78807627088753 189.84836931284744 146.22732699331618 185.78697371951583 C 145.66657771574484 181.72557812618422 142.17555424892197 175.39738278549822 144.4321047765937 172.57909245196188 C 146.68865530426544 169.76080211842552 156.47626858127302 171.2203784160776 159.76663015934665 168.87723171829774 C 163.05699173742028 166.53408502051786 162.34911059795465 162.0093570618911 164.17427424503546 158.5202122652826 C 165.99943789211628 155.0310674686741 167.53232688311533 149.65439856679902 170.71761204183153 147.9423629386467 C 173.90289720054773 146.23032731049443 179.47421269775646 149.0399344227427 183.2859851973326 148.24799849636887 C 187.0977576969087 147.456062569995 189.97743395740426 143.95957091678375 193.58824703928823 143.1907473804036 C 197.19906012117218 142.4219238440234 201.08004064792536 143.6397193671317 204.9508636886364 143.6350572780879 C 208.8216867293474 143.6303951890441 213.89360576435908 140.82982511549642 216.8131852835543 143.1627748461408 C 219.73276480274956 145.49572457678516 219.89209954875034 154.7083536175212 222.4683408038078 157.63275566195415 C 225.04458205886522 160.5571577063871 229.79450839195627 158.71139708136954 232.27063281389894 160.70918711273845 C 234.74675723584164 162.70697714410738 234.2963160288295 167.48200620060032 237.32508733546396 169.61949585016768 C 240.35385864209846 171.75698549973504 246.92059427340308 171.30613063012098 250.44326065370586 173.53412501014265 C 253.96592703400862 175.7621193901643 257.5090134472563 179.3568385345275 258.46108561728056 182.98746213029762 C 259.4131577873048 186.61808572606773 255.97225347362019 192.48244360647962 256.1556936738513 195.31786658476335 C 256.33913387408245 198.15328956304708 258.99405462786467 199.2196444307939 259.56172681866735 200 L 259.56172681866735 200 Z" stroke-opacity="1" stroke-linecap="round" stroke-miterlimit="10" stroke-dasharray=""/><path fill="none" stroke="rgb(0,0,0)" paint-order="fill stroke markers" d=" M 265.6571204073742 200 C 265.6571204073742 198.23273047114958 267.0897754273917 196.80007545113205 268.85704495624213 196.80007545113205 C 270.62431448509255 196.80007545113205 272.0569695051101 198.23273047114958 272.0569695051101 200 C 272.0569695051101 201.76726952885042 270.62431448509255 203.19992454886795 268.85704495624213 203.19992454886795 C 267.0897754273917 203.19992454886795 265.6571204073742 201.76726952885042 265.6571204073742 200" stroke-opacity="1" stroke-linecap="round" stroke-miterlimit="10" stroke-dasharray=""/><path fill="none" stroke="rgb(0,0,0)" paint-order="fill stroke markers" d=" M 268.13178070485185 214.78757287578006 C 268.13178070485185 212.1268822612652 270.28869661573606 209.969966350381 272.949387230251 209.969966350381 C 275.61007784476584 209.969966350381 277.76699375565 212.1268822612652 277.76699375565 214.78757287578006 C 277.76699375565 217.44826349029495 275.61007784476584 219.60517940117916 272.949387230251 219.60517940117916 C 270.28869661573606 219.60517940117916 268.13178070485185 217.44826349029495 268.13178070485185 214.78757287578006" stroke-opacity="1" stroke-linecap="round" stroke-miterlimit="10" stroke-dasharray=""/><path fill="none" stroke="rgb(0,0,0)" paint-order="fill stroke markers" d=" M 256.86131202502963 226.1332320959988 C 256.86131202502963 223.39964657101808 259.0773209365613 221.1836376594864 261.81090646154206 221.1836376594864 C 264.54449198652276 221.1836376594864 266.7605008980545 223.39964657101808 266.7605008980545 226.1332320959988 C 266.7605008980545 228.86681762097953 264.54449198652276 231.0828265325112 261.81090646154206 231.0828265325112 C 259.0773209365613 231.0828265325112 256.86131202502963 228.86681762097953 256.86131202502963 226.1332320959988" stroke-opacity="1" stroke-linecap="round" stroke-miterlimit="10" stroke-dasharray=""/><path fill="none" stroke="rgb(0,0,0)" paint-order="fill stroke markers" d=" M 250.54566614975823 235.48123317580576 C 250.54566614975823 234.75381419288198 251.13535574748457 234.16412459515567 251.86277473040832 234.16412459515567 C 252.5901937133321 234.16412459515567 253.1798833110584 234.75381419288198 253.1798833110584 235.48123317580576 C 253.1798833110584 236.2086521587295 252.5901937133321 236.79834175645584 251.86277473040832 236.79834175645584 C 251.13535574748457 236.79834175645584 250.54566614975823 236.2086521587295 250.54566614975823 235.48123317580576" stroke-opacity="1" stroke-linecap="round" stroke-miterlimit="10" stroke-dasharray=""/><path fill="none" stroke="rgb(0,0,0)" paint-order="fill stroke markers" d=" M 240.12935733931357 244.9751233366123 C 240.12935733931357 243.01388336104498 241.71925647500643 241.42398422535214 243.68049645057374 241.42398422535214 C 245.64173642614105 241.42398422535214 247.2316355618339 243.01388336104498 247.2316355618339 244.9751233366123 C 247.2316355618339 246.93636331217962 245.64173642614105 248.52626244787248 243.68049645057374 248.52626244787248 C 241.71925647500643 248.52626244787248 240.12935733931357 246.93636331217962 240.12935733931357 244.9751233366123" stroke-opacity="1" stroke-linecap="round" stroke-miterlimit="10" stroke-dasharray=""/><path fill="none" stroke="rgb(0,0,0)" paint-order="fill stroke markers" d=" M 233.83229334117567 260.29456427421854 C 233.83229334117567 257.5980885709912 236.0182187982263 255.41216311394058 238.71469450145364 255.41216311394058 C 241.41117020468096 255.41216311394058 243.59709566173157 257.5980885709912 243.59709566173157 260.29456427421854 C 243.59709566173157 262.9910399774459 241.41117020468096 265.1769654344965 238.71469450145364 265.1769654344965 C 236.0182187982263 265.1769654344965 233.83229334117567 262.9910399774459 233.83229334117567 260.29456427421854" stroke-opacity="1" stroke-linecap="round" stroke-miterlimit="10" stroke-dasharray=""/><path fill="none" stroke="rgb(0,0,0)" paint-order="fill stroke markers" d=" M 221.74071671286922 267.81780651877114 C 221.74071671286922 265.2632350023555 223.81160609744845 263.19234561777625 226.3661776138641 263.19234561777625 C 228.92074913027972 263.19234561777625 230.99163851485895 265.2632350023555 230.99163851485895 267.81780651877114 C 230.99163851485895 270.3723780351868 228.92074913027972 272.443267419766 226.3661776138641 272.443267419766 C 223.81160609744845 272.443267419766 221.74071671286922 270.3723780351868 221.74071671286922 267.81780651877114" stroke-opacity="1" stroke-linecap="round" stroke-miterlimit="10" stroke-dasharray=""/><path fill="none" stroke="rgb(0,0,0)" paint-order="fill stroke markers" d=" M 208.1075691556965 273.80175425039056 C 208.1075691556965 271.2493615652113 210.17669224857121 269.1802384723366 212.7290849337505 269.1802384723366 C 215.2814776189298 269.1802384723366 217.3506007118045 271.2493615652113 217.3506007118045 273.80175425039056 C 217.3506007118045 276.3541469355699 215.2814776189298 278.42327002844456 212.7290849337505 278.42327002844456 C 210.17669224857121 278.42327002844456 208.1075691556965 276.3541469355699 208.1075691556965 273.80175425039056" stroke-opacity="1" stroke-linecap="round" stroke-miterlimit="10" stroke-dasharray=""/><path fill="none" stroke="rgb(0,0,0)" paint-order="fill stroke markers" d=" M 195.86013513645375 270.31391690005483 C 195.86013513645375 269.1619302996413 196.79400479194933 268.2280606441457 197.94599139236288 268.2280606441457 C 199.0979779927764 268.2280606441457 200.031847648272 269.1619302996413 200.031847648272 270.31391690005483 C 200.031847648272 271.46590350046836 199.0979779927764 272.399773155964 197.94599139236288 272.399773155964 C 196.79400479194933 272.399773155964 195.86013513645375 271.46590350046836 195.86013513645375 270.31391690005483" stroke-opacity="1" stroke-linecap="round" stroke-miterlimit="10" stroke-dasharray=""/><path fill="none" stroke="rgb(0,0,0)" paint-order="fill stroke markers" d=" M 179.36007793959843 275.05725161401193 C 179.36007793959843 273.3292631206351 180.76088938864729 271.92845167158623 182.4888778820241 271.92845167158623 C 184.2168663754009 271.92845167158623 185.6176778244498 273.3292631206351 185.6176778244498 275.05725161401193 C 185.6176778244498 276.78524010738874 184.2168663754009 278.18605155643763 182.4888778820241 278.18605155643763 C 180.76088938864729 278.18605155643763 179.36007793959843 276.78524010738874 179.36007793959843 275.05725161401193" stroke-opacity="1" stroke-linecap="round" stroke-miterlimit="10" stroke-dasharray=""/><path fill="none" stroke="rgb(0,0,0)" paint-order="fill stroke markers" d=" M 174.58111317463624 255.10628230893664 C 174.58111317463624 254.99633322127235 174.6702445209403 254.90720187496828 174.7801936086046 254.90720187496828 C 174.8901426962689 254.90720187496828 174.97927404257297 254.99633322127235 174.97927404257297 255.10628230893664 C 174.97927404257297 255.21623139660093 174.8901426962689 255.305362742905 174.7801936086046 255.305362742905 C 174.6702445209403 255.305362742905 174.58111317463624 255.21623139660093 174.58111317463624 255.10628230893664" stroke-opacity="1" stroke-linecap="round" stroke-miterlimit="10" stroke-dasharray=""/><path fill="none" stroke="rgb(0,0,0)" paint-order="fill stroke markers" d=" M 160.22163328573734 249.38812135195576 C 160.22163328573734 247.27344414370597 161.93591787484948 245.55915955459383 164.05059508309927 245.55915955459383 C 166.16527229134905 245.55915955459383 167.8795568804612 247.27344414370597 167.8795568804612 249.38812135195576 C 167.8795568804612 251.50279856020555 166.16527229134905 253.2170831493177 164.05059508309927 253.2170831493177 C 161.93591787484948 253.2170831493177 160.22163328573734 251.50279856020555 160.22163328573734 249.38812135195576" stroke-opacity="1" stroke-linecap="round" stroke-miterlimit="10" stroke-dasharray=""/><path fill="none" stroke="rgb(0,0,0)" paint-order="fill stroke markers" d=" M 148.26455564416437 244.52651798000983 C 148.26455564416437 242.79981800488665 149.66432254278428 241.40005110626677 151.39102251790746 241.40005110626677 C 153.1177224930306 241.40005110626677 154.51748939165049 242.79981800488665 154.51748939165049 244.52651798000983 C 154.51748939165049 246.253217955133 153.1177224930306 247.65298485375288 151.39102251790746 247.65298485375288 C 149.66432254278428 247.65298485375288 148.26455564416437 246.253217955133 148.26455564416437 244.52651798000983" stroke-opacity="1" stroke-linecap="round" stroke-miterlimit="10" stroke-dasharray=""/><path fill="none" stroke="rgb(0,0,0)" paint-order="fill stroke markers" d=" M 131.55691289908742 238.61859341634639 C 131.55691289908742 236.27161240038816 133.45951693288504 234.36900836659055 135.80649794884323 234.36900836659055 C 138.15347896480145 234.36900836659055 140.05608299859904 236.27161240038816 140.05608299859904 238.61859341634639 C 140.05608299859904 240.9655744323046 138.15347896480145 242.8681784661022 135.80649794884323 242.8681784661022 C 133.45951693288504 242.8681784661022 131.55691289908742 240.9655744323046 131.55691289908742 238.61859341634639" stroke-opacity="1" stroke-linecap="round" stroke-miterlimit="10" stroke-dasharray=""/><path fill="none" stroke="rgb(0,0,0)" paint-order="fill stroke markers" d=" M 135.12477998079368 223.02961966404715 C 135.12477998079368 222.97454124172 135.1694298641043 222.92989135840935 135.22450828643144 222.92989135840935 C 135.2795867087586 222.92989135840935 135.3242365920692 222.97454124172 135.3242365920692 223.02961966404715 C 135.3242365920692 223.0846980863743 135.2795867087586 223.12934796968494 135.22450828643144 223.12934796968494 C 135.1694298641043 223.12934796968494 135.12477998079368 223.0846980863743 135.12477998079368 223.02961966404715" stroke-opacity="1" stroke-linecap="round" stroke-miterlimit="10" stroke-dasharray=""/><path fill="none" stroke="rgb(0,0,0)" paint-order="fill stroke markers" d=" M 139.63769315141934 208.5175706096044 C 139.63769315141934 208.18100944423875 139.91052988358305 207.90817271207504 140.2470910489487 207.90817271207504 C 140.58365221431436 207.90817271207504 140.85648894647807 208.18100944423875 140.85648894647807 208.5175706096044 C 140.85648894647807 208.85413177497006 140.58365221431436 209.12696850713377 140.2470910489487 209.12696850713377 C 139.91052988358305 209.12696850713377 139.63769315141934 208.85413177497006 139.63769315141934 208.5175706096044" stroke-opacity="1" stroke-linecap="round" stroke-miterlimit="10" stroke-dasharray=""/><path fill="none" stroke="rgb(0,0,0)" paint-order="fill stroke markers" d=" M 133.1061440091579 196.1321093120782 C 133.1061440091579 195.71982705406916 133.44036481529895 195.38560624792814 133.852647073308 195.38560624792814 C 134.26492933131703 195.38560624792814 134.59915013745803 195.71982705406916 134.59915013745803 196.1321093120782 C 134.59915013745803 196.54439157008724 134.26492933131703 196.87861237622826 133.852647073308 196.87861237622826 C 133.44036481529895 196.87861237622826 133.1061440091579 196.54439157008724 133.1061440091579 196.1321093120782" stroke-opacity="1" stroke-linecap="round" stroke-miterlimit="10" stroke-dasharray=""/><path fill="none" stroke="rgb(0,0,0)" paint-order="fill stroke markers" d=" M 128.9596523982483 181.48593646422202 C 128.9596523982483 180.93619235854464 129.40530804944717 180.49053670734577 129.95505215512452 180.49053670734577 C 130.50479626080192 180.49053670734577 130.9504519120008 180.93619235854464 130.9504519120008 181.48593646422202 C 130.9504519120008 182.0356805698994 130.50479626080192 182.48133622109827 129.95505215512452 182.48133622109827 C 129.40530804944717 182.48133622109827 128.9596523982483 182.0356805698994 128.9596523982483 181.48593646422202" stroke-opacity="1" stroke-linecap="round" stroke-miterlimit="10" stroke-dasharray=""/><path fill="none" stroke="rgb(0,0,0)" paint-order="fill stroke markers" d=" M 126.12993191907213 165.67202380343193 C 126.12993191907213 163.29435908541313 128.0574100080561 161.36688099642913 130.4350747260749 161.36688099642913 C 132.81273944409372 161.36688099642913 134.7402175330777 163.29435908541313 134.7402175330777 165.67202380343193 C 134.7402175330777 168.04968852145072 132.81273944409372 169.9771666104347 130.4350747260749 169.9771666104347 C 128.0574100080561 169.9771666104347 126.12993191907213 168.04968852145072 126.12993191907213 165.67202380343193" stroke-opacity="1" stroke-linecap="round" stroke-miterlimit="10" stroke-dasharray=""/><path fill="none" stroke="rgb(0,0,0)" paint-order="fill stroke markers" d=" M 140.53985206392306 154.46050910007756 C 140.53985206392306 154.13475349437448 140.80392915923346 153.8706763990641 141.12968476493654 153.8706763990641 C 141.45544037063962 153.8706763990641 141.71951746595 154.13475349437448 141.71951746595 154.46050910007756 C 141.71951746595 154.78626470578064 141.45544037063962 155.050341801091 141.12968476493654 155.050341801091 C 140.80392915923346 155.050341801091 140.53985206392306 154.78626470578064 140.53985206392306 154.46050910007756" stroke-opacity="1" stroke-linecap="round" stroke-miterlimit="10" stroke-dasharray=""/><path fill="none" stroke="rgb(0,0,0)" paint-order="fill stroke markers" d=" M 160.0231749533093 155.11508504891225 C 160.0231749533093 154.44675365577675 160.56496459534185 153.9049640137442 161.23329598847738 153.9049640137442 C 161.90162738161288 153.9049640137442 162.44341702364542 154.44675365577675 162.44341702364542 155.11508504891225 C 162.44341702364542 155.78341644204778 161.90162738161288 156.32520608408032 161.23329598847738 156.32520608408032 C 160.56496459534185 156.32520608408032 160.0231749533093 155.78341644204778 160.0231749533093 155.11508504891225" stroke-opacity="1" stroke-linecap="round" stroke-miterlimit="10" stroke-dasharray=""/><path fill="none" stroke="rgb(0,0,0)" paint-order="fill stroke markers" d=" M 163.47631182881406 140.81944531011519 C 163.47631182881406 139.03298996233588 164.92452002810217 137.58478176304777 166.71097537588147 137.58478176304777 C 168.49743072366078 137.58478176304777 169.9456389229489 139.03298996233588 169.9456389229489 140.81944531011519 C 169.9456389229489 142.6059006578945 168.49743072366078 144.0541088571826 166.71097537588147 144.0541088571826 C 164.92452002810217 144.0541088571826 163.47631182881406 142.6059006578945 163.47631182881406 140.81944531011519" stroke-opacity="1" stroke-linecap="round" stroke-miterlimit="10" stroke-dasharray=""/><path fill="none" stroke="rgb(0,0,0)" paint-order="fill stroke markers" d=" M 178.66201661071767 143.70071526212323 C 178.66201661071767 141.95805725901636 180.0747200470457 140.54535382268833 181.81737805015257 140.54535382268833 C 183.56003605325944 140.54535382268833 184.97273948958747 141.95805725901636 184.97273948958747 143.70071526212323 C 184.97273948958747 145.4433732652301 183.56003605325944 146.8560767015581 181.81737805015257 146.8560767015581 C 180.0747200470457 146.8560767015581 178.66201661071767 145.4433732652301 178.66201661071767 143.70071526212323" stroke-opacity="1" stroke-linecap="round" stroke-miterlimit="10" stroke-dasharray=""/><path fill="none" stroke="rgb(0,0,0)" paint-order="fill stroke markers" d=" M 187.407388622622 129.6253074425195 C 187.407388622622 127.05729347572364 189.48917526633699 124.97550683200866 192.05718923313285 124.97550683200866 C 194.6252031999287 124.97550683200866 196.70698984364367 127.05729347572364 196.70698984364367 129.6253074425195 C 196.70698984364367 132.19332140931536 194.6252031999287 134.27510805303035 192.05718923313285 134.27510805303035 C 189.48917526633699 134.27510805303035 187.407388622622 132.19332140931536 187.407388622622 129.6253074425195" stroke-opacity="1" stroke-linecap="round" stroke-miterlimit="10" stroke-dasharray=""/><path fill="none" stroke="rgb(0,0,0)" paint-order="fill stroke markers" d=" M 202.37659614119946 124.5113295967258 C 202.37659614119946 122.16190100679135 204.2811843257373 120.25731282225348 206.63061291567178 120.25731282225348 C 208.98004150560624 120.25731282225348 210.8846296901441 122.16190100679135 210.8846296901441 124.5113295967258 C 210.8846296901441 126.86075818666025 208.98004150560624 128.76534637119812 206.63061291567178 128.76534637119812 C 204.2811843257373 128.76534637119812 202.37659614119946 126.86075818666025 202.37659614119946 124.5113295967258" stroke-opacity="1" stroke-linecap="round" stroke-miterlimit="10" stroke-dasharray=""/><path fill="none" stroke="rgb(0,0,0)" paint-order="fill stroke markers" d=" M 213.85210338586595 137.11693099700344 C 213.85210338586595 134.49384320432063 215.97853618674054 132.36741040344603 218.60162397942335 132.36741040344603 C 221.22471177210616 132.36741040344603 223.35114457298076 134.49384320432063 223.35114457298076 137.11693099700344 C 223.35114457298076 139.74001878968622 221.22471177210616 141.8664515905608 218.60162397942335 141.8664515905608 C 215.97853618674054 141.8664515905608 213.85210338586595 139.74001878968622 213.85210338586595 137.11693099700344" stroke-opacity="1" stroke-linecap="round" stroke-miterlimit="10" stroke-dasharray=""/><path fill="none" stroke="rgb(0,0,0)" paint-order="fill stroke markers" d=" M 226.97062247813412 146.03208515984932 C 226.97062247813412 145.1209118196145 227.70927441474205 144.38225988300655 228.62044775497688 144.38225988300655 C 229.5316210952117 144.38225988300655 230.27027303181964 145.1209118196145 230.27027303181964 146.03208515984932 C 230.27027303181964 146.94325850008414 229.5316210952117 147.68191043669208 228.62044775497688 147.68191043669208 C 227.70927441474205 147.68191043669208 226.97062247813412 146.94325850008414 226.97062247813412 146.03208515984932" stroke-opacity="1" stroke-linecap="round" stroke-miterlimit="10" stroke-dasharray=""/><path fill="none" stroke="rgb(0,0,0)" paint-order="fill stroke markers" d=" M 240.85175537124667 145.604174959435 C 240.85175537124667 143.4916624468109 242.56428512783083 141.77913269022673 244.67679764045494 141.77913269022673 C 246.78931015307907 141.77913269022673 248.50183990966323 143.4916624468109 248.50183990966323 145.604174959435 C 248.50183990966323 147.7166874720591 246.78931015307907 149.42921722864327 244.67679764045494 149.42921722864327 C 242.56428512783083 149.42921722864327 240.85175537124667 147.7166874720591 240.85175537124667 145.604174959435" stroke-opacity="1" stroke-linecap="round" stroke-miterlimit="10" stroke-dasharray=""/><path fill="none" stroke="rgb(0,0,0)" paint-order="fill stroke markers" d=" M 246.57474843663266 158.96133342341946 C 246.57474843663266 156.8378996808758 248.29613159934055 155.1165165181679 250.4195653418842 155.1165165181679 C 252.54299908442786 155.1165165181679 254.26438224713576 156.8378996808758 254.26438224713576 158.96133342341946 C 254.26438224713576 161.08476716596311 252.54299908442786 162.806150328671 250.4195653418842 162.806150328671 C 248.29613159934055 162.806150328671 246.57474843663266 161.08476716596311 246.57474843663266 158.96133342341946" stroke-opacity="1" stroke-linecap="round" stroke-miterlimit="10" stroke-dasharray=""/><path fill="none" stroke="rgb(0,0,0)" paint-order="fill stroke markers" d=" M 265.6260529184909 165.00994361559754 C 265.6260529184909 164.4222723486115 266.10245460879526 163.94587065830723 266.6901258757813 163.94587065830723 C 267.27779714276727 163.94587065830723 267.7541988330716 164.4222723486115 267.7541988330716 165.00994361559754 C 267.7541988330716 165.59761488258357 267.27779714276727 166.07401657288784 266.6901258757813 166.07401657288784 C 266.10245460879526 166.07401657288784 265.6260529184909 165.59761488258357 265.6260529184909 165.00994361559754" stroke-opacity="1" stroke-linecap="round" stroke-miterlimit="10" stroke-dasharray=""/><path fill="none" stroke="rgb(0,0,0)" paint-order="fill stroke markers" d=" M 265.7320532592925 180.57450877517385 C 265.7320532592925 180.01074099330796 266.18907734624077 179.5537169063597 266.7528451281067 179.5537169063597 C 267.3166129099726 179.5537169063597 267.77363699692086 180.01074099330796 267.77363699692086 180.57450877517385 C 267.77363699692086 181.13827655703977 267.3166129099726 181.59530064398803 266.7528451281067 181.59530064398803 C 266.18907734624077 181.59530064398803 265.7320532592925 181.13827655703977 265.7320532592925 180.57450877517385" stroke-opacity="1" stroke-linecap="round" stroke-miterlimit="10" stroke-dasharray=""/><path fill="none" stroke="rgb(0,0,0)" paint-order="fill stroke markers" d=" M 257.00677817305797 194.93596447854452 C 257.00677817305797 192.87632820951814 258.67644326491876 191.20666311765734 260.73607953394514 191.20666311765734 C 262.79571580297153 191.20666311765734 264.4653808948323 192.87632820951814 264.4653808948323 194.93596447854452 C 264.4653808948323 196.9956007475709 262.79571580297153 198.6652658394317 260.73607953394514 198.6652658394317 C 258.67644326491876 198.6652658394317 257.00677817305797 196.9956007475709 257.00677817305797 194.93596447854452" stroke-opacity="1" stroke-linecap="round" stroke-miterlimit="10" stroke-dasharray=""/><path fill="none" stroke="rgb(255,0,0)" paint-order="fill stroke markers" d=" M 272.949387230251 214.78757287578006 C 271.7750308144676 219.14311155844655 265.3253418781825 222.68428871266119 261.81090646154206 226.1332320959988 C 258.2964710449016 229.5821754793364 254.88450973223638 232.3409179690368 251.86277473040832 235.48123317580576 C 248.84103972858028 238.62154838257464 245.87184315539952 240.8395681535435 243.68049645057374 244.9751233366123 C 241.48914974574797 249.1106785196811 241.6004143075719 256.4874504105254 238.71469450145364 260.29456427421854 C 235.82897469533535 264.1016781379117 230.69711254181462 265.5666081894091 226.3661776138641 267.81780651877114 C 222.03524268591357 270.06900484813315 217.46578263733403 273.38573585350997 212.7290849337505 273.80175425039056 C 207.99238723016697 274.2177726472712 202.98602590098395 270.1046673394513 197.94599139236288 270.31391690005483 C 192.90595688374182 270.5231664606584 186.34984417931716 277.5918573791983 182.4888778820241 275.05725161401193 C 178.62791158473107 272.52264584882556 177.85324074175873 259.384470685946 174.7801936086046 255.10628230893664 C 171.70714647545046 250.82809393192727 167.94879026488212 251.1514154067769 164.05059508309927 249.38812135195576 C 160.15239990131641 247.62482729713463 156.09837204028344 246.3214393026114 151.39102251790746 244.52651798000983 C 146.68367299553142 242.73159665740826 138.50091698742258 242.20140980234015 135.80649794884323 238.61859341634639 C 133.1120789102639 235.0357770303526 134.48440943641387 228.04645679850415 135.22450828643144 223.02961966404715 C 135.96460713644902 218.01278252959014 140.47573458446928 213.00048900159922 140.2470910489487 208.5175706096044 C 140.01844751342813 204.0346522176096 135.56798688894534 200.63738166964194 133.852647073308 196.1321093120782 C 132.1373072576706 191.62683695451446 130.52464754633004 186.56261738232973 129.95505215512452 181.48593646422202 C 129.38545676391902 176.4092555461143 128.57263595777292 170.176261697456 130.4350747260749 165.67202380343193 C 132.29751349437691 161.16778590940785 135.99664788786947 156.2199988924975 141.12968476493654 154.46050910007756 C 146.2627216420036 152.70101930765762 156.96974755331988 157.38859568057268 161.23329598847738 155.11508504891228 C 165.49684442363485 152.84157441725188 163.28029503226895 142.72184027458002 166.71097537588147 140.81944531011519 C 170.14165571949403 138.91705034565035 177.59300907394402 145.56640490672248 181.81737805015257 143.70071526212323 C 186.04174702636112 141.83502561752394 187.92165008887963 132.8235383867524 192.05718923313285 129.6253074425195 C 196.19272837738603 126.4270764982866 202.2065404579567 123.2627256709785 206.63061291567178 124.51132959672582 C 211.05468537338686 125.75993352247313 214.93665150620583 133.53013840314952 218.60162397942335 137.11693099700344 C 222.26659645264087 140.70372359085735 224.27458547813828 144.61754449944405 228.62044775497688 146.03208515984932 C 232.96631003181548 147.44662582025455 241.04361137597039 143.44930024883996 244.67679764045494 145.604174959435 C 248.30998390493951 147.75904967003004 246.75067730266315 155.72703864739236 250.4195653418842 158.96133342341946 C 254.08845338110527 162.19562819944656 263.9679125780775 161.40774772363847 266.6901258757813 165.00994361559754 C 269.412339173485 168.6121395075566 267.7451861850794 175.58683863134937 266.7528451281067 180.57450877517385 C 265.760504071134 185.56217891899837 260.38537956258926 191.69838260774017 260.73607953394514 194.93596447854452 C 261.0867795053011 198.17354634934887 267.5035507191926 199.15599407975742 268.85704495624213 200 L 268.85704495624213 200 Z" stroke-opacity="1" stroke-linecap="round" stroke-miterlimit="10" stroke-dasharray=""/><path fill="none" stroke="rgb(0,0,0)" paint-order="fill stroke markers" d=" M 274.9767947626464 200 C 274.9767947626464 197.30180026346343 277.16411782483584 195.11447720127404 279.8623175613724 195.11447720127404 C 282.5605172979089 195.11447720127404 284.74784036009834 197.30180026346343 284.74784036009834 200 C 284.74784036009834 202.69819973653657 282.5605172979089 204.88552279872596 279.8623175613724 204.88552279872596 C 277.16411782483584 204.88552279872596 274.9767947626464 202.69819973653657 274.9767947626464 200" stroke-opacity="1" stroke-linecap="round" stroke-miterlimit="10" stroke-dasharray=""/><path fill="none" stroke="rgb(0,0,0)" paint-order="fill stroke markers" d=" M 286.4880821511031 218.2054129784656 C 286.4880821511031 216.37070114392145 287.9754099622463 214.8833733327782 289.8101217967905 214.8833733327782 C 291.6448336313346 214.8833733327782 293.13216144247787 216.37070114392145 293.13216144247787 218.2054129784656 C 293.13216144247787 220.04012481300975 291.6448336313346 221.527452624153 289.8101217967905 221.527452624153 C 287.9754099622463 221.527452624153 286.4880821511031 220.04012481300975 286.4880821511031 218.2054129784656" stroke-opacity="1" stroke-linecap="round" stroke-miterlimit="10" stroke-dasharray=""/><path fill="none" stroke="rgb(0,0,0)" paint-order="fill stroke markers" d=" M 269.83795041288965 230.25755992109728 C 269.83795041288965 229.30326230357602 270.61156148353484 228.52965123293083 271.5658591010561 228.52965123293083 C 272.52015671857737 228.52965123293083 273.29376778922256 229.30326230357602 273.29376778922256 230.25755992109728 C 273.29376778922256 231.21185753861855 272.52015671857737 231.98546860926376 271.5658591010561 231.98546860926376 C 270.61156148353484 231.98546860926376 269.83795041288965 231.21185753861855 269.83795041288965 230.25755992109728" stroke-opacity="1" stroke-linecap="round" stroke-miterlimit="10" stroke-dasharray=""/><path fill="none" stroke="rgb(0,0,0)" paint-order="fill stroke markers" d=" M 266.3901044568447 248.60511823241043 C 266.3901044568447 246.03379096569012 268.47457706084595 243.94931836168888 271.0459043275663 243.94931836168888 C 273.61723159428664 243.94931836168888 275.7017041982878 246.03379096569012 275.7017041982878 248.60511823241043 C 275.7017041982878 251.17644549913075 273.61723159428664 253.26091810313198 271.0459043275663 253.26091810313198 C 268.47457706084595 253.26091810313198 266.3901044568447 251.17644549913075 266.3901044568447 248.60511823241043" stroke-opacity="1" stroke-linecap="round" stroke-miterlimit="10" stroke-dasharray=""/><path fill="none" stroke="rgb(0,0,0)" paint-order="fill stroke markers" d=" M 253.70652495896883 255.88036458610082 C 253.70652495896883 255.56815745551773 253.95961884510973 255.31506356937683 254.27182597569282 255.31506356937683 C 254.5840331062759 255.31506356937683 254.8371269924168 255.56815745551773 254.8371269924168 255.88036458610082 C 254.8371269924168 256.1925717166839 254.5840331062759 256.4456656028248 254.27182597569282 256.4456656028248 C 253.95961884510973 256.4456656028248 253.70652495896883 256.1925717166839 253.70652495896883 255.88036458610082" stroke-opacity="1" stroke-linecap="round" stroke-miterlimit="10" stroke-dasharray=""/><path fill="none" stroke="rgb(0,0,0)" paint-order="fill stroke markers" d=" M 248.0363259331791 275.875939009024 C 248.0363259331791 275.4986985736256 248.34213972937954 275.19288477742515 248.71938016477793 275.19288477742515 C 249.09662060017632 275.19288477742515 249.40243439637678 275.4986985736256 249.40243439637678 275.875939009024 C 249.40243439637678 276.25317944442236 249.09662060017632 276.55899324062284 248.71938016477793 276.55899324062284 C 248.34213972937954 276.55899324062284 248.0363259331791 276.25317944442236 248.0363259331791 275.875939009024" stroke-opacity="1" stroke-linecap="round" stroke-miterlimit="10" stroke-dasharray=""/><path fill="none" stroke="rgb(0,0,0)" paint-order="fill stroke markers" d=" M 227.7986121157171 275.0767188622132 C 227.7986121157171 274.3092185136147 228.42079408023054 273.6870365491013 229.18829442882907 273.6870365491013 C 229.95579477742757 273.6870365491013 230.57797674194097 274.3092185136147 230.57797674194097 275.0767188622132 C 230.57797674194097 275.84421921081173 229.95579477742757 276.46640117532513 229.18829442882907 276.46640117532513 C 228.42079408023054 276.46640117532513 227.7986121157171 275.84421921081173 227.7986121157171 275.0767188622132" stroke-opacity="1" stroke-linecap="round" stroke-miterlimit="10" stroke-dasharray=""/><path fill="none" stroke="rgb(0,0,0)" paint-order="fill stroke markers" d=" M 209.61432501563436 283.8405450645944 C 209.61432501563436 281.16405294071535 211.7840505808157 278.99432737553406 214.46054270469472 278.99432737553406 C 217.13703482857375 278.99432737553406 219.30676039375507 281.16405294071535 219.30676039375507 283.8405450645944 C 219.30676039375507 286.5170371884734 217.13703482857375 288.68676275365476 214.46054270469472 288.68676275365476 C 211.7840505808157 288.68676275365476 209.61432501563436 286.5170371884734 209.61432501563436 283.8405450645944" stroke-opacity="1" stroke-linecap="round" stroke-miterlimit="10" stroke-dasharray=""/><path fill="none" stroke="rgb(0,0,0)" paint-order="fill stroke markers" d=" M 192.84091417918043 277.350645828032 C 192.84091417918043 274.64471540705733 195.0345041993452 272.45112538689256 197.7404346203199 272.45112538689256 C 200.44636504129457 272.45112538689256 202.63995506145935 274.64471540705733 202.63995506145935 277.350645828032 C 202.63995506145935 280.05657624900664 200.44636504129457 282.2501662691715 197.7404346203199 282.2501662691715 C 195.0345041993452 282.2501662691715 192.84091417918043 280.05657624900664 192.84091417918043 277.350645828032" stroke-opacity="1" stroke-linecap="round" stroke-miterlimit="10" stroke-dasharray=""/><path fill="none" stroke="rgb(0,0,0)" paint-order="fill stroke markers" d=" M 180.55664936698312 272.9754379615056 C 180.55664936698312 271.6400559629241 181.6391903674797 270.55751496242755 182.97457236606118 270.55751496242755 C 184.30995436464266 270.55751496242755 185.39249536513924 271.6400559629241 185.39249536513924 272.9754379615056 C 185.39249536513924 274.3108199600871 184.30995436464266 275.39336096058366 182.97457236606118 275.39336096058366 C 181.6391903674797 275.39336096058366 180.55664936698312 274.3108199600871 180.55664936698312 272.9754379615056" stroke-opacity="1" stroke-linecap="round" stroke-miterlimit="10" stroke-dasharray=""/><path fill="none" stroke="rgb(0,0,0)" paint-order="fill stroke markers" d=" M 159.1326237188362 283.5530056258554 C 159.1326237188362 282.1012080396451 160.30953819960953 280.92429355887174 161.76133578581985 280.92429355887174 C 163.21313337203017 280.92429355887174 164.39004785280352 282.1012080396451 164.39004785280352 283.5530056258554 C 164.39004785280352 285.00480321206567 163.21313337203017 286.1817176928391 161.76133578581985 286.1817176928391 C 160.30953819960953 286.1817176928391 159.1326237188362 285.00480321206567 159.1326237188362 283.5530056258554" stroke-opacity="1" stroke-linecap="round" stroke-miterlimit="10" stroke-dasharray=""/><path fill="none" stroke="rgb(0,0,0)" paint-order="fill stroke markers" d=" M 154.0244101158075 259.6510599805152 C 154.0244101158075 258.2395111267553 155.16869655221458 257.09522469034823 156.58024540597444 257.09522469034823 C 157.9917942597343 257.09522469034823 159.13608069614136 258.2395111267553 159.13608069614136 259.6510599805152 C 159.13608069614136 261.062608834275 157.9917942597343 262.2068952706821 156.58024540597444 262.2068952706821 C 155.16869655221458 262.2068952706821 154.0244101158075 261.062608834275 154.0244101158075 259.6510599805152" stroke-opacity="1" stroke-linecap="round" stroke-miterlimit="10" stroke-dasharray=""/><path fill="none" stroke="rgb(0,0,0)" paint-order="fill stroke markers" d=" M 133.31080620863685 260.56283011317925 C 133.31080620863685 260.2460404429007 133.56761497719492 259.98923167434265 133.88440464747347 259.98923167434265 C 134.20119431775203 259.98923167434265 134.4580030863101 260.2460404429007 134.4580030863101 260.56283011317925 C 134.4580030863101 260.87961978345777 134.20119431775203 261.13642855201584 133.88440464747347 261.13642855201584 C 133.56761497719492 261.13642855201584 133.31080620863685 260.87961978345777 133.31080620863685 260.56283011317925" stroke-opacity="1" stroke-linecap="round" stroke-miterlimit="10" stroke-dasharray=""/><path fill="none" stroke="rgb(0,0,0)" paint-order="fill stroke markers" d=" M 122.78463193368991 244.04491008492332 C 122.78463193368991 241.834662681915 124.57639147331166 240.04290314229326 126.78663887631997 240.04290314229326 C 128.9968862793283 240.04290314229326 130.78864581895004 241.834662681915 130.78864581895004 244.04491008492332 C 130.78864581895004 246.25515748793163 128.9968862793283 248.04691702755338 126.78663887631997 248.04691702755338 C 124.57639147331166 248.04691702755338 122.78463193368991 246.25515748793163 122.78463193368991 244.04491008492332" stroke-opacity="1" stroke-linecap="round" stroke-miterlimit="10" stroke-dasharray=""/><path fill="none" stroke="rgb(0,0,0)" paint-order="fill stroke markers" d=" M 123.30931908729485 225.8757361159249 C 123.30931908729485 223.7163538259846 125.05984430561415 221.96582860766534 127.21922659555442 221.96582860766534 C 129.37860888549469 221.96582860766534 131.12913410381395 223.7163538259846 131.12913410381395 225.8757361159249 C 131.12913410381395 228.03511840586518 129.37860888549469 229.78564362418444 127.21922659555442 229.78564362418444 C 125.05984430561415 229.78564362418444 123.30931908729485 228.03511840586518 123.30931908729485 225.8757361159249" stroke-opacity="1" stroke-linecap="round" stroke-miterlimit="10" stroke-dasharray=""/><path fill="none" stroke="rgb(0,0,0)" paint-order="fill stroke markers" d=" M 111.81418226084828 212.05135454683065 C 111.81418226084828 210.03964519196487 113.44499491223795 208.4088325405752 115.45670426710375 208.4088325405752 C 117.46841362196955 208.4088325405752 119.09922627335922 210.03964519196487 119.09922627335922 212.05135454683065 C 119.09922627335922 214.06306390169647 117.46841362196955 215.69387655308614 115.45670426710375 215.69387655308614 C 113.44499491223795 215.69387655308614 111.81418226084828 214.06306390169647 111.81418226084828 212.05135454683065" stroke-opacity="1" stroke-linecap="round" stroke-miterlimit="10" stroke-dasharray=""/><path fill="none" stroke="rgb(0,0,0)" paint-order="fill stroke markers" d=" M 104.39149073570972 194.69654041253634 C 104.39149073570972 191.98452153472604 106.59001642533934 189.7859958450964 109.30203530314964 189.7859958450964 C 112.01405418095993 189.7859958450964 114.21257987058955 191.98452153472604 114.21257987058955 194.69654041253634 C 114.21257987058955 197.40855929034663 112.01405418095993 199.60708497997624 109.30203530314964 199.60708497997624 C 106.59001642533934 199.60708497997624 104.39149073570972 197.40855929034663 104.39149073570972 194.69654041253634" stroke-opacity="1" stroke-linecap="round" stroke-miterlimit="10" stroke-dasharray=""/><path fill="none" stroke="rgb(0,0,0)" paint-order="fill stroke markers" d=" M 121.41006605953905 179.27213419854556 C 121.41006605953905 179.17856317483447 121.48592036170373 179.10270887266978 121.57949138541481 179.10270887266978 C 121.67306240912589 179.10270887266978 121.74891671129056 179.17856317483447 121.74891671129056 179.27213419854556 C 121.74891671129056 179.36570522225662 121.67306240912589 179.4415595244213 121.57949138541481 179.4415595244213 C 121.48592036170373 179.4415595244213 121.41006605953905 179.36570522225662 121.41006605953905 179.27213419854556" stroke-opacity="1" stroke-linecap="round" stroke-miterlimit="10" stroke-dasharray=""/><path fill="none" stroke="rgb(0,0,0)" paint-order="fill stroke markers" d=" M 129.88697517687814 167.3147807808766 C 129.88697517687814 165.1735108501021 131.62281742700293 163.43766859997734 133.76408735777738 163.43766859997734 C 135.90535728855187 163.43766859997734 137.64119953867663 165.1735108501021 137.64119953867663 167.3147807808766 C 137.64119953867663 169.45605071165107 135.90535728855187 171.19189296177584 133.76408735777738 171.19189296177584 C 131.62281742700293 171.19189296177584 129.88697517687814 169.45605071165107 129.88697517687814 167.3147807808766" stroke-opacity="1" stroke-linecap="round" stroke-miterlimit="10" stroke-dasharray=""/><path fill="none" stroke="rgb(0,0,0)" paint-order="fill stroke markers" d=" M 132.23969029749423 147.70612239108732 C 132.23969029749423 147.61864664736873 132.31060339893253 147.54773354593047 132.39807914265108 147.54773354593047 C 132.48555488636964 147.54773354593047 132.55646798780793 147.61864664736873 132.55646798780793 147.70612239108732 C 132.55646798780793 147.79359813480585 132.48555488636964 147.86451123624414 132.39807914265108 147.86451123624414 C 132.31060339893253 147.86451123624414 132.23969029749423 147.79359813480585 132.23969029749423 147.70612239108732" stroke-opacity="1" stroke-linecap="round" stroke-miterlimit="10" stroke-dasharray=""/><path fill="none" stroke="rgb(0,0,0)" paint-order="fill stroke markers" d=" M 140.647580378454 135.42154899521555 C 140.647580378454 133.4462569022348 142.2488710060645 131.8449662746243 144.22416309904523 131.8449662746243 C 146.19945519202597 131.8449662746243 147.80074581963646 133.4462569022348 147.80074581963646 135.42154899521555 C 147.80074581963646 137.39684108819628 146.19945519202597 138.99813171580678 144.22416309904523 138.99813171580678 C 142.2488710060645 138.99813171580678 140.647580378454 137.39684108819628 140.647580378454 135.42154899521555" stroke-opacity="1" stroke-linecap="round" stroke-miterlimit="10" stroke-dasharray=""/><path fill="none" stroke="rgb(0,0,0)" paint-order="fill stroke markers" d=" M 155.15390756982532 121.47175075181578 C 155.15390756982532 121.09950981399786 155.45566847245786 120.79774891136532 155.82790941027577 120.79774891136532 C 156.2001503480937 120.79774891136532 156.50191125072624 121.09950981399786 156.50191125072624 121.47175075181578 C 156.50191125072624 121.8439916896337 156.2001503480937 122.14575259226625 155.82790941027577 122.14575259226625 C 155.45566847245786 122.14575259226625 155.15390756982532 121.8439916896337 155.15390756982532 121.47175075181578" stroke-opacity="1" stroke-linecap="round" stroke-miterlimit="10" stroke-dasharray=""/><path fill="none" stroke="rgb(0,0,0)" paint-order="fill stroke markers" d=" M 169.31288310066677 115.81112380211148 C 169.31288310066677 113.87968961191713 170.87861987326613 112.31395283931776 172.81005406346048 112.31395283931776 C 174.74148825365484 112.31395283931776 176.30722502625417 113.87968961191713 176.30722502625417 115.81112380211148 C 176.30722502625417 117.74255799230583 174.74148825365484 119.3082947649052 172.81005406346048 119.3082947649052 C 170.87861987326613 119.3082947649052 169.31288310066677 117.74255799230583 169.31288310066677 115.81112380211148" stroke-opacity="1" stroke-linecap="round" stroke-miterlimit="10" stroke-dasharray=""/><path fill="none" stroke="rgb(0,0,0)" paint-order="fill stroke markers" d=" M 191.27851152616026 125.4237162962822 C 191.27851152616026 125.25556389920769 191.41482597727483 125.1192494480931 191.58297837434935 125.1192494480931 C 191.75113077142385 125.1192494480931 191.88744522253845 125.25556389920769 191.88744522253845 125.4237162962822 C 191.88744522253845 125.5918686933567 191.75113077142385 125.72818314447129 191.58297837434935 125.72818314447129 C 191.41482597727483 125.72818314447129 191.27851152616026 125.5918686933567 191.27851152616026 125.4237162962822" stroke-opacity="1" stroke-linecap="round" stroke-miterlimit="10" stroke-dasharray=""/><path fill="none" stroke="rgb(0,0,0)" paint-order="fill stroke markers" d=" M 206.84724942127923 113.87902522218816 C 206.84724942127923 113.4828928098998 207.16837819071247 113.16176404046655 207.56451060300083 113.16176404046655 C 207.9606430152892 113.16176404046655 208.28177178472242 113.4828928098998 208.28177178472242 113.87902522218816 C 208.28177178472242 114.27515763447653 207.9606430152892 114.59628640390976 207.56451060300083 114.59628640390976 C 207.16837819071247 114.59628640390976 206.84724942127923 114.27515763447653 206.84724942127923 113.87902522218816" stroke-opacity="1" stroke-linecap="round" stroke-miterlimit="10" stroke-dasharray=""/><path fill="none" stroke="rgb(0,0,0)" paint-order="fill stroke markers" d=" M 221.06832146295488 119.17406899663604 C 221.06832146295488 117.60500988663868 222.34029519075642 116.33303615883713 223.90935430075376 116.33303615883713 C 225.47841341075113 116.33303615883713 226.7503871385527 117.60500988663868 226.7503871385527 119.17406899663604 C 226.7503871385527 120.74312810663339 225.47841341075113 122.01510183443494 223.90935430075376 122.01510183443494 C 222.34029519075642 122.01510183443494 221.06832146295488 120.74312810663339 221.06832146295488 119.17406899663604" stroke-opacity="1" stroke-linecap="round" stroke-miterlimit="10" stroke-dasharray=""/><path fill="none" stroke="rgb(0,0,0)" paint-order="fill stroke markers" d=" M 231.73029014566694 135.1068684910175 C 231.73029014566694 133.62450552035224 232.93198276625614 132.42281289976304 234.4143457369214 132.42281289976304 C 235.89670870758667 132.42281289976304 237.09840132817587 133.62450552035224 237.09840132817587 135.1068684910175 C 237.09840132817587 136.58923146168277 235.89670870758667 137.79092408227197 234.4143457369214 137.79092408227197 C 232.93198276625614 137.79092408227197 231.73029014566694 136.58923146168277 231.73029014566694 135.1068684910175" stroke-opacity="1" stroke-linecap="round" stroke-miterlimit="10" stroke-dasharray=""/><path fill="none" stroke="rgb(0,0,0)" paint-order="fill stroke markers" d=" M 254.66196796791436 129.72419201765683 C 254.66196796791436 128.03558168725283 256.0308571085993 126.66669254656789 257.7194674390033 126.66669254656789 C 259.4080777694073 126.66669254656789 260.77696691009226 128.03558168725283 260.77696691009226 129.72419201765683 C 260.77696691009226 131.41280234806084 259.4080777694073 132.78169148874582 257.7194674390033 132.78169148874582 C 256.0308571085993 132.78169148874582 254.66196796791436 131.41280234806084 254.66196796791436 129.72419201765683" stroke-opacity="1" stroke-linecap="round" stroke-miterlimit="10" stroke-dasharray=""/><path fill="none" stroke="rgb(0,0,0)" paint-order="fill stroke markers" d=" M 258.94727667194144 150.1886683285817 C 258.94727667194144 148.9458788099678 259.9547566367126 147.93839884519667 261.19754615532645 147.93839884519667 C 262.44033567394035 147.93839884519667 263.4478156387115 148.9458788099678 263.4478156387115 150.1886683285817 C 263.4478156387115 151.4314578471956 262.44033567394035 152.43893781196675 261.19754615532645 152.43893781196675 C 259.9547566367126 152.43893781196675 258.94727667194144 151.4314578471956 258.94727667194144 150.1886683285817" stroke-opacity="1" stroke-linecap="round" stroke-miterlimit="10" stroke-dasharray=""/><path fill="none" stroke="rgb(0,0,0)" paint-order="fill stroke markers" d=" M 275.1276146797471 160.28036165756885 C 275.1276146797471 159.96171001552287 275.38593287465824 159.70339182061178 275.7045845167042 159.70339182061178 C 276.02323615875014 159.70339182061178 276.28155435366125 159.96171001552287 276.28155435366125 160.28036165756885 C 276.28155435366125 160.59901329961482 276.02323615875014 160.8573314945259 275.7045845167042 160.8573314945259 C 275.38593287465824 160.8573314945259 275.1276146797471 160.59901329961482 275.1276146797471 160.28036165756885" stroke-opacity="1" stroke-linecap="round" stroke-miterlimit="10" stroke-dasharray=""/><path fill="none" stroke="rgb(0,0,0)" paint-order="fill stroke markers" d=" M 265.6788454048973 179.43982847060755 C 265.6788454048973 176.69322705206295 267.9054057829426 174.4666666740176 270.6520072014872 174.4666666740176 C 273.3986086200318 174.4666666740176 275.62516899807713 176.69322705206295 275.62516899807713 179.43982847060755 C 275.62516899807713 182.18642988915215 273.3986086200318 184.4129902671975 270.6520072014872 184.4129902671975 C 267.9054057829426 184.4129902671975 265.6788454048973 182.18642988915215 265.6788454048973 179.43982847060755" stroke-opacity="1" stroke-linecap="round" stroke-miterlimit="10" stroke-dasharray=""/><path fill="none" stroke="rgb(0,0,0)" paint-order="fill stroke markers" d=" M 284.39626618438143 192.8700176242953 C 284.39626618438143 192.25257471470462 284.8968025595968 191.75203833948927 285.5142454691875 191.75203833948927 C 286.1316883787781 191.75203833948927 286.63222475399346 192.25257471470462 286.63222475399346 192.8700176242953 C 286.63222475399346 193.48746053388598 286.1316883787781 193.98799690910133 285.5142454691875 193.98799690910133 C 284.8968025595968 193.98799690910133 284.39626618438143 193.48746053388598 284.39626618438143 192.8700176242953" stroke-opacity="1" stroke-linecap="round" stroke-miterlimit="10" stroke-dasharray=""/><path fill="none" stroke="rgb(255,0,0)" paint-order="fill stroke markers" d=" M 289.8101217967905 218.2054129784656 C 288.4273787200711 223.24833963198182 274.6932286792602 225.19094237877314 271.5658591010561 230.25755992109728 C 268.4384895228521 235.32417746342142 273.9282431817935 244.33465078824318 271.0459043275663 248.60511823241043 C 268.1635654733391 252.8755856765777 257.9929133361575 251.33522778999856 254.27182597569282 255.88036458610082 C 250.5507386152281 260.4255013822031 252.89996875592192 272.6765466296719 248.71938016477793 275.875939009024 C 244.538791573634 279.07533138837607 234.89810067217627 273.7492845196182 229.18829442882907 275.0767188622132 C 223.47848818548187 276.40415320480827 219.70185267277958 283.4615572369579 214.46054270469472 283.8405450645944 C 209.21923273660985 284.21953289223086 202.98809634342547 279.1614970118801 197.7404346203199 277.350645828032 C 192.4927728972143 275.53979464418387 188.97108883847784 271.941711328535 182.97457236606118 272.9754379615056 C 176.9780558936445 274.00916459447615 166.16039027916764 285.7737352893538 161.76133578581985 283.5530056258554 C 157.36228129247206 281.332275962357 161.22640059569883 263.48275589929455 156.58024540597444 259.6510599805152 C 151.93409021625004 255.81936406173583 138.85000573574922 263.1638550957779 133.88440464747347 260.56283011317925 C 128.91880355919773 257.9618051305806 127.89750188497314 249.82609241779903 126.78663887631997 244.04491008492332 C 125.6757758676668 238.2637277520476 129.1075490304238 231.20799537227367 127.21922659555442 225.8757361159249 C 125.33090416068505 220.54347685957612 118.44290281583787 217.2478871640621 115.45670426710375 212.05135454683065 C 112.47050571836962 206.85482192959924 108.28157078343112 200.1597438039172 109.30203530314964 194.69654041253634 C 110.32249982286815 189.23333702115548 117.50248270964352 183.83576080382218 121.57949138541481 179.27213419854556 C 125.65650006118611 174.70850759326893 131.960989398238 172.5757827487863 133.76408735777738 167.3147807808766 C 135.56718531731678 162.05377881296687 130.65473318577313 153.0216610220308 132.39807914265108 147.70612239108732 C 134.14142509952904 142.39058376014378 140.31919138777445 139.79394426842748 144.22416309904523 135.42154899521555 C 148.129134810316 131.0491537220036 151.0635942495399 124.74015495066645 155.82790941027577 121.47175075181578 C 160.59222457101166 118.2033465529651 166.85087590278152 115.15246287803375 172.81005406346048 115.81112380211148 C 178.7692322241394 116.46978472618922 185.7905689510926 125.74573272626941 191.58297837434935 125.4237162962822 C 197.37538779760607 125.10169986629498 202.17678128193342 114.92063310546251 207.56451060300083 113.87902522218816 C 212.95223992406824 112.83741733891381 219.43438177843367 115.63609511849782 223.90935430075376 119.17406899663604 C 228.38432682307388 122.71204287477426 228.77932688054648 133.3485146541807 234.4143457369214 135.1068684910175 C 240.04936459329633 136.86522232785433 253.2556007026025 127.21055871139615 257.7194674390033 129.72419201765683 C 262.1833341754042 132.23782532391755 258.2000266423763 145.09597338859638 261.19754615532645 150.1886683285817 C 264.1950656682766 155.28136326856702 274.1288410090107 155.40516830056453 275.7045845167042 160.28036165756885 C 277.28032802439765 165.15555501457314 269.01706370940667 174.0082191428198 270.6520072014872 179.43982847060755 C 272.28695069356775 184.87143779839528 283.9791937425399 189.44332236939655 285.5142454691875 192.8700176242953 C 287.049297195835 196.29671287919405 280.8043055460082 198.81166960404923 279.8623175613724 200 L 279.8623175613724 200 Z" stroke-opacity="1" stroke-linecap="round" stroke-miterlimit="10" stroke-dasharray=""/></g></svg>