<svg version="1.1" xmlns="http://www.w3.org/2000/svg" xmlns:xlink="http://www.w3.org/1999/xlink" width="400" height="400" viewBox="0 0 400 400"><defs/><g><rect fill="rgb(255,255,255)" stroke="none" x="0" y="0" width="400" height="400" transform="matrix(1 0 0 1 0 0)" fill-opacity="1"/><path fill="none" stroke="rgb(0,0,0)" paint-order="fill stroke markers" d=" M 301.57351837074555 200 C 301.57351837074555 197.84184083562405 303.3230520498846 196.09230715648496 305.4812112142606 196.09230715648496 C 307.63937037863656 196.09230715648496 309.3889040577757 197.84184083562405 309.3889040577757 200 C 309.3889040577757 202.15815916437595 307.63937037863656 203.90769284351504 305.4812112142606 203.90769284351504 C 303.3230520498846 203.90769284351504 301.57351837074555 202.15815916437595 301.57351837074555 200" stroke-opacity="1" stroke-linecap="round" stroke-miterlimit="10" stroke-dasharray=""/><path fill="none" stroke="rgb(0,0,0)" paint-order="fill stroke markers" d=" M 304.3163029838217 221.8337055533907 C 304.3163029838217 219.95994256257381 305.8352880120211 218.44095753437438 307.709051002838 218.44095753437438 C 309.5828139936549 218.44095753437438 311.10179902185433 219.95994256257381 311.10179902185433 221.8337055533907 C 311.10179902185433 223.7074685442076 309.5828139936549 225.22645357240702 307.709051002838 225.22645357240702 C 305.8352880120211 225.22645357240702 304.3163029838217 223.7074685442076 304.3163029838217 221.8337055533907" stroke-opacity="1" stroke-linecap="round" stroke-miterlimit="10" stroke-dasharray=""/><path fill="none" stroke="rgb(0,0,0)" paint-order="fill stroke markers" d=" M 303.5459102490572 244.420835659168 C 303.5459102490572 243.5817791689036 304.2260999276726 242.90158949028822 305.065156417937 242.90158949028822 C 305.9042129082013 242.90158949028822 306.58440258681674 243.5817791689036 306.58440258681674 244.420835659168 C 306.58440258681674 245.25989214943237 305.9042129082013 245.94008182804777 305.065156417937 245.94008182804777 C 304.2260999276726 245.94008182804777 303.5459102490572 245.25989214943237 303.5459102490572 244.420835659168" stroke-opacity="1" stroke-linecap="round" stroke-miterlimit="10" stroke-dasharray=""/><path fill="none" stroke="rgb(0,0,0)" paint-order="fill stroke markers" d=" M 281.51349050822824 256.2076775476456 C 281.51349050822824 255.85142960678095 281.8022865252017 255.5626335898075 282.1585344660663 255.5626335898075 C 282.5147824069309 255.5626335898075 282.80357842390436 255.85142960678095 282.80357842390436 256.2076775476456 C 282.80357842390436 256.56392548851016 282.5147824069309 256.8527215054836 282.1585344660663 256.8527215054836 C 281.8022865252017 256.8527215054836 281.51349050822824 256.56392548851016 281.51349050822824 256.2076775476456" stroke-opacity="1" stroke-linecap="round" stroke-miterlimit="10" stroke-dasharray=""/><path fill="none" stroke="rgb(0,0,0)" paint-order="fill stroke markers" d=" M 269.3589512103209 274.14438726866484 C 269.3589512103209 272.6801918870789 270.54591609002443 271.4932270073753 272.01011147161046 271.4932270073753 C 273.4743068531964 271.4932270073753 274.6612717329 272.6801918870789 274.6612717329 274.14438726866484 C 274.6612717329 275.6085826502508 273.4743068531964 276.7955475299544 272.01011147161046 276.7955475299544 C 270.54591609002443 276.7955475299544 269.3589512103209 275.6085826502508 269.3589512103209 274.14438726866484" stroke-opacity="1" stroke-linecap="round" stroke-miterlimit="10" stroke-dasharray=""/><path fill="none" stroke="rgb(0,0,0)" paint-order="fill stroke markers" d=" M 251.73354178115906 282.31085157829926 C 251.73354178115906 281.6935915060392 252.23392993743255 281.1932033497657 252.85119000969263 281.1932033497657 C 253.46845008195268 281.1932033497657 253.96883823822617 281.6935915060392 253.96883823822617 282.31085157829926 C 253.96883823822617 282.92811165055934 253.46845008195268 283.4284998068328 252.85119000969263 283.4284998068328 C 252.23392993743255 283.4284998068328 251.73354178115906 282.92811165055934 251.73354178115906 282.31085157829926" stroke-opacity="1" stroke-linecap="round" stroke-miterlimit="10" stroke-dasharray=""/><path fill="none" stroke="rgb(0,0,0)" paint-order="fill stroke markers" d=" M 240.65383628373758 306.34053971045955 C 240.65383628373758 305.9599089537994 240.9623984783548 305.65134675918216 241.34302923501497 305.65134675918216 C 241.72365999167516 305.65134675918216 242.0322221862924 305.9599089537994 242.0322221862924 306.34053971045955 C 242.0322221862924 306.72117046711975 241.72365999167516 307.029732661737 241.34302923501497 307.029732661737 C 240.9623984783548 307.029732661737 240.65383628373758 306.72117046711975 240.65383628373758 306.34053971045955" stroke-opacity="1" stroke-linecap="round" stroke-miterlimit="10" stroke-dasharray=""/><path fill="none" stroke="rgb(0,0,0)" paint-order="fill stroke markers" d=" M 217.23702283064608 302.1137137061022 C 217.23702283064608 301.906487536479 217.40501283293108 301.73849753419404 217.6122390025543 301.73849753419404 C 217.81946517217756 301.73849753419404 217.98745517446253 301.906487536479 217.98745517446253 302.1137137061022 C 217.98745517446253 302.32093987572546 217.81946517217756 302.4889298780105 217.6122390025543 302.4889298780105 C 217.40501283293108 302.4889298780105 217.23702283064608 302.32093987572546 217.23702283064608 302.1137137061022" stroke-opacity="1" stroke-linecap="round" stroke-miterlimit="10" stroke-dasharray=""/><path fill="none" stroke="rgb(0,0,0)" paint-order="fill stroke markers" d=" M 193.09115053577702 295.50888683983106 C 193.09115053577702 293.2341110382081 194.9352206781109 291.3900408958742 197.20999647973386 291.3900408958742 C 199.48477228135684 291.3900408958742 201.32884242369073 293.2341110382081 201.32884242369073 295.50888683983106 C 201.32884242369073 297.78366264145404 199.48477228135684 299.6277327837879 197.20999647973386 299.6277327837879 C 194.9352206781109 299.6277327837879 193.09115053577702 297.78366264145404 193.09115053577702 295.50888683983106" stroke-opacity="1" stroke-linecap="round" stroke-miterlimit="10" stroke-dasharray=""/><path fill="none" stroke="rgb(0,0,0)" paint-order="fill stroke markers" d=" M 174.75738219626953 293.2811553260681 C 174.75738219626953 291.35931787421856 176.31533927531277 289.8013607951753 178.23717672716228 289.8013607951753 C 180.1590141790118 289.8013607951753 181.71697125805503 291.35931787421856 181.71697125805503 293.2811553260681 C 181.71697125805503 295.2029927779176 180.1590141790118 296.7609498569608 178.23717672716228 296.7609498569608 C 176.31533927531277 296.7609498569608 174.75738219626953 295.2029927779176 174.75738219626953 293.2811553260681" stroke-opacity="1" stroke-linecap="round" stroke-miterlimit="10" stroke-dasharray=""/><path fill="none" stroke="rgb(0,0,0)" paint-order="fill stroke markers" d=" M 154.04939450799682 291.70244987745514 C 154.04939450799682 289.5030937453192 155.83232492810123 287.7201633252148 158.03168106023722 287.7201633252148 C 160.2310371923732 287.7201633252148 162.0139676124776 289.5030937453192 162.0139676124776 291.70244987745514 C 162.0139676124776 293.90180600959116 160.2310371923732 295.68473642969553 158.03168106023722 295.68473642969553 C 155.83232492810123 295.68473642969553 154.04939450799682 293.90180600959116 154.04939450799682 291.70244987745514" stroke-opacity="1" stroke-linecap="round" stroke-miterlimit="10" stroke-dasharray=""/><path fill="none" stroke="rgb(0,0,0)" paint-order="fill stroke markers" d=" M 140.8536599026713 278.0254709925643 C 140.8536599026713 276.72653628489155 141.90665453605519 275.67354165150766 143.20558924372793 275.67354165150766 C 144.50452395140064 275.67354165150766 145.55751858478453 276.72653628489155 145.55751858478453 278.0254709925643 C 145.55751858478453 279.32440570023704 144.50452395140064 280.3774003336209 143.20558924372793 280.3774003336209 C 141.90665453605519 280.3774003336209 140.8536599026713 279.32440570023704 140.8536599026713 278.0254709925643" stroke-opacity="1" stroke-linecap="round" stroke-miterlimit="10" stroke-dasharray=""/><path fill="none" stroke="rgb(0,0,0)" paint-order="fill stroke markers" d=" M 121.55306519791995 268.8931730348945 C 121.55306519791995 267.1053055282002 123.00241817819683 265.6559525479233 124.79028568489119 265.6559525479233 C 126.57815319158554 265.6559525479233 128.02750617186246 267.1053055282002 128.02750617186246 268.8931730348945 C 128.02750617186246 270.6810405415889 126.57815319158554 272.1303935218658 124.79028568489119 272.1303935218658 C 123.00241817819683 272.1303935218658 121.55306519791995 270.6810405415889 121.55306519791995 268.8931730348945" stroke-opacity="1" stroke-linecap="round" stroke-miterlimit="10" stroke-dasharray=""/><path fill="none" stroke="rgb(0,0,0)" paint-order="fill stroke markers" d=" M 101.1460438750701 256.4623822017904 C 101.1460438750701 253.70110540391877 103.3845009986431 251.46264828034577 106.14577779651471 251.46264828034577 C 108.90705459438631 251.46264828034577 111.14551171795931 253.70110540391877 111.14551171795931 256.4623822017904 C 111.14551171795931 259.22365899966195 108.90705459438631 261.462116123235 106.14577779651471 261.462116123235 C 103.3845009986431 261.462116123235 101.1460438750701 259.22365899966195 101.1460438750701 256.4623822017904" stroke-opacity="1" stroke-linecap="round" stroke-miterlimit="10" stroke-dasharray=""/><path fill="none" stroke="rgb(0,0,0)" paint-order="fill stroke markers" d=" M 105.15463524327245 232.3857388473707 C 105.15463524327245 230.31252600681805 106.8353063209403 228.6318549291502 108.90851916149296 228.6318549291502 C 110.98173200204562 228.6318549291502 112.66240307971346 230.31252600681805 112.66240307971346 232.3857388473707 C 112.66240307971346 234.45895168792333 110.98173200204562 236.13962276559118 108.90851916149296 236.13962276559118 C 106.8353063209403 236.13962276559118 105.15463524327245 234.45895168792333 105.15463524327245 232.3857388473707" stroke-opacity="1" stroke-linecap="round" stroke-miterlimit="10" stroke-dasharray=""/><path fill="none" stroke="rgb(0,0,0)" paint-order="fill stroke markers" d=" M 95.16679773752156 214.59672949386095 C 95.16679773752156 213.25276750924252 96.25629419097358 212.1632710557905 97.60025617559201 212.1632710557905 C 98.94421816021044 212.1632710557905 100.03371461366244 213.25276750924252 100.03371461366244 214.59672949386095 C 100.03371461366244 215.94069147847938 98.94421816021044 217.03018793193138 97.60025617559201 217.03018793193138 C 96.25629419097358 217.03018793193138 95.16679773752156 215.94069147847938 95.16679773752156 214.59672949386095" stroke-opacity="1" stroke-linecap="round" stroke-miterlimit="10" stroke-dasharray=""/><path fill="none" stroke="rgb(0,0,0)" paint-order="fill stroke markers" d=" M 98.61036854342605 194.33750739386335 C 98.61036854342605 191.82372480763763 100.64819196684668 189.78590138421703 103.16197455307237 189.78590138421703 C 105.67575713929806 189.78590138421703 107.71358056271868 191.82372480763763 107.71358056271868 194.33750739386335 C 107.71358056271868 196.85128998008904 105.67575713929806 198.88911340350967 103.16197455307237 198.88911340350967 C 100.64819196684668 198.88911340350967 98.61036854342605 196.85128998008904 98.61036854342605 194.33750739386335" stroke-opacity="1" stroke-linecap="round" stroke-miterlimit="10" stroke-dasharray=""/><path fill="none" stroke="rgb(0,0,0)" paint-order="fill stroke markers" d=" M 91.5725821157069 172.20987401611598 C 91.5725821157069 170.3939636177886 93.04466835133505 168.92187738216043 94.86057874966242 168.92187738216043 C 96.6764891479898 168.92187738216043 98.14857538361795 170.3939636177886 98.14857538361795 172.20987401611598 C 98.14857538361795 174.02578441444334 96.6764891479898 175.4978706500715 94.86057874966242 175.4978706500715 C 93.04466835133505 175.4978706500715 91.5725821157069 174.02578441444334 91.5725821157069 172.20987401611598" stroke-opacity="1" stroke-linecap="round" stroke-miterlimit="10" stroke-dasharray=""/><path fill="none" stroke="rgb(0,0,0)" paint-order="fill stroke markers" d=" M 97.72742718438198 150.283798652835 C 97.72742718438198 149.4422650647203 98.40962494756651 148.76006730153577 99.25115853568123 148.76006730153577 C 100.09269212379594 148.76006730153577 100.77488988698047 149.4422650647203 100.77488988698047 150.283798652835 C 100.77488988698047 151.12533224094975 100.09269212379594 151.80753000413426 99.25115853568123 151.80753000413426 C 98.40962494756651 151.80753000413426 97.72742718438198 151.12533224094975 97.72742718438198 150.283798652835" stroke-opacity="1" stroke-linecap="round" stroke-miterlimit="10" stroke-dasharray=""/><path fill="none" stroke="rgb(0,0,0)" paint-order="fill stroke markers" d=" M 110.98454539268513 133.2812826520185 C 110.98454539268513 131.75361051115243 112.22296835297708 130.5151875508605 113.75064049384311 130.5151875508605 C 115.27831263470914 130.5151875508605 116.51673559500108 131.75361051115243 116.51673559500108 133.2812826520185 C 116.51673559500108 134.8089547928845 115.27831263470914 136.04737775317645 113.75064049384311 136.04737775317645 C 112.22296835297708 136.04737775317645 110.98454539268513 134.8089547928845 110.98454539268513 133.2812826520185" stroke-opacity="1" stroke-linecap="round" stroke-miterlimit="10" stroke-dasharray=""/><path fill="none" stroke="rgb(0,0,0)" paint-order="fill stroke markers" d=" M 123.13103927467634 113.51232150268233 C 123.13103927467634 112.31368805841356 124.1027236686293 111.3420036644606 125.30135711289806 111.3420036644606 C 126.49999055716683 111.3420036644606 127.4716749511198 112.31368805841356 127.4716749511198 113.51232150268233 C 127.4716749511198 114.71095494695109 126.49999055716683 115.68263934090406 125.30135711289806 115.68263934090406 C 124.1027236686293 115.68263934090406 123.13103927467634 114.71095494695109 123.13103927467634 113.51232150268233" stroke-opacity="1" stroke-linecap="round" stroke-miterlimit="10" stroke-dasharray=""/><path fill="none" stroke="rgb(0,0,0)" paint-order="fill stroke markers" d=" M 147.2062598841378 113.5485529848247 C 147.2062598841378 111.24836664804938 149.0709293352659 109.3836971969213 151.3711156720412 109.3836971969213 C 153.67130200881653 109.3836971969213 155.53597145994462 111.24836664804938 155.53597145994462 113.5485529848247 C 155.53597145994462 115.84873932160001 153.67130200881653 117.71340877272809 151.3711156720412 117.71340877272809 C 149.0709293352659 117.71340877272809 147.2062598841378 115.84873932160001 147.2062598841378 113.5485529848247" stroke-opacity="1" stroke-linecap="round" stroke-miterlimit="10" stroke-dasharray=""/><path fill="none" stroke="rgb(0,0,0)" paint-order="fill stroke markers" d=" M 165.5827816264286 95.57902086582526 C 165.5827816264286 95.19626609443951 165.89306567518838 94.88598204567974 166.27582044657413 94.88598204567974 C 166.65857521795988 94.88598204567974 166.96885926671965 95.19626609443951 166.96885926671965 95.57902086582526 C 166.96885926671965 95.961775637211 166.65857521795988 96.27205968597076 166.27582044657413 96.27205968597076 C 165.89306567518838 96.27205968597076 165.5827816264286 95.961775637211 165.5827816264286 95.57902086582526" stroke-opacity="1" stroke-linecap="round" stroke-miterlimit="10" stroke-dasharray=""/><path fill="none" stroke="rgb(0,0,0)" paint-order="fill stroke markers" d=" M 187.4824313812173 92.30280659735776 C 187.4824313812173 92.1026756555871 187.64466956487178 91.94043747193264 187.84480050664243 91.94043747193264 C 188.04493144841308 91.94043747193264 188.20716963206755 92.1026756555871 188.20716963206755 92.30280659735776 C 188.20716963206755 92.50293753912841 188.04493144841308 92.66517572278286 187.84480050664243 92.66517572278286 C 187.64466956487178 92.66517572278286 187.4824313812173 92.50293753912841 187.4824313812173 92.30280659735776" stroke-opacity="1" stroke-linecap="round" stroke-miterlimit="10" stroke-dasharray=""/><path fill="none" stroke="rgb(0,0,0)" paint-order="fill stroke markers" d=" M 205.26016068466043 91.00556650790774 C 205.26016068466043 88.6233083162664 207.1913625197608 86.69210648116604 209.57362071140213 86.69210648116604 C 211.9558789030435 86.69210648116604 213.88708073814385 88.6233083162664 213.88708073814385 91.00556650790774 C 213.88708073814385 93.38782469954909 211.9558789030435 95.31902653464945 209.57362071140213 95.31902653464945 C 207.1913625197608 95.31902653464945 205.26016068466043 93.38782469954909 205.26016068466043 91.00556650790774" stroke-opacity="1" stroke-linecap="round" stroke-miterlimit="10" stroke-dasharray=""/><path fill="none" stroke="rgb(0,0,0)" paint-order="fill stroke markers" d=" M 229.68172600551048 93.04529106668332 C 229.68172600551048 91.96454808442746 230.55784129726496 91.08843279267299 231.6385842795208 91.08843279267299 C 232.71932726177664 91.08843279267299 233.59544255353114 91.96454808442746 233.59544255353114 93.04529106668332 C 233.59544255353114 94.12603404893918 232.71932726177664 95.00214934069363 231.6385842795208 95.00214934069363 C 230.55784129726496 95.00214934069363 229.68172600551048 94.12603404893918 229.68172600551048 93.04529106668332" stroke-opacity="1" stroke-linecap="round" stroke-miterlimit="10" stroke-dasharray=""/><path fill="none" stroke="rgb(0,0,0)" paint-order="fill stroke markers" d=" M 252.57220400394752 100.23845466435164 C 252.57220400394752 100.05416978552742 252.72159641549018 99.90477737398474 252.9058812943144 99.90477737398474 C 253.09016617313864 99.90477737398474 253.2395585846813 100.05416978552742 253.2395585846813 100.23845466435164 C 253.2395585846813 100.42273954317585 253.09016617313864 100.57213195471853 252.9058812943144 100.57213195471853 C 252.72159641549018 100.57213195471853 252.57220400394752 100.42273954317585 252.57220400394752 100.23845466435164" stroke-opacity="1" stroke-linecap="round" stroke-miterlimit="10" stroke-dasharray=""/><path fill="none" stroke="rgb(0,0,0)" paint-order="fill stroke markers" d=" M 264.9160989176807 118.76531408188563 C 264.9160989176807 117.76888277322283 265.72386609362866 116.96111559727485 266.72029740229146 116.96111559727485 C 267.71672871095427 116.96111559727485 268.5244958869023 117.76888277322283 268.5244958869023 118.76531408188563 C 268.5244958869023 119.76174539054844 267.71672871095427 120.56951256649641 266.72029740229146 120.56951256649641 C 265.72386609362866 120.56951256649641 264.9160989176807 119.76174539054844 264.9160989176807 118.76531408188563" stroke-opacity="1" stroke-linecap="round" stroke-miterlimit="10" stroke-dasharray=""/><path fill="none" stroke="rgb(0,0,0)" paint-order="fill stroke markers" d=" M 276.85463286671404 133.91201027581607 C 276.85463286671404 131.51498343340222 278.79780705878807 129.57180924132814 281.19483390120195 129.57180924132814 C 283.5918607436158 129.57180924132814 285.53503493568985 131.51498343340222 285.53503493568985 133.91201027581607 C 285.53503493568985 136.30903711822992 283.5918607436158 138.25221131030398 281.19483390120195 138.25221131030398 C 278.79780705878807 138.25221131030398 276.85463286671404 136.30903711822992 276.85463286671404 133.91201027581607" stroke-opacity="1" stroke-linecap="round" stroke-miterlimit="10" stroke-dasharray=""/><path fill="none" stroke="rgb(0,0,0)" paint-order="fill stroke markers" d=" M 292.89470224285674 149.6706280587088 C 292.89470224285674 147.99623597029898 294.2520652210428 146.63887299211285 295.92645730945264 146.63887299211285 C 297.6008493978625 146.63887299211285 298.95821237604855 147.99623597029898 298.95821237604855 149.6706280587088 C 298.95821237604855 151.3450201471186 297.6008493978625 152.70238312530472 295.92645730945264 152.70238312530472 C 294.2520652210428 152.70238312530472 292.89470224285674 151.3450201471186 292.89470224285674 149.6706280587088" stroke-opacity="1" stroke-linecap="round" stroke-miterlimit="10" stroke-dasharray=""/><path fill="none" stroke="rgb(0,0,0)" paint-order="fill stroke markers" d=" M 305.374358042844 168.64569023438207 C 305.374358042844 167.3367099237528 306.43549624644726 166.27557172014954 307.7444765570765 166.27557172014954 C 309.0534568677058 166.27557172014954 310.11459507130905 167.3367099237528 310.11459507130905 168.64569023438207 C 310.11459507130905 169.95467054501134 309.0534568677058 171.0158087486146 307.7444765570765 171.0158087486146 C 306.43549624644726 171.0158087486146 305.374358042844 169.95467054501134 305.374358042844 168.64569023438207" stroke-opacity="1" stroke-linecap="round" stroke-miterlimit="10" stroke-dasharray=""/><path fill="none" stroke="rgb(0,0,0)" paint-order="fill stroke markers" d=" M 292.7381752136284 192.14967856377504 C 292.7381752136284 191.36789863065087 293.37193306858774 190.73414077569151 294.15371300171194 190.73414077569151 C 294.9354929348361 190.73414077569151 295.56925078979543 191.36789863065087 295.56925078979543 192.14967856377504 C 295.56925078979543 192.9314584968992 294.9354929348361 193.56521635185857 294.15371300171194 193.56521635185857 C 293.37193306858774 193.56521635185857 292.7381752136284 192.9314584968992 292.7381752136284 192.14967856377504" stroke-opacity="1" stroke-linecap="round" stroke-miterlimit="10" stroke-dasharray=""/><path fill="none" stroke="rgb(255,0,0)" paint-order="fill stroke markers" d=" M 305.4812112142606 200 L 307.709051002838 221.8337055533907 L 305.065156417937 244.420835659168 L 282.1585344660663 256.2076775476456 L 272.01011147161046 274.14438726866484 L 252.85119000969263 282.31085157829926 L 241.34302923501497 306.34053971045955 L 217.6122390025543 302.1137137061022 L 197.20999647973386 295.50888683983106 L 178.23717672716228 293.2811553260681 L 158.03168106023722 291.70244987745514 L 143.20558924372793 278.0254709925643 L 124.79028568489119 268.8931730348945 L 106.14577779651471 256.4623822017904 L 108.90851916149296 232.3857388473707 L 97.60025617559201 214.59672949386095 L 103.16197455307237 194.33750739386335 L 94.86057874966242 172.20987401611598 L 99.25115853568123 150.283798652835 L 113.75064049384311 133.2812826520185 L 125.30135711289806 113.51232150268233 L 151.3711156720412 113.5485529848247 L 166.27582044657413 95.57902086582526 L 187.84480050664243 92.30280659735776 L 209.57362071140213 91.00556650790774 L 231.6385842795208 93.0452910666833 L 252.9058812943144 100.23845466435164 L 266.72029740229146 118.76531408188563 L 281.19483390120195 133.91201027581607 L 295.92645730945264 149.6706280587088 L 307.7444765570765 168.64569023438207 L 294.15371300171194 192.14967856377504 L 305.4812112142606 200 L 305.4812112142606 200 Z" stroke-opacity="1" stroke-linecap="round" stroke-miterlimit="10" stroke-width="0.5" stroke-dasharray=""/><path fill="none" stroke="rgb(0,0,0)" paint-order="fill stroke markers" d=" M 297.9075660361798 200 C 297.9075660361798 197.73289289341562 299.74541947287565 195.8950394567198 302.01252657946003 195.8950394567198 C 304.2796336860444 195.8950394567198 306.1174871227403 197.73289289341562 306.1174871227403 200 C 306.1174871227403 202.26710710658438 304.2796336860444 204.1049605432802 302.01252657946003 204.1049605432802 C 299.74541947287565 204.1049605432802 297.9075660361798 202.26710710658438 297.9075660361798 200" stroke-opacity="1" stroke-linecap="round" stroke-miterlimit="10" stroke-dasharray=""/><path fill="none" stroke="rgb(0,0,0)" paint-order="fill stroke markers" d=" M 311.066856964194 222.54431411929377 C 311.066856964194 222.46272169656487 311.13300069162756 222.3965779691313 311.2145931143565 222.3965779691313 C 311.29618553708536 222.3965779691313 311.36232926451896 222.46272169656487 311.36232926451896 222.54431411929377 C 311.36232926451896 222.62590654202265 311.29618553708536 222.69205026945622 311.2145931143565 222.69205026945622 C 311.13300069162756 222.69205026945622 311.066856964194 222.62590654202265 311.066856964194 222.54431411929377" stroke-opacity="1" stroke-linecap="round" stroke-miterlimit="10" stroke-dasharray=""/><path fill="none" stroke="rgb(0,0,0)" paint-order="fill stroke markers" d=" M 293.5076362942956 240.77890338922484 C 293.5076362942956 239.15323098961034 294.825504161189 237.835363122717 296.45117656080345 237.835363122717 C 298.076848960418 237.835363122717 299.3947168273113 239.15323098961034 299.3947168273113 240.77890338922484 C 299.3947168273113 242.40457578883934 298.076848960418 243.72244365573266 296.45117656080345 243.72244365573266 C 294.825504161189 243.72244365573266 293.5076362942956 242.40457578883934 293.5076362942956 240.77890338922484" stroke-opacity="1" stroke-linecap="round" stroke-miterlimit="10" stroke-dasharray=""/><path fill="none" stroke="rgb(0,0,0)" paint-order="fill stroke markers" d=" M 276.63950286215464 254.90588497084096 C 276.63950286215464 252.90870917462084 278.25853373639455 251.28967830038093 280.2557095326147 251.28967830038093 C 282.2528853288348 251.28967830038093 283.8719162030747 252.90870917462084 283.8719162030747 254.90588497084096 C 283.8719162030747 256.90306076706105 282.2528853288348 258.52209164130096 280.2557095326147 258.52209164130096 C 278.25853373639455 258.52209164130096 276.63950286215464 256.90306076706105 276.63950286215464 254.90588497084096" stroke-opacity="1" stroke-linecap="round" stroke-miterlimit="10" stroke-dasharray=""/><path fill="none" stroke="rgb(0,0,0)" paint-order="fill stroke markers" d=" M 274.0757160989164 276.56280855269307 C 274.0757160989164 276.4064007194264 274.2025096999158 276.27960711842695 274.35891753318253 276.27960711842695 C 274.51532536644913 276.27960711842695 274.6421189674486 276.4064007194264 274.6421189674486 276.56280855269307 C 274.6421189674486 276.7192163859597 274.51532536644913 276.8460099869592 274.35891753318253 276.8460099869592 C 274.2025096999158 276.8460099869592 274.0757160989164 276.7192163859597 274.0757160989164 276.56280855269307" stroke-opacity="1" stroke-linecap="round" stroke-miterlimit="10" stroke-dasharray=""/><path fill="none" stroke="rgb(0,0,0)" paint-order="fill stroke markers" d=" M 251.7211626351494 284.35390701723134 C 251.7211626351494 283.00530598002535 252.81441978376938 281.9120488314054 254.1630208209754 281.9120488314054 C 255.51162185818137 281.9120488314054 256.60487900680135 283.00530598002535 256.60487900680135 284.35390701723134 C 256.60487900680135 285.7025080544373 255.51162185818137 286.79576520305733 254.1630208209754 286.79576520305733 C 252.81441978376938 286.79576520305733 251.7211626351494 285.7025080544373 251.7211626351494 284.35390701723134" stroke-opacity="1" stroke-linecap="round" stroke-miterlimit="10" stroke-dasharray=""/><path fill="none" stroke="rgb(0,0,0)" paint-order="fill stroke markers" d=" M 234.9260842073157 295.08811101847016 C 234.9260842073157 293.96021817684436 235.84042201217113 293.04588037198897 236.9683148537969 293.04588037198897 C 238.09620769542263 293.04588037198897 239.01054550027806 293.96021817684436 239.01054550027806 295.08811101847016 C 239.01054550027806 296.2160038600959 238.09620769542263 297.1303416649513 236.9683148537969 297.1303416649513 C 235.84042201217113 297.1303416649513 234.9260842073157 296.2160038600959 234.9260842073157 295.08811101847016" stroke-opacity="1" stroke-linecap="round" stroke-miterlimit="10" stroke-dasharray=""/><path fill="none" stroke="rgb(0,0,0)" paint-order="fill stroke markers" d=" M 214.5134492217563 299.519919621074 C 214.5134492217563 298.05558041998785 215.7005306902006 296.86849895154353 217.16486989128677 296.86849895154353 C 218.62920909237295 296.86849895154353 219.81629056081724 298.05558041998785 219.81629056081724 299.519919621074 C 219.81629056081724 300.9842588221602 218.62920909237295 302.17134029060446 217.16486989128677 302.17134029060446 C 215.7005306902006 302.17134029060446 214.5134492217563 300.9842588221602 214.5134492217563 299.519919621074" stroke-opacity="1" stroke-linecap="round" stroke-miterlimit="10" stroke-dasharray=""/><path fill="none" stroke="rgb(0,0,0)" paint-order="fill stroke markers" d=" M 194.33171161489332 304.9674921332302 C 194.33171161489332 303.53045809801137 195.49665787288237 302.36551184002235 196.93369190810122 302.36551184002235 C 198.37072594332005 302.36551184002235 199.5356722013091 303.53045809801137 199.5356722013091 304.9674921332302 C 199.5356722013091 306.4045261684491 198.37072594332005 307.5694724264381 196.93369190810122 307.5694724264381 C 195.49665787288237 307.5694724264381 194.33171161489332 306.4045261684491 194.33171161489332 304.9674921332302" stroke-opacity="1" stroke-linecap="round" stroke-miterlimit="10" stroke-dasharray=""/><path fill="none" stroke="rgb(0,0,0)" paint-order="fill stroke markers" d=" M 172.804007311408 297.00501085626115 C 172.804007311408 294.4841729717378 174.84755018415925 292.44063009898656 177.36838806868258 292.44063009898656 C 179.8892259532059 292.44063009898656 181.93276882595717 294.4841729717378 181.93276882595717 297.00501085626115 C 181.93276882595717 299.52584874078445 179.8892259532059 301.5693916135357 177.36838806868258 301.5693916135357 C 174.84755018415925 301.5693916135357 172.804007311408 299.52584874078445 172.804007311408 297.00501085626115" stroke-opacity="1" stroke-linecap="round" stroke-miterlimit="10" stroke-dasharray=""/><path fill="none" stroke="rgb(0,0,0)" paint-order="fill stroke markers" d=" M 159.7372950136459 287.6858334300035 C 159.7372950136459 287.61258892570896 159.79667141608667 287.5532125232682 159.86991592038123 287.5532125232682 C 159.9431604246758 287.5532125232682 160.00253682711656 287.61258892570896 160.00253682711656 287.6858334300035 C 160.00253682711656 287.7590779342981 159.9431604246758 287.81845433673885 159.86991592038123 287.81845433673885 C 159.79667141608667 287.81845433673885 159.7372950136459 287.7590779342981 159.7372950136459 287.6858334300035" stroke-opacity="1" stroke-linecap="round" stroke-miterlimit="10" stroke-dasharray=""/><path fill="none" stroke="rgb(0,0,0)" paint-order="fill stroke markers" d=" M 128.39864320420696 291.76933465811527 C 128.39864320420696 289.11679620503173 130.54895048250404 286.96648892673466 133.2014889355876 286.96648892673466 C 135.85402738867117 286.96648892673466 138.00433466696825 289.11679620503173 138.00433466696825 291.76933465811527 C 138.00433466696825 294.4218731111988 135.85402738867117 296.5721803894959 133.2014889355876 296.5721803894959 C 130.54895048250404 296.5721803894959 128.39864320420696 294.4218731111988 128.39864320420696 291.76933465811527" stroke-opacity="1" stroke-linecap="round" stroke-miterlimit="10" stroke-dasharray=""/><path fill="none" stroke="rgb(0,0,0)" paint-order="fill stroke markers" d=" M 111.46182886066795 277.1531105162027 C 111.46182886066795 274.7721013328856 113.39201817446546 272.8419120190881 115.77302735778251 272.8419120190881 C 118.15403654109956 272.8419120190881 120.08422585489707 274.7721013328856 120.08422585489707 277.1531105162027 C 120.08422585489707 279.5341196995197 118.15403654109956 281.46430901331723 115.77302735778251 281.46430901331723 C 113.39201817446546 281.46430901331723 111.46182886066795 279.5341196995197 111.46182886066795 277.1531105162027" stroke-opacity="1" stroke-linecap="round" stroke-miterlimit="10" stroke-dasharray=""/><path fill="none" stroke="rgb(0,0,0)" paint-order="fill stroke markers" d=" M 105.96702115468109 256.39138589598554 C 105.96702115468109 256.2274844708361 106.09988951216428 256.09461611335286 106.26379093731379 256.09461611335286 C 106.42769236246329 256.09461611335286 106.56056071994648 256.2274844708361 106.56056071994648 256.39138589598554 C 106.56056071994648 256.55528732113504 106.42769236246329 256.6881556786183 106.26379093731379 256.6881556786183 C 106.09988951216428 256.6881556786183 105.96702115468109 256.55528732113504 105.96702115468109 256.39138589598554" stroke-opacity="1" stroke-linecap="round" stroke-miterlimit="10" stroke-dasharray=""/><path fill="none" stroke="rgb(0,0,0)" paint-order="fill stroke markers" d=" M 101.53537078191722 234.44183039650918 C 101.53537078191722 233.5637128356744 102.24722571471507 232.85185790287656 103.12534327554985 232.85185790287656 C 104.00346083638463 232.85185790287656 104.71531576918248 233.5637128356744 104.71531576918248 234.44183039650918 C 104.71531576918248 235.31994795734397 104.00346083638463 236.03180289014182 103.12534327554985 236.03180289014182 C 102.24722571471507 236.03180289014182 101.53537078191722 235.31994795734397 101.53537078191722 234.44183039650918" stroke-opacity="1" stroke-linecap="round" stroke-miterlimit="10" stroke-dasharray=""/><path fill="none" stroke="rgb(0,0,0)" paint-order="fill stroke markers" d=" M 97.95335880875784 213.98511494098054 C 97.95335880875784 211.8104783191715 99.71625010637179 210.04758702155755 101.89088672818082 210.04758702155755 C 104.06552334998985 210.04758702155755 105.82841464760378 211.8104783191715 105.82841464760378 213.98511494098054 C 105.82841464760378 216.15975156278955 104.06552334998985 217.9226428604035 101.89088672818082 217.9226428604035 C 99.71625010637179 217.9226428604035 97.95335880875784 216.15975156278955 97.95335880875784 213.98511494098054" stroke-opacity="1" stroke-linecap="round" stroke-miterlimit="10" stroke-dasharray=""/><path fill="none" stroke="rgb(0,0,0)" paint-order="fill stroke markers" d=" M 95.24645759844671 194.04044010959092 C 95.24645759844671 192.47461721614457 96.51580785438277 191.2052669602085 98.08163074782912 191.2052669602085 C 99.64745364127548 191.2052669602085 100.91680389721155 192.47461721614457 100.91680389721155 194.04044010959092 C 100.91680389721155 195.60626300303727 99.64745364127548 196.87561325897335 98.08163074782912 196.87561325897335 C 96.51580785438277 196.87561325897335 95.24645759844671 195.60626300303727 95.24645759844671 194.04044010959092" stroke-opacity="1" stroke-linecap="round" stroke-miterlimit="10" stroke-dasharray=""/><path fill="none" stroke="rgb(0,0,0)" paint-order="fill stroke markers" d=" M 91.43278422406709 172.22612789605435 C 91.43278422406709 170.29904710495148 92.99499186941068 168.7368394596079 94.92207266051355 168.7368394596079 C 96.84915345161642 168.7368394596079 98.41136109696 170.29904710495148 98.41136109696 172.22612789605435 C 98.41136109696 174.15320868715722 96.84915345161642 175.7154163325008 94.92207266051355 175.7154163325008 C 92.99499186941068 175.7154163325008 91.43278422406709 174.15320868715722 91.43278422406709 172.22612789605435" stroke-opacity="1" stroke-linecap="round" stroke-miterlimit="10" stroke-dasharray=""/><path fill="none" stroke="rgb(0,0,0)" paint-order="fill stroke markers" d=" M 108.89012177644393 155.63349639501982 C 108.89012177644393 154.96960193118568 109.42831457660643 154.4314091310232 110.09220904044057 154.4314091310232 C 110.7561035042747 154.4314091310232 111.29429630443718 154.96960193118568 111.29429630443718 155.63349639501982 C 111.29429630443718 156.29739085885396 110.7561035042747 156.83558365901644 110.09220904044057 156.83558365901644 C 109.42831457660643 156.83558365901644 108.89012177644393 156.29739085885396 108.89012177644393 155.63349639501982" stroke-opacity="1" stroke-linecap="round" stroke-miterlimit="10" stroke-dasharray=""/><path fill="none" stroke="rgb(0,0,0)" paint-order="fill stroke markers" d=" M 117.31861804769218 138.40838945373656 C 117.31861804769218 136.71840211948498 118.68862347055291 135.34839669662426 120.3786108048045 135.34839669662426 C 122.06859813905608 135.34839669662426 123.4386035619168 136.71840211948498 123.4386035619168 138.40838945373656 C 123.4386035619168 140.09837678798814 122.06859813905608 141.4683822108489 120.3786108048045 141.4683822108489 C 118.68862347055291 141.4683822108489 117.31861804769218 140.09837678798814 117.31861804769218 138.40838945373656" stroke-opacity="1" stroke-linecap="round" stroke-miterlimit="10" stroke-dasharray=""/><path fill="none" stroke="rgb(0,0,0)" paint-order="fill stroke markers" d=" M 130.65005971856783 122.74034498414456 C 130.65005971856783 121.29255279815487 131.82372718090988 120.11888533581283 133.27151936689955 120.11888533581283 C 134.71931155288922 120.11888533581283 135.89297901523128 121.29255279815487 135.89297901523128 122.74034498414456 C 135.89297901523128 124.18813717013424 134.71931155288922 125.36180463247628 133.27151936689955 125.36180463247628 C 131.82372718090988 125.36180463247628 130.65005971856783 124.18813717013424 130.65005971856783 122.74034498414456" stroke-opacity="1" stroke-linecap="round" stroke-miterlimit="10" stroke-dasharray=""/><path fill="none" stroke="rgb(0,0,0)" paint-order="fill stroke markers" d=" M 144.1598463824556 104.07056981529256 C 144.1598463824556 103.0323243322943 145.00151064415743 102.19066007059247 146.0397561271557 102.19066007059247 C 147.078001610154 102.19066007059247 147.91966587185578 103.0323243322943 147.91966587185578 104.07056981529256 C 147.91966587185578 105.10881529829082 147.078001610154 105.95047955999264 146.0397561271557 105.95047955999264 C 145.00151064415743 105.95047955999264 144.1598463824556 105.10881529829082 144.1598463824556 104.07056981529256" stroke-opacity="1" stroke-linecap="round" stroke-miterlimit="10" stroke-dasharray=""/><path fill="none" stroke="rgb(0,0,0)" paint-order="fill stroke markers" d=" M 167.2281947042868 103.41911419584727 C 167.2281947042868 102.54667504375335 167.93544637727877 101.8394233707614 168.80788552937267 101.8394233707614 C 169.68032468146657 101.8394233707614 170.38757635445856 102.54667504375335 170.38757635445856 103.41911419584727 C 170.38757635445856 104.29155334794119 169.68032468146657 104.99880502093316 168.80788552937267 104.99880502093316 C 167.93544637727877 104.99880502093316 167.2281947042868 104.29155334794119 167.2281947042868 103.41911419584727" stroke-opacity="1" stroke-linecap="round" stroke-miterlimit="10" stroke-dasharray=""/><path fill="none" stroke="rgb(0,0,0)" paint-order="fill stroke markers" d=" M 185.78197014161162 106.0717058284643 C 185.78197014161162 104.07417389126954 187.40128972515527 102.4548543077259 189.39882166235003 102.4548543077259 C 191.3963535995448 102.4548543077259 193.01567318308844 104.07417389126954 193.01567318308844 106.0717058284643 C 193.01567318308844 108.06923776565907 191.3963535995448 109.6885573492027 189.39882166235003 109.6885573492027 C 187.40128972515527 109.6885573492027 185.78197014161162 108.06923776565907 185.78197014161162 106.0717058284643" stroke-opacity="1" stroke-linecap="round" stroke-miterlimit="10" stroke-dasharray=""/><path fill="none" stroke="rgb(0,0,0)" paint-order="fill stroke markers" d=" M 205.3537439979546 95.25307456324927 C 205.3537439979546 93.12854936806853 207.07601195784486 91.40628140817829 209.2005371530256 91.40628140817829 C 211.32506234820633 91.40628140817829 213.04733030809658 93.12854936806853 213.04733030809658 95.25307456324927 C 213.04733030809658 97.37759975843001 211.32506234820633 99.09986771832027 209.2005371530256 99.09986771832027 C 207.07601195784486 99.09986771832027 205.3537439979546 97.37759975843001 205.3537439979546 95.25307456324927" stroke-opacity="1" stroke-linecap="round" stroke-miterlimit="10" stroke-dasharray=""/><path fill="none" stroke="rgb(0,0,0)" paint-order="fill stroke markers" d=" M 225.0018593976551 98.65126013338124 C 225.0018593976551 95.9017619640543 227.23076805618754 93.67285330552184 229.9802662255145 93.67285330552184 C 232.72976439484142 93.67285330552184 234.9586730533739 95.9017619640543 234.9586730533739 98.65126013338124 C 234.9586730533739 101.40075830270818 232.72976439484142 103.62966696124066 229.9802662255145 103.62966696124066 C 227.23076805618754 103.62966696124066 225.0018593976551 101.40075830270818 225.0018593976551 98.65126013338124" stroke-opacity="1" stroke-linecap="round" stroke-miterlimit="10" stroke-dasharray=""/><path fill="none" stroke="rgb(0,0,0)" paint-order="fill stroke markers" d=" M 244.6176787158817 111.39315528060601 C 244.6176787158817 110.08280233447519 245.6799296604166 109.02055138994031 246.9902826065474 109.02055138994031 C 248.30063555267822 109.02055138994031 249.3628864972131 110.08280233447519 249.3628864972131 111.39315528060601 C 249.3628864972131 112.70350822673683 248.30063555267822 113.76575917127171 246.9902826065474 113.76575917127171 C 245.6799296604166 113.76575917127171 244.6176787158817 112.70350822673683 244.6176787158817 111.39315528060601" stroke-opacity="1" stroke-linecap="round" stroke-miterlimit="10" stroke-dasharray=""/><path fill="none" stroke="rgb(0,0,0)" paint-order="fill stroke markers" d=" M 264.7770447804218 117.62516889605537 C 264.7770447804218 116.03476254321244 266.0663238677777 114.74548345585652 267.65673022062066 114.74548345585652 C 269.2471365734636 114.74548345585652 270.5364156608195 116.03476254321244 270.5364156608195 117.62516889605537 C 270.5364156608195 119.2155752488983 269.2471365734636 120.50485433625423 267.65673022062066 120.50485433625423 C 266.0663238677777 120.50485433625423 264.7770447804218 119.2155752488983 264.7770447804218 117.62516889605537" stroke-opacity="1" stroke-linecap="round" stroke-miterlimit="10" stroke-dasharray=""/><path fill="none" stroke="rgb(0,0,0)" paint-order="fill stroke markers" d=" M 269.2122597793149 140.27498208341038 C 269.2122597793149 137.97465493533502 271.07704338055566 136.10987133409424 273.377370528631 136.10987133409424 C 275.6776976767064 136.10987133409424 277.54248127794716 137.97465493533502 277.54248127794716 140.27498208341038 C 277.54248127794716 142.57530923148573 275.6776976767064 144.44009283272652 273.377370528631 144.44009283272652 C 271.07704338055566 144.44009283272652 269.2122597793149 142.57530923148573 269.2122597793149 140.27498208341038" stroke-opacity="1" stroke-linecap="round" stroke-miterlimit="10" stroke-dasharray=""/><path fill="none" stroke="rgb(0,0,0)" paint-order="fill stroke markers" d=" M 298.5779566501288 148.1013024433827 C 298.5779566501288 147.91374988470852 298.7299980395803 147.76170849525704 298.9175505982545 147.76170849525704 C 299.10510315692864 147.76170849525704 299.2571445463801 147.91374988470852 299.2571445463801 148.1013024433827 C 299.2571445463801 148.2888550020569 299.10510315692864 148.44089639150837 298.9175505982545 148.44089639150837 C 298.7299980395803 148.44089639150837 298.5779566501288 148.2888550020569 298.5779566501288 148.1013024433827" stroke-opacity="1" stroke-linecap="round" stroke-miterlimit="10" stroke-dasharray=""/><path fill="none" stroke="rgb(0,0,0)" paint-order="fill stroke markers" d=" M 297.2524558821063 170.76133013109282 C 297.2524558821063 168.98190447730033 298.69496538845874 167.53939497094788 300.4743910422512 167.53939497094788 C 302.25381669604366 167.53939497094788 303.6963262023961 168.98190447730033 303.6963262023961 170.76133013109282 C 303.6963262023961 172.54075578488528 302.25381669604366 173.98326529123773 300.4743910422512 173.98326529123773 C 298.69496538845874 173.98326529123773 297.2524558821063 172.54075578488528 297.2524558821063 170.76133013109282" stroke-opacity="1" stroke-linecap="round" stroke-miterlimit="10" stroke-dasharray=""/><path fill="none" stroke="rgb(0,0,0)" paint-order="fill stroke markers" d=" M 309.78955829805636 190.77463641604623 C 309.78955829805636 190.30194841275107 310.1727476360536 189.91875907475384 310.64543563934876 189.91875907475384 C 311.1181236426439 189.91875907475384 311.50131298064116 190.30194841275107 311.50131298064116 190.77463641604623 C 311.50131298064116 191.2473244193414 311.1181236426439 191.6305137573386 310.64543563934876 191.6305137573386 C 310.1727476360536 191.6305137573386 309.78955829805636 191.2473244193414 309.78955829805636 190.77463641604623" stroke-opacity="1" stroke-linecap="round" stroke-miterlimit="10" stroke-dasharray=""/><path fill="none" stroke="rgb(255,0,0)" paint-order="fill stroke markers" d=" M 302.01252657946003 200 L 311.2145931143565 222.54431411929377 L 296.45117656080345 240.77890338922484 L 280.2557095326147 254.90588497084096 L 274.35891753318253 276.56280855269307 L 254.1630208209754 284.35390701723134 L 236.9683148537969 295.08811101847016 L 217.16486989128677 299.519919621074 L 196.93369190810122 304.9674921332302 L 177.36838806868258 297.00501085626115 L 159.86991592038123 287.6858334300035 L 133.2014889355876 291.76933465811527 L 115.77302735778251 277.1531105162027 L 106.26379093731379 256.39138589598554 L 103.12534327554985 234.44183039650918 L 101.89088672818082 213.98511494098054 L 98.08163074782912 194.04044010959092 L 94.92207266051355 172.22612789605435 L 110.09220904044057 155.63349639501982 L 120.3786108048045 138.40838945373656 L 133.27151936689955 122.74034498414456 L 146.0397561271557 104.07056981529256 L 168.80788552937267 103.41911419584727 L 189.39882166235003 106.0717058284643 L 209.2005371530256 95.25307456324927 L 229.9802662255145 98.65126013338124 L 246.9902826065474 111.39315528060601 L 267.65673022062066 117.62516889605537 L 273.377370528631 140.27498208341038 L 298.9175505982545 148.1013024433827 L 300.4743910422512 170.76133013109282 L 310.64543563934876 190.77463641604623 L 302.01252657946003 200 L 302.01252657946003 200 Z" stroke-opacity="1" stroke-linecap="round" stroke-miterlimit="10" stroke-width="0.5" stroke-dasharray=""/><path fill="none" stroke="rgb(0,0,0)" paint-order="fill stroke markers" d=" M 298.2458051690807 200 C 298.2458051690807 198.9011159542597 299.1366266984776 198.0102944248628 300.2355107442179 198.0102944248628 C 301.3343947899582 198.0102944248628 302.2252163193551 198.9011159542597 302.2252163193551 200 C 302.2252163193551 201.0988840457403 301.3343947899582 201.9897055751372 300.2355107442179 201.9897055751372 C 299.1366266984776 201.9897055751372 298.2458051690807 201.0988840457403 298.2458051690807 200" stroke-opacity="1" stroke-linecap="round" stroke-miterlimit="10" stroke-dasharray=""/><path fill="none" stroke="rgb(0,0,0)" paint-order="fill stroke markers" d=" M 293.54830064427574 219.53028201568858 C 293.54830064427574 217.98520727087907 294.80083120247167 216.73267671268314 296.3459059472812 216.73267671268314 C 297.8909806920907 216.73267671268314 299.1435112502866 217.98520727087907 299.1435112502866 219.53028201568858 C 299.1435112502866 221.0753567604981 297.8909806920907 222.32788731869402 296.3459059472812 222.32788731869402 C 294.80083120247167 222.32788731869402 293.54830064427574 221.0753567604981 293.54830064427574 219.53028201568858" stroke-opacity="1" stroke-linecap="round" stroke-miterlimit="10" stroke-dasharray=""/><path fill="none" stroke="rgb(0,0,0)" paint-order="fill stroke markers" d=" M 292.64394942446813 240.57607542168148 C 292.64394942446813 238.73835129665449 294.1337191795319 237.24858154159062 295.97144330455893 237.24858154159062 C 297.80916742958595 237.24858154159062 299.2989371846498 238.73835129665449 299.2989371846498 240.57607542168148 C 299.2989371846498 242.41379954670847 297.80916742958595 243.90356930177234 295.97144330455893 243.90356930177234 C 294.1337191795319 243.90356930177234 292.64394942446813 242.41379954670847 292.64394942446813 240.57607542168148" stroke-opacity="1" stroke-linecap="round" stroke-miterlimit="10" stroke-dasharray=""/><path fill="none" stroke="rgb(0,0,0)" paint-order="fill stroke markers" d=" M 285.03319993275784 260.37926517514273 C 285.03319993275784 258.5992915990108 286.47615361792816 257.1563379138405 288.25612719406007 257.1563379138405 C 290.036100770192 257.1563379138405 291.4790544553623 258.5992915990108 291.4790544553623 260.37926517514273 C 291.4790544553623 262.15923875127464 290.036100770192 263.60219243644497 288.25612719406007 263.60219243644497 C 286.47615361792816 263.60219243644497 285.03319993275784 262.15923875127464 285.03319993275784 260.37926517514273" stroke-opacity="1" stroke-linecap="round" stroke-miterlimit="10" stroke-dasharray=""/><path fill="none" stroke="rgb(0,0,0)" paint-order="fill stroke markers" d=" M 274.45610724553626 278.68199019602156 C 274.45610724553626 277.59896508091094 275.33407257150304 276.7209997549442 276.4170976866136 276.7209997549442 C 277.50012280172416 276.7209997549442 278.37808812769094 277.59896508091094 278.37808812769094 278.68199019602156 C 278.37808812769094 279.7650153111321 277.50012280172416 280.64298063709884 276.4170976866136 280.64298063709884 C 275.33407257150304 280.64298063709884 274.45610724553626 279.7650153111321 274.45610724553626 278.68199019602156" stroke-opacity="1" stroke-linecap="round" stroke-miterlimit="10" stroke-dasharray=""/><path fill="none" stroke="rgb(0,0,0)" paint-order="fill stroke markers" d=" M 248.97410389865664 280.14647347603915 C 248.97410389865664 278.7727452899814 250.08773062608367 277.65911856255434 251.46145881214142 277.65911856255434 C 252.83518699819916 277.65911856255434 253.9488137256262 278.7727452899814 253.9488137256262 280.14647347603915 C 253.9488137256262 281.5202016620969 252.83518699819916 282.63382838952396 251.46145881214142 282.63382838952396 C 250.08773062608367 282.63382838952396 248.97410389865664 281.5202016620969 248.97410389865664 280.14647347603915" stroke-opacity="1" stroke-linecap="round" stroke-miterlimit="10" stroke-dasharray=""/><path fill="none" stroke="rgb(0,0,0)" paint-order="fill stroke markers" d=" M 236.54705524398216 298.9421189831911 C 236.54705524398216 297.88194259200964 237.40649801948126 297.0224998165105 238.46667441066273 297.0224998165105 C 239.52685080184423 297.0224998165105 240.38629357734334 297.88194259200964 240.38629357734334 298.9421189831911 C 240.38629357734334 300.0022953743726 239.52685080184423 300.8617381498717 238.46667441066273 300.8617381498717 C 237.40649801948126 300.8617381498717 236.54705524398216 300.0022953743726 236.54705524398216 298.9421189831911" stroke-opacity="1" stroke-linecap="round" stroke-miterlimit="10" stroke-dasharray=""/><path fill="none" stroke="rgb(0,0,0)" paint-order="fill stroke markers" d=" M 215.44547698871634 310.2603897536279 C 215.44547698871634 308.28769820145374 217.04465946146968 306.6885157287004 219.01735101364392 306.6885157287004 C 220.99004256581813 306.6885157287004 222.58922503857144 308.28769820145374 222.58922503857144 310.2603897536279 C 222.58922503857144 312.23308130580216 220.99004256581813 313.8322637785555 219.01735101364392 313.8322637785555 C 217.04465946146968 313.8322637785555 215.44547698871634 312.23308130580216 215.44547698871634 310.2603897536279" stroke-opacity="1" stroke-linecap="round" stroke-miterlimit="10" stroke-dasharray=""/><path fill="none" stroke="rgb(0,0,0)" paint-order="fill stroke markers" d=" M 196.0712031032668 297.01884862951465 C 196.0712031032668 296.4142711264667 196.5613100058029 295.9241642239306 197.1658875088509 295.9241642239306 C 197.77046501189886 295.9241642239306 198.26057191443496 296.4142711264667 198.26057191443496 297.01884862951465 C 198.26057191443496 297.62342613256266 197.77046501189886 298.1135330350988 197.1658875088509 298.1135330350988 C 196.5613100058029 298.1135330350988 196.0712031032668 297.62342613256266 196.0712031032668 297.01884862951465" stroke-opacity="1" stroke-linecap="round" stroke-miterlimit="10" stroke-dasharray=""/><path fill="none" stroke="rgb(0,0,0)" paint-order="fill stroke markers" d=" M 177.67248836265395 292.8128885496111 C 177.67248836265395 292.4406836106742 177.97422008242745 292.13895189090067 178.34642502136438 292.13895189090067 C 178.7186299603013 292.13895189090067 179.0203616800748 292.4406836106742 179.0203616800748 292.8128885496111 C 179.0203616800748 293.1850934885481 178.7186299603013 293.48682520832153 178.34642502136438 293.48682520832153 C 177.97422008242745 293.48682520832153 177.67248836265395 293.1850934885481 177.67248836265395 292.8128885496111" stroke-opacity="1" stroke-linecap="round" stroke-miterlimit="10" stroke-dasharray=""/><path fill="none" stroke="rgb(0,0,0)" paint-order="fill stroke markers" d=" M 151.58666123544498 297.24118655506624 C 151.58666123544498 295.08165645472195 153.3373062777718 293.3310114123951 155.49683637811611 293.3310114123951 C 157.65636647846043 293.3310114123951 159.40701152078725 295.08165645472195 159.40701152078725 297.24118655506624 C 159.40701152078725 299.4007166554105 157.65636647846043 301.15136169773734 155.49683637811611 301.15136169773734 C 153.3373062777718 301.15136169773734 151.58666123544498 299.4007166554105 151.58666123544498 297.24118655506624" stroke-opacity="1" stroke-linecap="round" stroke-miterlimit="10" stroke-dasharray=""/><path fill="none" stroke="rgb(0,0,0)" paint-order="fill stroke markers" d=" M 136.42887228427952 285.13876639120366 C 136.42887228427952 284.2556745166839 137.14475969506424 283.5397871058992 138.027851569584 283.5397871058992 C 138.91094344410374 283.5397871058992 139.62683085488845 284.2556745166839 139.62683085488845 285.13876639120366 C 139.62683085488845 286.0218582657234 138.91094344410374 286.7377456765081 138.027851569584 286.7377456765081 C 137.14475969506424 286.7377456765081 136.42887228427952 286.0218582657234 136.42887228427952 285.13876639120366" stroke-opacity="1" stroke-linecap="round" stroke-miterlimit="10" stroke-dasharray=""/><path fill="none" stroke="rgb(0,0,0)" paint-order="fill stroke markers" d=" M 118.94046065255144 270.60635197874484 C 118.94046065255144 268.4084953182552 120.7221755107133 266.6267804600933 122.92003217120298 266.6267804600933 C 125.11788883169265 266.6267804600933 126.89960368985453 268.4084953182552 126.89960368985453 270.60635197874484 C 126.89960368985453 272.8042086392345 125.11788883169265 274.5859234973964 122.92003217120298 274.5859234973964 C 120.7221755107133 274.5859234973964 118.94046065255144 272.8042086392345 118.94046065255144 270.60635197874484" stroke-opacity="1" stroke-linecap="round" stroke-miterlimit="10" stroke-dasharray=""/><path fill="none" stroke="rgb(0,0,0)" paint-order="fill stroke markers" d=" M 111.21225224138648 253.0753241618003 C 111.21225224138648 252.76403414797645 111.46460265749771 252.51168373186522 111.77589267132156 252.51168373186522 C 112.08718268514541 252.51168373186522 112.33953310125662 252.76403414797645 112.33953310125662 253.0753241618003 C 112.33953310125662 253.38661417562417 112.08718268514541 253.63896459173537 111.77589267132156 253.63896459173537 C 111.46460265749771 253.63896459173537 111.21225224138648 253.38661417562417 111.21225224138648 253.0753241618003" stroke-opacity="1" stroke-linecap="round" stroke-miterlimit="10" stroke-dasharray=""/><path fill="none" stroke="rgb(0,0,0)" paint-order="fill stroke markers" d=" M 104.39151560173354 232.63427837240297 C 104.39151560173354 230.5256907818707 106.10086358030011 228.81634280330414 108.20945117083238 228.81634280330414 C 110.31803876136465 228.81634280330414 112.02738673993122 230.5256907818707 112.02738673993122 232.63427837240297 C 112.02738673993122 234.74286596293524 110.31803876136465 236.4522139415018 108.20945117083238 236.4522139415018 C 106.10086358030011 236.4522139415018 104.39151560173354 234.74286596293524 104.39151560173354 232.63427837240297" stroke-opacity="1" stroke-linecap="round" stroke-miterlimit="10" stroke-dasharray=""/><path fill="none" stroke="rgb(0,0,0)" paint-order="fill stroke markers" d=" M 98.40059817705168 213.90065963062366 C 98.40059817705168 211.64581140123371 100.228513830254 209.8178957480314 102.48336205964397 209.8178957480314 C 104.73821028903393 209.8178957480314 106.56612594223625 211.64581140123371 106.56612594223625 213.90065963062366 C 106.56612594223625 216.15550786001364 104.73821028903393 217.98342351321597 102.48336205964397 217.98342351321597 C 100.228513830254 217.98342351321597 98.40059817705168 216.15550786001364 98.40059817705168 213.90065963062366" stroke-opacity="1" stroke-linecap="round" stroke-miterlimit="10" stroke-dasharray=""/><path fill="none" stroke="rgb(0,0,0)" paint-order="fill stroke markers" d=" M 99.04664880558867 194.22980381335495 C 99.04664880558867 192.9742309966734 100.06449168096854 191.95638812129351 101.32006449765008 191.95638812129351 C 102.57563731433162 191.95638812129351 103.5934801897115 192.9742309966734 103.5934801897115 194.22980381335495 C 103.5934801897115 195.48537663003646 102.57563731433162 196.50321950541635 101.32006449765008 196.50321950541635 C 100.06449168096854 196.50321950541635 99.04664880558867 195.48537663003646 99.04664880558867 194.22980381335495" stroke-opacity="1" stroke-linecap="round" stroke-miterlimit="10" stroke-dasharray=""/><path fill="none" stroke="rgb(0,0,0)" paint-order="fill stroke markers" d=" M 94.81895967340311 172.99348000121145 C 94.81895967340311 171.33316576649548 96.16491029629405 169.98721514360454 97.82522453101002 169.98721514360454 C 99.48553876572599 169.98721514360454 100.83148938861694 171.33316576649548 100.83148938861694 172.99348000121145 C 100.83148938861694 174.65379423592742 99.48553876572599 175.99974485881836 97.82522453101002 175.99974485881836 C 96.16491029629405 175.99974485881836 94.81895967340311 174.65379423592742 94.81895967340311 172.99348000121145" stroke-opacity="1" stroke-linecap="round" stroke-miterlimit="10" stroke-dasharray=""/><path fill="none" stroke="rgb(0,0,0)" paint-order="fill stroke markers" d=" M 99.67908388270845 151.9823074800175 C 99.67908388270845 150.31768410778875 101.02852775175619 148.96824023874103 102.69315112398493 148.96824023874103 C 104.35777449621368 148.96824023874103 105.7072183652614 150.31768410778875 105.7072183652614 151.9823074800175 C 105.7072183652614 153.64693085224627 104.35777449621368 154.996374721294 102.69315112398493 154.996374721294 C 101.02852775175619 154.996374721294 99.67908388270845 153.64693085224627 99.67908388270845 151.9823074800175" stroke-opacity="1" stroke-linecap="round" stroke-miterlimit="10" stroke-dasharray=""/><path fill="none" stroke="rgb(0,0,0)" paint-order="fill stroke markers" d=" M 116.59506651469465 139.02517559994297 C 116.59506651469465 136.49522382770428 118.64599765322774 134.4442926891712 121.17594942546643 134.4442926891712 C 123.70590119770512 134.4442926891712 125.7568323362382 136.49522382770428 125.7568323362382 139.02517559994297 C 125.7568323362382 141.55512737218166 123.70590119770512 143.60605851071475 121.17594942546643 143.60605851071475 C 118.64599765322774 143.60605851071475 116.59506651469465 141.55512737218166 116.59506651469465 139.02517559994297" stroke-opacity="1" stroke-linecap="round" stroke-miterlimit="10" stroke-dasharray=""/><path fill="none" stroke="rgb(0,0,0)" paint-order="fill stroke markers" d=" M 130.7852596245719 124.45341446459581 C 130.7852596245719 122.26315106722218 132.56081892675098 120.48759176504309 134.7510823241246 120.48759176504309 C 136.94134572149824 120.48759176504309 138.71690502367733 122.26315106722218 138.71690502367733 124.45341446459581 C 138.71690502367733 126.64367786196944 136.94134572149824 128.4192371641485 134.7510823241246 128.4192371641485 C 132.56081892675098 128.4192371641485 130.7852596245719 126.64367786196944 130.7852596245719 124.45341446459581" stroke-opacity="1" stroke-linecap="round" stroke-miterlimit="10" stroke-dasharray=""/><path fill="none" stroke="rgb(0,0,0)" paint-order="fill stroke markers" d=" M 142.61074238191642 106.41543951248909 C 142.61074238191642 103.79319070942152 144.73649504732532 101.66743804401261 147.3587438503929 101.66743804401261 C 149.98099265346045 101.66743804401261 152.10674531886934 103.79319070942152 152.10674531886934 106.41543951248909 C 152.10674531886934 109.03768831555665 149.98099265346045 111.16344098096555 147.3587438503929 111.16344098096555 C 144.73649504732532 111.16344098096555 142.61074238191642 109.03768831555665 142.61074238191642 106.41543951248909" stroke-opacity="1" stroke-linecap="round" stroke-miterlimit="10" stroke-dasharray=""/><path fill="none" stroke="rgb(0,0,0)" paint-order="fill stroke markers" d=" M 167.4721320271362 104.79447619746772 C 167.4721320271362 103.81143948590521 168.26904073669658 103.01453077634484 169.2520774482591 103.01453077634484 C 170.2351141598216 103.01453077634484 171.03202286938196 103.81143948590521 171.03202286938196 104.79447619746772 C 171.03202286938196 105.77751290903022 170.2351141598216 106.57442161859058 169.2520774482591 106.57442161859058 C 168.26904073669658 106.57442161859058 167.4721320271362 105.77751290903022 167.4721320271362 104.79447619746772" stroke-opacity="1" stroke-linecap="round" stroke-miterlimit="10" stroke-dasharray=""/><path fill="none" stroke="rgb(0,0,0)" paint-order="fill stroke markers" d=" M 187.36188091185096 101.85270550576303 C 187.36188091185096 100.99071879152271 188.06065920977596 100.2919404935977 188.92264592401628 100.2919404935977 C 189.7846326382566 100.2919404935977 190.4834109361816 100.99071879152271 190.4834109361816 101.85270550576303 C 190.4834109361816 102.71469222000334 189.7846326382566 103.41347051792835 188.92264592401628 103.41347051792835 C 188.06065920977596 103.41347051792835 187.36188091185096 102.71469222000334 187.36188091185096 101.85270550576303" stroke-opacity="1" stroke-linecap="round" stroke-miterlimit="10" stroke-dasharray=""/><path fill="none" stroke="rgb(0,0,0)" paint-order="fill stroke markers" d=" M 208.13049251057186 98.73285480870365 C 208.13049251057186 98.31069103949496 208.4727238642804 97.9684596857864 208.8948876334891 97.9684596857864 C 209.3170514026978 97.9684596857864 209.65928275640636 98.31069103949496 209.65928275640636 98.73285480870365 C 209.65928275640636 99.15501857791234 209.3170514026978 99.49724993162091 208.8948876334891 99.49724993162091 C 208.4727238642804 99.49724993162091 208.13049251057186 99.15501857791234 208.13049251057186 98.73285480870365" stroke-opacity="1" stroke-linecap="round" stroke-miterlimit="10" stroke-dasharray=""/><path fill="none" stroke="rgb(0,0,0)" paint-order="fill stroke markers" d=" M 224.35649053457365 105.86681738445519 C 224.35649053457365 103.9397187949486 225.91871260837428 102.37749672114799 227.84581119788083 102.37749672114799 C 229.77290978738745 102.37749672114799 231.33513186118805 103.9397187949486 231.33513186118805 105.86681738445519 C 231.33513186118805 107.79391597396177 229.77290978738745 109.35613804776239 227.84581119788083 109.35613804776239 C 225.91871260837428 109.35613804776239 224.35649053457365 107.79391597396177 224.35649053457365 105.86681738445519" stroke-opacity="1" stroke-linecap="round" stroke-miterlimit="10" stroke-dasharray=""/><path fill="none" stroke="rgb(0,0,0)" paint-order="fill stroke markers" d=" M 248.09093770577164 109.30077535575151 C 248.09093770577164 109.29581422400085 248.09495949768933 109.29179243208313 248.09992062944002 109.29179243208313 C 248.10488176119065 109.29179243208313 248.10890355310838 109.29581422400085 248.10890355310838 109.30077535575151 C 248.10890355310838 109.30573648750217 248.10488176119065 109.3097582794199 248.09992062944002 109.3097582794199 C 248.09495949768933 109.3097582794199 248.09093770577164 109.30573648750217 248.09093770577164 109.30077535575151" stroke-opacity="1" stroke-linecap="round" stroke-miterlimit="10" stroke-dasharray=""/><path fill="none" stroke="rgb(0,0,0)" paint-order="fill stroke markers" d=" M 257.99119385899826 125.51045481718897 C 257.99119385899826 123.74914549200375 259.4190171792881 122.32132217171389 261.1803265044733 122.32132217171389 C 262.9416358296586 122.32132217171389 264.36945914994845 123.74914549200375 264.36945914994845 125.51045481718897 C 264.36945914994845 127.2717641423742 262.9416358296586 128.69958746266406 261.1803265044733 128.69958746266406 C 259.4190171792881 128.69958746266406 257.99119385899826 127.2717641423742 257.99119385899826 125.51045481718897" stroke-opacity="1" stroke-linecap="round" stroke-miterlimit="10" stroke-dasharray=""/><path fill="none" stroke="rgb(0,0,0)" paint-order="fill stroke markers" d=" M 276.3967638565898 137.57410251160377 C 276.3967638565898 137.409040203222 276.53057329587364 137.27523076393814 276.6956356042555 137.27523076393814 C 276.86069791263725 137.27523076393814 276.99450735192113 137.409040203222 276.99450735192113 137.57410251160377 C 276.99450735192113 137.7391648199856 276.86069791263725 137.87297425926943 276.6956356042555 137.87297425926943 C 276.53057329587364 137.87297425926943 276.3967638565898 137.7391648199856 276.3967638565898 137.57410251160377" stroke-opacity="1" stroke-linecap="round" stroke-miterlimit="10" stroke-dasharray=""/><path fill="none" stroke="rgb(0,0,0)" paint-order="fill stroke markers" d=" M 292.9095538301083 149.08327339852772 C 292.9095538301083 146.79881049614343 294.7614769192104 144.94688740704134 297.0459398215947 144.94688740704134 C 299.330402723979 144.94688740704134 301.18232581308104 146.79881049614343 301.18232581308104 149.08327339852772 C 301.18232581308104 151.367736300912 299.330402723979 153.2196593900141 297.0459398215947 153.2196593900141 C 294.7614769192104 153.2196593900141 292.9095538301083 151.367736300912 292.9095538301083 149.08327339852772" stroke-opacity="1" stroke-linecap="round" stroke-miterlimit="10" stroke-dasharray=""/><path fill="none" stroke="rgb(0,0,0)" paint-order="fill stroke markers" d=" M 297.7594368041192 171.39719669688085 C 297.7594368041192 171.10454528566763 297.99667764743447 170.86730444235235 298.2893290586477 170.86730444235235 C 298.581980469861 170.86730444235235 298.81922131317623 171.10454528566763 298.81922131317623 171.39719669688085 C 298.81922131317623 171.6898481080941 298.581980469861 171.92708895140936 298.2893290586477 171.92708895140936 C 297.99667764743447 171.92708895140936 297.7594368041192 171.6898481080941 297.7594368041192 171.39719669688085" stroke-opacity="1" stroke-linecap="round" stroke-miterlimit="10" stroke-dasharray=""/><path fill="none" stroke="rgb(0,0,0)" paint-order="fill stroke markers" d=" M 302.5433031941943 191.32329767044848 C 302.5433031941943 190.48288486907072 303.22459238021 189.801595683055 304.0650051815878 189.801595683055 C 304.90541798296556 189.801595683055 305.5867071689812 190.48288486907072 305.5867071689812 191.32329767044848 C 305.5867071689812 192.16371047182622 304.90541798296556 192.84499965784192 304.0650051815878 192.84499965784192 C 303.22459238021 192.84499965784192 302.5433031941943 192.16371047182622 302.5433031941943 191.32329767044848" stroke-opacity="1" stroke-linecap="round" stroke-miterlimit="10" stroke-dasharray=""/><path fill="none" stroke="rgb(255,0,0)" paint-order="fill stroke markers" d=" M 300.2355107442179 200 L 296.3459059472812 219.53028201568858 L 295.97144330455893 240.57607542168148 L 288.25612719406007 260.37926517514273 L 276.4170976866136 278.68199019602156 L 251.46145881214142 280.14647347603915 L 238.46667441066273 298.9421189831911 L 219.01735101364392 310.2603897536279 L 197.1658875088509 297.01884862951465 L 178.34642502136438 292.8128885496111 L 155.49683637811611 297.24118655506624 L 138.027851569584 285.13876639120366 L 122.92003217120298 270.60635197874484 L 111.77589267132156 253.0753241618003 L 108.20945117083238 232.63427837240297 L 102.48336205964397 213.90065963062366 L 101.32006449765008 194.22980381335495 L 97.82522453101002 172.99348000121145 L 102.69315112398492 151.9823074800175 L 121.17594942546643 139.02517559994297 L 134.7510823241246 124.45341446459581 L 147.3587438503929 106.41543951248909 L 169.2520774482591 104.79447619746772 L 188.92264592401628 101.85270550576303 L 208.8948876334891 98.73285480870365 L 227.84581119788083 105.86681738445519 L 248.09992062944002 109.30077535575151 L 261.1803265044733 125.51045481718897 L 276.6956356042555 137.57410251160377 L 297.0459398215947 149.08327339852772 L 298.2893290586477 171.39719669688085 L 304.0650051815878 191.32329767044848 L 300.2355107442179 200 L 300.2355107442179 200 Z" stroke-opacity="1" stroke-linecap="round" stroke-miterlimit="10" stroke-width="0.5" stroke-dasharray=""/><path fill="none" stroke="rgb(0,0,0)" paint-order="fill stroke markers" d=" M 306.8637958083163 200 C 306.8637958083163 199.85808275596787 306.9788424657562 199.74303609852794 307.12075970978833 199.74303609852794 C 307.26267695382046 199.74303609852794 307.3777236112604 199.85808275596787 307.3777236112604 200 C 307.3777236112604 200.14191724403213 307.26267695382046 200.25696390147206 307.12075970978833 200.25696390147206 C 306.9788424657562 200.25696390147206 306.8637958083163 200.14191724403213 306.8637958083163 200" stroke-opacity="1" stroke-linecap="round" stroke-miterlimit="10" stroke-dasharray=""/><path fill="none" stroke="rgb(0,0,0)" paint-order="fill stroke markers" d=" M 299.9611979514086 220.8467129463118 C 299.9611979514086 219.25675934576424 301.250110010511 217.9678472866619 302.84006361105855 217.9678472866619 C 304.4300172116061 217.9678472866619 305.7189292707085 219.25675934576424 305.7189292707085 220.8467129463118 C 305.7189292707085 222.43666654685939 304.4300172116061 223.72557860596174 302.84006361105855 223.72557860596174 C 301.250110010511 223.72557860596174 299.9611979514086 222.43666654685939 299.9611979514086 220.8467129463118" stroke-opacity="1" stroke-linecap="round" stroke-miterlimit="10" stroke-dasharray=""/><path fill="none" stroke="rgb(0,0,0)" paint-order="fill stroke markers" d=" M 301.9339334184438 243.44637546755843 C 301.9339334184438 242.98996298348408 302.30392884123205 242.61996756069584 302.7603413253064 242.61996756069584 C 303.21675380938075 242.61996756069584 303.586749232169 242.98996298348408 303.586749232169 243.44637546755843 C 303.586749232169 243.90278795163277 303.21675380938075 244.272783374421 302.7603413253064 244.272783374421 C 302.30392884123205 244.272783374421 301.9339334184438 243.90278795163277 301.9339334184438 243.44637546755843" stroke-opacity="1" stroke-linecap="round" stroke-miterlimit="10" stroke-dasharray=""/><path fill="none" stroke="rgb(0,0,0)" paint-order="fill stroke markers" d=" M 283.3151801713531 257.48409263745043 C 283.3151801713531 257.09247577345667 283.6326483656297 256.77500757918006 284.02426522962344 256.77500757918006 C 284.4158820936172 256.77500757918006 284.7333502878938 257.09247577345667 284.7333502878938 257.48409263745043 C 284.7333502878938 257.8757095014442 284.4158820936172 258.19317769572075 284.02426522962344 258.19317769572075 C 283.6326483656297 258.19317769572075 283.3151801713531 257.8757095014442 283.3151801713531 257.48409263745043" stroke-opacity="1" stroke-linecap="round" stroke-miterlimit="10" stroke-dasharray=""/><path fill="none" stroke="rgb(0,0,0)" paint-order="fill stroke markers" d=" M 273.76761384915284 277.880792052044 C 273.76761384915284 276.84727481281965 274.60544511194416 276.00944355002827 275.6389623511685 276.00944355002827 C 276.67247959039287 276.00944355002827 277.51031085318425 276.84727481281965 277.51031085318425 277.880792052044 C 277.51031085318425 278.91430929126835 276.67247959039287 279.7521405540597 275.6389623511685 279.7521405540597 C 274.60544511194416 279.7521405540597 273.76761384915284 278.91430929126835 273.76761384915284 277.880792052044" stroke-opacity="1" stroke-linecap="round" stroke-miterlimit="10" stroke-dasharray=""/><path fill="none" stroke="rgb(0,0,0)" paint-order="fill stroke markers" d=" M 253.41843734703625 285.3669892135664 C 253.41843734703625 284.59650997444373 254.043034179454 283.971913142026 254.81351341857663 283.971913142026 C 255.5839926576993 283.971913142026 256.20858949011705 284.59650997444373 256.20858949011705 285.3669892135664 C 256.20858949011705 286.13746845268906 255.5839926576993 286.7620652851068 254.81351341857663 286.7620652851068 C 254.043034179454 286.7620652851068 253.41843734703625 286.13746845268906 253.41843734703625 285.3669892135664" stroke-opacity="1" stroke-linecap="round" stroke-miterlimit="10" stroke-dasharray=""/><path fill="none" stroke="rgb(0,0,0)" paint-order="fill stroke markers" d=" M 234.8715672750993 300.43914397105607 C 234.8715672750993 298.1321843711549 236.74172754087715 296.262024105377 239.0486871407783 296.262024105377 C 241.35564674067945 296.262024105377 243.22580700645733 298.1321843711549 243.22580700645733 300.43914397105607 C 243.22580700645733 302.7461035709572 241.35564674067945 304.616263836735 239.0486871407783 304.616263836735 C 236.74172754087715 304.616263836735 234.8715672750993 302.7461035709572 234.8715672750993 300.43914397105607" stroke-opacity="1" stroke-linecap="round" stroke-miterlimit="10" stroke-dasharray=""/><path fill="none" stroke="rgb(0,0,0)" paint-order="fill stroke markers" d=" M 214.06223859986767 308.1112844715318 C 214.06223859986767 305.579367194923 216.11476309451132 303.52684270027936 218.64668037112014 303.52684270027936 C 221.17859764772896 303.52684270027936 223.2311221423726 305.579367194923 223.2311221423726 308.1112844715318 C 223.2311221423726 310.64320174814065 221.17859764772896 312.6957262427843 218.64668037112014 312.6957262427843 C 216.11476309451132 312.6957262427843 214.06223859986767 310.64320174814065 214.06223859986767 308.1112844715318" stroke-opacity="1" stroke-linecap="round" stroke-miterlimit="10" stroke-dasharray=""/><path fill="none" stroke="rgb(0,0,0)" paint-order="fill stroke markers" d=" M 194.50344921497953 297.2518429540653 C 194.50344921497953 295.78517786141936 195.69241619107544 294.59621088532344 197.1590812837214 294.59621088532344 C 198.62574637636735 294.59621088532344 199.81471335246326 295.78517786141936 199.81471335246326 297.2518429540653 C 199.81471335246326 298.71850804671124 198.62574637636735 299.90747502280715 197.1590812837214 299.90747502280715 C 195.69241619107544 299.90747502280715 194.50344921497953 298.71850804671124 194.50344921497953 297.2518429540653" stroke-opacity="1" stroke-linecap="round" stroke-miterlimit="10" stroke-dasharray=""/><path fill="none" stroke="rgb(0,0,0)" paint-order="fill stroke markers" d=" M 173.32450487848473 299.7043293315319 C 173.32450487848473 297.818761458973 174.85305965414625 296.29020668331145 176.73862752670516 296.29020668331145 C 178.62419539926412 296.29020668331145 180.15275017492561 297.818761458973 180.15275017492561 299.7043293315319 C 180.15275017492561 301.58989720409085 178.62419539926412 303.1184519797523 176.73862752670516 303.1184519797523 C 174.85305965414625 303.1184519797523 173.32450487848473 301.58989720409085 173.32450487848473 299.7043293315319" stroke-opacity="1" stroke-linecap="round" stroke-miterlimit="10" stroke-dasharray=""/><path fill="none" stroke="rgb(0,0,0)" paint-order="fill stroke markers" d=" M 150.5846809152681 299.1874469108553 C 150.5846809152681 296.96646984916174 152.38513856184383 295.166012202586 154.60611562353733 295.166012202586 C 156.82709268523084 295.166012202586 158.62755033180656 296.96646984916174 158.62755033180656 299.1874469108553 C 158.62755033180656 301.4084239725488 156.82709268523084 303.2088816191245 154.60611562353733 303.2088816191245 C 152.38513856184383 303.2088816191245 150.5846809152681 301.4084239725488 150.5846809152681 299.1874469108553" stroke-opacity="1" stroke-linecap="round" stroke-miterlimit="10" stroke-dasharray=""/><path fill="none" stroke="rgb(0,0,0)" paint-order="fill stroke markers" d=" M 133.61663261660294 285.5067154529036 C 133.61663261660294 283.21838413069815 135.4716916795822 281.3633250677189 137.76002300178766 281.3633250677189 C 140.04835432399312 281.3633250677189 141.90341338697237 283.21838413069815 141.90341338697237 285.5067154529036 C 141.90341338697237 287.7950467751091 140.04835432399312 289.65010583808834 137.76002300178766 289.65010583808834 C 135.4716916795822 289.65010583808834 133.61663261660294 287.7950467751091 133.61663261660294 285.5067154529036" stroke-opacity="1" stroke-linecap="round" stroke-miterlimit="10" stroke-dasharray=""/><path fill="none" stroke="rgb(0,0,0)" paint-order="fill stroke markers" d=" M 118.76428488804426 270.6172970926118 C 118.76428488804426 268.3287402890517 120.61952673977719 266.4734984373188 122.90808354333727 266.4734984373188 C 125.19664034689735 266.4734984373188 127.05188219863028 268.3287402890517 127.05188219863028 270.6172970926118 C 127.05188219863028 272.9058538961719 125.19664034689735 274.76109574790485 122.90808354333727 274.76109574790485 C 120.61952673977719 274.76109574790485 118.76428488804426 272.9058538961719 118.76428488804426 270.6172970926118" stroke-opacity="1" stroke-linecap="round" stroke-miterlimit="10" stroke-dasharray=""/><path fill="none" stroke="rgb(0,0,0)" paint-order="fill stroke markers" d=" M 114.53387663606021 248.97484633684803 C 114.53387663606021 246.7336702715763 116.35070881034846 244.91683809728806 118.5918848756202 244.91683809728806 C 120.83306094089193 244.91683809728806 122.64989311518019 246.7336702715763 122.64989311518019 248.97484633684803 C 122.64989311518019 251.21602240211976 120.83306094089193 253.03285457640803 118.5918848756202 253.03285457640803 C 116.35070881034846 253.03285457640803 114.53387663606021 251.21602240211976 114.53387663606021 248.97484633684803" stroke-opacity="1" stroke-linecap="round" stroke-miterlimit="10" stroke-dasharray=""/><path fill="none" stroke="rgb(0,0,0)" paint-order="fill stroke markers" d=" M 92.5934836691211 237.92835029876358 C 92.5934836691211 237.52777104935893 92.91821731229537 237.20303740618465 93.31879656170004 237.20303740618465 C 93.71937581110471 237.20303740618465 94.04410945427897 237.52777104935893 94.04410945427897 237.92835029876358 C 94.04410945427897 238.32892954816828 93.71937581110471 238.65366319134253 93.31879656170004 238.65366319134253 C 92.91821731229537 238.65366319134253 92.5934836691211 238.32892954816828 92.5934836691211 237.92835029876358" stroke-opacity="1" stroke-linecap="round" stroke-miterlimit="10" stroke-dasharray=""/><path fill="none" stroke="rgb(0,0,0)" paint-order="fill stroke markers" d=" M 100.0264417624631 213.77939174916895 C 100.0264417624631 211.9526297960811 101.50732492133852 210.47174663720568 103.33408687442633 210.47174663720568 C 105.16084882751414 210.47174663720568 106.64173198638959 211.9526297960811 106.64173198638959 213.77939174916895 C 106.64173198638959 215.60615370225676 105.16084882751414 217.0870368611322 103.33408687442633 217.0870368611322 C 101.50732492133852 217.0870368611322 100.0264417624631 215.60615370225676 100.0264417624631 213.77939174916895" stroke-opacity="1" stroke-linecap="round" stroke-miterlimit="10" stroke-dasharray=""/><path fill="none" stroke="rgb(0,0,0)" paint-order="fill stroke markers" d=" M 104.16607640861255 194.45500594761603 C 104.16607640861255 193.89978386821275 104.61617283493364 193.44968744189165 105.17139491433693 193.44968744189165 C 105.72661699374022 193.44968744189165 106.1767134200613 193.89978386821275 106.1767134200613 194.45500594761603 C 106.1767134200613 195.01022802701934 105.72661699374022 195.4603244533404 105.17139491433693 195.4603244533404 C 104.61617283493364 195.4603244533404 104.16607640861255 195.01022802701934 104.16607640861255 194.45500594761603" stroke-opacity="1" stroke-linecap="round" stroke-miterlimit="10" stroke-dasharray=""/><path fill="none" stroke="rgb(0,0,0)" paint-order="fill stroke markers" d=" M 99.21059434517673 173.70654368213724 C 99.21059434517673 172.98173034923286 99.79817164621046 172.39415304819914 100.52298497911482 172.39415304819914 C 101.24779831201919 172.39415304819914 101.8353756130529 172.98173034923286 101.8353756130529 173.70654368213724 C 101.8353756130529 174.43135701504158 101.24779831201919 175.01893431607533 100.52298497911482 175.01893431607533 C 99.79817164621046 175.01893431607533 99.21059434517673 174.43135701504158 99.21059434517673 173.70654368213724" stroke-opacity="1" stroke-linecap="round" stroke-miterlimit="10" stroke-dasharray=""/><path fill="none" stroke="rgb(0,0,0)" paint-order="fill stroke markers" d=" M 102.01565678453606 152.94494654635076 C 102.01565678453606 151.4933973821038 103.19236987951788 150.316684287122 104.64391904376481 150.316684287122 C 106.09546820801174 150.316684287122 107.27218130299357 151.4933973821038 107.27218130299357 152.94494654635076 C 107.27218130299357 154.3964957105977 106.09546820801174 155.5732088055795 104.64391904376481 155.5732088055795 C 103.19236987951788 155.5732088055795 102.01565678453606 154.3964957105977 102.01565678453606 152.94494654635076" stroke-opacity="1" stroke-linecap="round" stroke-miterlimit="10" stroke-dasharray=""/><path fill="none" stroke="rgb(0,0,0)" paint-order="fill stroke markers" d=" M 113.07868709624708 133.35598026184738 C 113.07868709624708 132.93153986638947 113.42276402018216 132.58746294245438 113.84720441564008 132.58746294245438 C 114.271644811098 132.58746294245438 114.61572173503308 132.93153986638947 114.61572173503308 133.35598026184738 C 114.61572173503308 133.78042065730529 114.271644811098 134.12449758124038 113.84720441564008 134.12449758124038 C 113.42276402018216 134.12449758124038 113.07868709624708 133.78042065730529 113.07868709624708 133.35598026184738" stroke-opacity="1" stroke-linecap="round" stroke-miterlimit="10" stroke-dasharray=""/><path fill="none" stroke="rgb(0,0,0)" paint-order="fill stroke markers" d=" M 129.04721796308064 121.186323476238 C 129.04721796308064 119.59457985787569 130.33758111833234 118.30421670262398 131.92932473669464 118.30421670262398 C 133.52106835505697 118.30421670262398 134.8114315103087 119.59457985787569 134.8114315103087 121.186323476238 C 134.8114315103087 122.77806709460032 133.52106835505697 124.06843024985204 131.92932473669464 124.06843024985204 C 130.33758111833234 124.06843024985204 129.04721796308064 122.77806709460032 129.04721796308064 121.186323476238" stroke-opacity="1" stroke-linecap="round" stroke-miterlimit="10" stroke-dasharray=""/><path fill="none" stroke="rgb(0,0,0)" paint-order="fill stroke markers" d=" M 151.03927037228704 115.37894738012137 C 151.03927037228704 114.62704428320151 151.64880826607376 114.01750638941476 152.40071136299363 114.01750638941476 C 153.1526144599135 114.01750638941476 153.76215235370026 114.62704428320151 153.76215235370026 115.37894738012137 C 153.76215235370026 116.13085047704124 153.1526144599135 116.74038837082799 152.40071136299363 116.74038837082799 C 151.64880826607376 116.74038837082799 151.03927037228704 116.13085047704124 151.03927037228704 115.37894738012137" stroke-opacity="1" stroke-linecap="round" stroke-miterlimit="10" stroke-dasharray=""/><path fill="none" stroke="rgb(0,0,0)" paint-order="fill stroke markers" d=" M 163.92633345257354 101.81347322876178 C 163.92633345257354 99.40386125812304 165.87970990685753 97.45048480383906 168.28932187749626 97.45048480383906 C 170.698933848135 97.45048480383906 172.65231030241898 99.40386125812304 172.65231030241898 101.81347322876178 C 172.65231030241898 104.22308519940051 170.698933848135 106.1764616536845 168.28932187749626 106.1764616536845 C 165.87970990685753 106.1764616536845 163.92633345257354 104.22308519940051 163.92633345257354 101.81347322876178" stroke-opacity="1" stroke-linecap="round" stroke-miterlimit="10" stroke-dasharray=""/><path fill="none" stroke="rgb(0,0,0)" paint-order="fill stroke markers" d=" M 184.9083371460169 92.1036782323072 C 184.9083371460169 90.49432664620834 186.21297437942042 89.18968941280481 187.8223259655193 89.18968941280481 C 189.43167755161815 89.18968941280481 190.73631478502168 90.49432664620834 190.73631478502168 92.1036782323072 C 190.73631478502168 93.71302981840607 189.43167755161815 95.01766705180958 187.8223259655193 95.01766705180958 C 186.21297437942042 95.01766705180958 184.9083371460169 93.71302981840607 184.9083371460169 92.1036782323072" stroke-opacity="1" stroke-linecap="round" stroke-miterlimit="10" stroke-dasharray=""/><path fill="none" stroke="rgb(0,0,0)" paint-order="fill stroke markers" d=" M 208.2751662123299 103.79233903234608 C 208.2751662123299 103.69551399931072 208.3536584102527 103.61702180138792 208.45048344328805 103.61702180138792 C 208.54730847632342 103.61702180138792 208.62580067424622 103.69551399931072 208.62580067424622 103.79233903234608 C 208.62580067424622 103.88916406538144 208.54730847632342 103.96765626330424 208.45048344328805 103.96765626330424 C 208.3536584102527 103.96765626330424 208.2751662123299 103.88916406538144 208.2751662123299 103.79233903234608" stroke-opacity="1" stroke-linecap="round" stroke-miterlimit="10" stroke-dasharray=""/><path fill="none" stroke="rgb(0,0,0)" paint-order="fill stroke markers" d=" M 227.2830974262349 97.55094416824106 C 227.2830974262349 95.88157709435484 228.6363868252836 94.52828769530612 230.30575389916984 94.52828769530612 C 231.97512097305605 94.52828769530612 233.32841037210477 95.88157709435484 233.32841037210477 97.55094416824106 C 233.32841037210477 99.22031124212728 231.97512097305605 100.573600641176 230.30575389916984 100.573600641176 C 228.6363868252836 100.573600641176 227.2830974262349 99.22031124212728 227.2830974262349 97.55094416824106" stroke-opacity="1" stroke-linecap="round" stroke-miterlimit="10" stroke-dasharray=""/><path fill="none" stroke="rgb(0,0,0)" paint-order="fill stroke markers" d=" M 247.73715141020375 103.70945016670078 C 247.73715141020375 101.87145769241864 249.22713870532087 100.38147039730153 251.065131179603 100.38147039730153 C 252.90312365388513 100.38147039730153 254.39311094900225 101.87145769241864 254.39311094900225 103.70945016670078 C 254.39311094900225 105.54744264098291 252.90312365388513 107.03742993610004 251.065131179603 107.03742993610004 C 249.22713870532087 107.03742993610004 247.73715141020375 105.54744264098291 247.73715141020375 103.70945016670078" stroke-opacity="1" stroke-linecap="round" stroke-miterlimit="10" stroke-dasharray=""/><path fill="none" stroke="rgb(0,0,0)" paint-order="fill stroke markers" d=" M 264.33818902438617 117.25271560421706 C 264.33818902438617 115.25098857863179 265.9609093990055 113.62826820401243 267.96263642459076 113.62826820401243 C 269.96436345017605 113.62826820401243 271.5870838247954 115.25098857863179 271.5870838247954 117.25271560421706 C 271.5870838247954 119.25444262980233 269.96436345017605 120.87716300442169 267.96263642459076 120.87716300442169 C 265.9609093990055 120.87716300442169 264.33818902438617 119.25444262980233 264.33818902438617 117.25271560421706" stroke-opacity="1" stroke-linecap="round" stroke-miterlimit="10" stroke-dasharray=""/><path fill="none" stroke="rgb(0,0,0)" paint-order="fill stroke markers" d=" M 284.78277365740263 129.8482790374337 C 284.78277365740263 129.07248082184353 285.4116823721978 128.4435721070484 286.18748058778795 128.4435721070484 C 286.96327880337816 128.4435721070484 287.5921875181733 129.07248082184353 287.5921875181733 129.8482790374337 C 287.5921875181733 130.62407725302393 286.96327880337816 131.2529859678191 286.18748058778795 131.2529859678191 C 285.4116823721978 131.2529859678191 284.78277365740263 130.62407725302393 284.78277365740263 129.8482790374337" stroke-opacity="1" stroke-linecap="round" stroke-miterlimit="10" stroke-dasharray=""/><path fill="none" stroke="rgb(0,0,0)" paint-order="fill stroke markers" d=" M 293.29873676784257 148.78594912216417 C 293.29873676784257 146.40345053940544 295.23013347844744 144.47205382880054 297.6126320612062 144.47205382880054 C 299.99513064396496 144.47205382880054 301.9265273545698 146.40345053940544 301.9265273545698 148.78594912216417 C 301.9265273545698 151.16844770492293 299.99513064396496 153.09984441552783 297.6126320612062 153.09984441552783 C 295.23013347844744 153.09984441552783 293.29873676784257 151.16844770492293 293.29873676784257 148.78594912216417" stroke-opacity="1" stroke-linecap="round" stroke-miterlimit="10" stroke-dasharray=""/><path fill="none" stroke="rgb(0,0,0)" paint-order="fill stroke markers" d=" M 306.7104475752124 168.80301761154507 C 306.7104475752124 168.53052220662448 306.93134874700206 168.30962103483483 307.2038441519227 168.30962103483483 C 307.4763395568433 168.30962103483483 307.69724072863295 168.53052220662448 307.69724072863295 168.80301761154507 C 307.69724072863295 169.07551301646566 307.4763395568433 169.29641418825534 307.2038441519227 169.29641418825534 C 306.93134874700206 169.29641418825534 306.7104475752124 169.07551301646566 306.7104475752124 168.80301761154507" stroke-opacity="1" stroke-linecap="round" stroke-miterlimit="10" stroke-dasharray=""/><path fill="none" stroke="rgb(0,0,0)" paint-order="fill stroke markers" d=" M 297.67414989729843 191.55673390641064 C 297.67414989729843 189.57341777037718 299.28194529702927 187.96562237064634 301.26526143306273 187.96562237064634 C 303.24857756909626 187.96562237064634 304.85637296882703 189.57341777037718 304.85637296882703 191.55673390641064 C 304.85637296882703 193.54005004244414 303.24857756909626 195.14784544217494 301.26526143306273 195.14784544217494 C 299.28194529702927 195.14784544217494 297.67414989729843 193.54005004244414 297.67414989729843 191.55673390641064" stroke-opacity="1" stroke-linecap="round" stroke-miterlimit="10" stroke-dasharray=""/><path fill="none" stroke="rgb(255,0,0)" paint-order="fill stroke markers" d=" M 307.12075970978833 200 L 302.84006361105855 220.8467129463118 L 302.7603413253064 243.44637546755843 L 284.02426522962344 257.48409263745043 L 275.6389623511685 277.880792052044 L 254.81351341857663 285.3669892135664 L 239.0486871407783 300.43914397105607 L 218.64668037112014 308.1112844715318 L 197.1590812837214 297.2518429540653 L 176.73862752670516 299.7043293315319 L 154.60611562353733 299.1874469108553 L 137.76002300178766 285.5067154529036 L 122.90808354333727 270.6172970926118 L 118.5918848756202 248.97484633684803 L 93.31879656170004 237.92835029876358 L 103.33408687442633 213.77939174916895 L 105.17139491433693 194.45500594761603 L 100.52298497911482 173.70654368213724 L 104.64391904376481 152.94494654635076 L 113.84720441564008 133.35598026184738 L 131.92932473669464 121.186323476238 L 152.40071136299363 115.37894738012137 L 168.28932187749626 101.81347322876178 L 187.8223259655193 92.1036782323072 L 208.45048344328805 103.79233903234608 L 230.30575389916984 97.55094416824106 L 251.065131179603 103.70945016670078 L 267.96263642459076 117.25271560421706 L 286.18748058778795 129.8482790374337 L 297.61263206120617 148.78594912216417 L 307.2038441519227 168.80301761154507 L 301.26526143306273 191.55673390641064 L 307.12075970978833 200 L 307.12075970978833 200 Z" stroke-opacity="1" stroke-linecap="round" stroke-miterlimit="10" stroke-width="0.5" stroke-dasharray=""/></g></svg>